<svg width="1059" height="1089" viewBox="0 0 1059 1089" fill="none" xmlns="http://www.w3.org/2000/svg">
<style>
  @keyframes hand {
    from { rotate: 0deg; }
    to { rotate: 10deg; }
  }
  @keyframes wobble {
    0% { transform: translateY(0); }
    100% { transform: translateY(-40px); }
  }
  @keyframes bob {
    from { transform: translateY(20px); }
    to { transform: translateY(-40px); }
  }
  #HandMagnifyingGlass {
    transform-origin: 755px 430px;
    animation: 0.7s ease-in-out infinite alternate hand;
  }
  #Teri {
    transform-origin: 300px 700px;
    animation: 3s ease-in-out infinite alternate wobble;
  }
  #BGDots * {
    transform: translateY(20px);
    animation: 3s ease-in-out infinite alternate bob;
  }
  #BGDots :nth-child(1) { animation-delay: 1s; }
  #BGDots :nth-child(2) { animation-delay: 0.7s; }
  #BGDots :nth-child(3) { animation-delay: 0.5s; }
  #BGDots :nth-child(4) { animation-delay: 0.2s; }
  @media (prefers-reduced-motion) { g { animation: none; }}
</style>
<g id="FloorShadow">
<path id="Vector" opacity="0.5" d="M518.93 1072.98C716.173 1072.98 876.07 1062.68 876.07 1049.97C876.07 1037.26 716.173 1026.96 518.93 1026.96C321.687 1026.96 161.79 1037.26 161.79 1049.97C161.79 1062.68 321.687 1072.98 518.93 1072.98Z" fill="#9D97B7"/>
</g>
<g id="BGDots">
<path id="Vector_2" opacity="0.5" d="M218.32 904.55C250.855 904.55 277.23 878.175 277.23 845.64C277.23 813.105 250.855 786.73 218.32 786.73C185.785 786.73 159.41 813.105 159.41 845.64C159.41 878.175 185.785 904.55 218.32 904.55Z" fill="#D8DFE2"/>
<path id="Vector_3" opacity="0.5" d="M859.45 621.37C882.27 621.37 900.77 602.87 900.77 580.05C900.77 557.23 882.27 538.73 859.45 538.73C836.63 538.73 818.13 557.23 818.13 580.05C818.13 602.87 836.63 621.37 859.45 621.37Z" fill="#D8DFE2"/>
<path id="Vector_4" opacity="0.5" d="M705.71 706.69C718.109 706.69 728.16 696.639 728.16 684.24C728.16 671.841 718.109 661.79 705.71 661.79C693.311 661.79 683.26 671.841 683.26 684.24C683.26 696.639 693.311 706.69 705.71 706.69Z" fill="#D8DFE2"/>
<path id="Vector_5" opacity="0.5" d="M144.43 366.56C156.829 366.56 166.88 356.509 166.88 344.11C166.88 331.711 156.829 321.66 144.43 321.66C132.031 321.66 121.98 331.711 121.98 344.11C121.98 356.509 132.031 366.56 144.43 366.56Z" fill="#D8DFE2"/>
<path id="Vector_6" opacity="0.5" d="M391.28 69.8199C399.288 69.8199 405.78 63.3281 405.78 55.3199C405.78 47.3118 399.288 40.8199 391.28 40.8199C383.272 40.8199 376.78 47.3118 376.78 55.3199C376.78 63.3281 383.272 69.8199 391.28 69.8199Z" fill="#D8DFE2"/>
</g>
<g id="Teri">
<g id="Body">
<path id="Vector_7" d="M236.81 647.57C238.81 640.1 240.67 634.12 241.87 630.49C238.18 620.51 235.827 610.087 234.87 599.49C231.42 560.08 248.87 529.64 268.87 494.73C283.12 469.86 297.35 453.05 310.25 440.53C313.87 437.01 316.98 434.23 319.1 432.37C323.094 412.072 332.26 393.148 345.71 377.43C369.87 349.36 400.01 341.1 410.64 338.7C456.43 287.7 529.09 274.35 584.27 304.12C628.49 328 655.87 376.44 656 429.33C658.1 435.4 660 441.8 661.62 448.53C673 495.92 665.14 538.84 655.62 568.86L633.45 615.61C652.8 660.92 662.79 689.7 668.33 718.71C672.64 741.32 674.89 753.45 674.69 771.13C674.03 829.35 647.89 870.66 639.95 882.38C626.25 902.61 612.29 915.2 603.39 923.1C587.64 937.1 563.45 958.54 525.74 968.95C489.85 978.86 458.41 974.16 439.96 969.63C433.88 968.19 424.14 966.05 409.36 963.36L408.36 963.17C402.91 962.17 385.88 958.33 363.11 945.06C326.58 923.77 301.91 895.59 284.47 870.27C279.9 863.66 200.91 784.32 236.81 647.57Z" fill="#E1E1EA"/>
<path id="Vector_8" opacity="0.1" d="M284.45 870.27C279.9 863.66 200.91 784.32 236.81 647.57C238.72 640.28 240.57 634.42 241.81 630.77C242.824 632.121 243.926 633.404 245.11 634.61C251.87 641.45 263.97 644.42 287.9 650.09C330.31 660.09 325.56 660.02 338.9 658.34C364.18 655.15 365.2 640.48 394.75 629.79C424.3 619.1 461.89 619.87 467.59 632.91C469.28 636.79 469.59 645.06 452.52 662.98C433.99 666.32 359.88 680.63 333.36 710.98C329 715.98 327.31 719.79 328.11 723.17C331.19 736.26 370.24 737.53 407.23 738.06C520.37 739.69 577.1 740.12 585.01 721.31C596.22 694.65 546.89 656.5 555.67 645.53C563.57 635.66 609.77 658.71 660.08 688.08C663.406 698.142 666.183 708.377 668.4 718.74C670.01 726.26 675.01 748.36 674.76 771.16C674.1 829.38 647.96 870.69 640.02 882.41C626.32 902.64 612.36 915.23 603.46 923.13C587.71 937.13 563.52 958.57 525.81 968.98C489.92 978.89 458.48 974.19 440.03 969.66L438.82 969.38C435.37 968.57 425.82 966.38 409.43 963.38L408.43 963.19C402.98 962.19 385.95 958.35 363.18 945.08C326.56 923.77 301.89 895.59 284.45 870.27Z" fill="#18187C"/>
<path id="Vector_9" opacity="0.1" d="M449.36 540.06C423.69 551.65 396.84 542.06 378.82 535.55C332.76 519.03 325.44 493.08 300.65 497.39C282.52 500.54 269.21 517.39 257.01 532.9C248.436 543.797 241.499 555.888 236.42 568.79C241.23 543.04 254.42 520.06 268.9 494.73C283.15 469.86 297.38 453.05 310.28 440.53C313.9 437.01 317.01 434.23 319.13 432.37C323.77 414.68 334.79 376.68 345.74 377.43C354.27 378.01 363.16 402.18 360.28 423.89C358.11 440.19 349.28 444.46 348.49 456.62C345.96 494.54 381.41 519.62 383.78 521.21C378.15 518.21 371.42 514.69 363.78 510.81C370.112 514.754 376.719 518.24 383.55 521.24C402.71 529.96 417.21 536.56 435.34 534.12C463.98 530.27 481.34 506.57 486.2 499.43C480.77 511.46 469.81 530.83 449.36 540.06Z" fill="#18187C"/>
<path id="Vector_10" d="M236.81 647.57C238.81 640.1 240.67 634.12 241.87 630.49C238.18 620.51 235.827 610.087 234.87 599.49C231.42 560.08 248.87 529.64 268.87 494.73C283.12 469.86 297.35 453.05 310.25 440.53C313.87 437.01 316.98 434.23 319.1 432.37C323.094 412.072 332.26 393.148 345.71 377.43C369.87 349.36 400.01 341.1 410.64 338.7C456.43 287.7 529.09 274.35 584.27 304.12C628.49 328 655.87 376.44 656 429.33C658.1 435.4 660 441.8 661.62 448.53C673 495.92 665.14 538.84 655.62 568.86L633.45 615.61C652.8 660.92 662.79 689.7 668.33 718.71C672.64 741.32 674.89 753.45 674.69 771.13C674.03 829.35 647.89 870.66 639.95 882.38C629.546 897.454 617.26 911.138 603.39 923.1C591.87 933.1 567.77 953.64 530.87 965.22C477.96 981.84 431.97 969.66 409.36 963.36C397.01 959.92 381.47 955.48 363.09 945.06C326.66 924.4 301.23 894.64 284.45 870.27C279.9 863.66 200.91 784.32 236.81 647.57Z" stroke="#6360A7" stroke-width="7" stroke-linecap="round" stroke-linejoin="round"/>
<path id="Vector_11" d="M486.61 615.35C470.895 627.635 459.039 644.173 452.45 663" stroke="#6360A7" stroke-width="5" stroke-linecap="round" stroke-linejoin="round"/>
<path id="Vector_12" d="M418.2 605.23C424.11 603.39 439.58 599.48 456.6 605.97C462.335 608.169 467.667 611.301 472.38 615.24C473.938 617.601 474.644 620.423 474.38 623.24C474.149 625.45 473.319 627.556 471.98 629.33C471.949 632.247 471.309 635.125 470.1 637.78C468.489 641.282 465.951 644.277 462.76 646.44C462.398 648.476 461.574 650.403 460.35 652.07C457.96 655.26 454.47 656.68 448.7 658.01C441.846 659.563 434.838 660.331 427.81 660.3C426.669 660.235 425.576 659.818 424.683 659.104C423.79 658.391 423.141 657.417 422.825 656.319C422.51 655.22 422.544 654.051 422.923 652.972C423.302 651.894 424.007 650.96 424.94 650.3C422.896 650.335 420.862 649.996 418.94 649.3C411.27 646.51 408.35 638.81 407.8 637.3C411.267 626.62 414.733 615.93 418.2 605.23Z" fill="#A5A0D8"/>
<path id="Vector_13" d="M418.2 605.23C424.11 603.39 439.58 599.48 456.6 605.97C462.335 608.169 467.667 611.301 472.38 615.24C473.938 617.601 474.644 620.423 474.38 623.24C474.149 625.45 473.319 627.556 471.98 629.33C471.949 632.247 471.309 635.125 470.1 637.78C468.489 641.282 465.951 644.277 462.76 646.44C462.398 648.476 461.574 650.403 460.35 652.07C457.96 655.26 454.47 656.68 448.7 658.01C441.846 659.563 434.838 660.331 427.81 660.3C426.669 660.235 425.576 659.818 424.683 659.104C423.79 658.391 423.141 657.417 422.825 656.319C422.51 655.22 422.544 654.051 422.923 652.972C423.302 651.894 424.007 650.96 424.94 650.3C422.896 650.335 420.862 649.996 418.94 649.3C411.27 646.51 408.35 638.81 407.8 637.3C411.267 626.62 414.733 615.93 418.2 605.23Z" stroke="#6360A7" stroke-width="5" stroke-linecap="round" stroke-linejoin="round"/>
<path id="Vector_14" d="M424.93 650.3L442.36 643.83" stroke="#6360A7" stroke-width="5" stroke-linecap="round" stroke-linejoin="round"/>
<path id="Vector_15" d="M442.91 637.75C442.91 637.75 445.37 642.94 443.91 645.42" stroke="#6360A7" stroke-width="5" stroke-linecap="round" stroke-linejoin="round"/>
<path id="Vector_16" d="M459 631.19C459 631.19 465.21 640.77 462.79 646.39" stroke="#6360A7" stroke-width="5" stroke-linecap="round" stroke-linejoin="round"/>
<path id="Vector_17" d="M465 619C465 619 472.08 627.3 472 629.24" stroke="#6360A7" stroke-width="5" stroke-linecap="round" stroke-linejoin="round"/>
<path id="Vector_18" d="M271.43 531.69C266.03 535.3 248.96 547.82 241.29 573.54C234.19 597.36 238.39 621.7 245.11 637C271.35 696.66 368.11 691.41 402.28 657.44C407.28 652.44 418.95 640.89 421.5 622.2C422.439 611.652 421.011 601.026 417.32 591.1C406.81 562.68 349.22 539.45 271.43 531.69Z" fill="#E1E1EA"/>
<path id="Vector_19" d="M298.92 535.3C361.66 545.3 406.53 566.23 415.64 591.1C419.301 601.034 420.718 611.654 419.79 622.2C417.26 640.89 405.69 652.47 400.73 657.44C366.8 691.44 270.91 696.66 244.89 637C244.89 637 231.67 607.37 237.18 563.72" stroke="#6360A7" stroke-width="6.97" stroke-linecap="round" stroke-linejoin="round"/>
<path id="Vector_20" d="M546.82 635.84C550.72 640.47 554.71 645.61 558.67 651.29C565.229 660.705 571.005 670.641 575.94 681" stroke="#6360A7" stroke-width="5" stroke-linecap="round" stroke-linejoin="round"/>
<path id="Vector_21" d="M609.39 621.34C603.31 620.17 587.5 618.03 571.32 626.34C565.867 629.175 560.921 632.892 556.68 637.34C555.413 639.847 555.032 642.709 555.6 645.46C556.076 647.634 557.137 649.636 558.67 651.25C559.026 654.14 559.984 656.923 561.48 659.42C563.477 662.72 566.336 665.413 569.75 667.21C570.327 669.191 571.353 671.012 572.75 672.53C575.49 675.43 579.11 676.45 585 677.12C591.98 677.895 599.025 677.871 606 677.05C607.113 676.848 608.137 676.308 608.932 675.504C609.728 674.699 610.256 673.67 610.446 672.555C610.636 671.439 610.479 670.293 609.994 669.27C609.51 668.248 608.723 667.4 607.74 666.84C609.767 666.653 611.743 666.097 613.57 665.2C620.87 661.57 622.91 653.59 623.28 652.02C618.667 641.807 614.037 631.58 609.39 621.34Z" fill="#A5A0D8"/>
<path id="Vector_22" d="M609.39 621.34C603.31 620.17 587.5 618.03 571.32 626.34C565.867 629.175 560.921 632.892 556.68 637.34C555.413 639.847 555.032 642.709 555.6 645.46C556.076 647.634 557.137 649.636 558.67 651.25C559.026 654.14 559.984 656.923 561.48 659.42C563.477 662.72 566.336 665.413 569.75 667.21C570.327 669.191 571.353 671.012 572.75 672.53C575.49 675.43 579.11 676.45 585 677.12C591.98 677.895 599.025 677.871 606 677.05C607.113 676.848 608.137 676.308 608.932 675.504C609.728 674.699 610.256 673.67 610.446 672.555C610.636 671.439 610.479 670.293 609.994 669.27C609.51 668.248 608.723 667.4 607.74 666.84C609.767 666.653 611.743 666.097 613.57 665.2C620.87 661.57 622.91 653.59 623.28 652.02C618.667 641.807 614.037 631.58 609.39 621.34Z" stroke="#6360A7" stroke-width="5" stroke-linecap="round" stroke-linejoin="round"/>
<path id="Vector_23" d="M607.78 666.88L589.73 662.41" stroke="#6360A7" stroke-width="5" stroke-linecap="round" stroke-linejoin="round"/>
<path id="Vector_24" d="M588.49 656.43C588.49 656.43 586.64 661.86 588.36 664.16" stroke="#6360A7" stroke-width="5" stroke-linecap="round" stroke-linejoin="round"/>
<path id="Vector_25" d="M571.81 651.72C571.81 651.72 566.72 661.93 569.75 667.25" stroke="#6360A7" stroke-width="5" stroke-linecap="round" stroke-linejoin="round"/>
<path id="Vector_26" d="M564.48 640.32C564.48 640.32 558.38 649.32 558.67 651.32" stroke="#6360A7" stroke-width="5" stroke-linecap="round" stroke-linejoin="round"/>
<path id="Vector_27" d="M729.43 548.21C740.647 563.162 748.494 580.367 752.43 598.64C756.18 616.64 760.94 639.49 748.51 660.84C733.51 686.61 703.81 692.46 690.79 695.02C685.22 696.12 644.37 703.68 626.44 684.02C617.83 674.57 613.55 661.54 613.55 661.54C612.182 657.392 611.253 653.112 610.78 648.77C610.511 645.674 610.451 642.564 610.6 639.46C610.69 637.16 611.6 625.37 614.18 617.67C619.58 601.61 636.68 590.54 639.8 588.56C638.467 560.733 637.16 532.903 635.88 505.07H674C695.965 514.298 715.091 529.183 729.43 548.21Z" fill="#E1E1EA"/>
<path id="Vector_28" d="M689.08 571.18C671.333 574.701 654.412 581.548 639.21 591.36C627.59 598.92 618.68 604.89 613.69 616.54C608.19 629.39 609.84 643.54 610.32 647.64C610.827 652.117 611.792 656.53 613.2 660.81C613.2 660.81 617.42 673.5 625.84 682.89C643.84 702.94 684.48 696.08 690.76 695.02C705.47 692.54 731.38 688.17 745.68 666.44C755.17 652.02 754.91 637 754.68 621.62C754.182 599.077 747.809 577.055 736.19 557.73C715.75 524.1 685.48 509.8 673.99 505.06" stroke="#6360A7" stroke-width="6.29" stroke-linecap="round" stroke-linejoin="round"/>
<path id="Vector_29" d="M584.54 787C608.71 773.6 624.38 764.9 645.41 765.43C647.9 765.5 684.5 766.86 695.58 789.43C698.37 795.11 698.25 802.62 698.01 817.65C697.76 833.6 697.56 846.46 693.01 862.41C688.283 878.956 680.214 894.356 669.3 907.66C651.02 929.42 629.66 938.18 603.61 948.86C597.83 951.23 592.36 953.25 587.17 954.99C574.955 959.082 562.502 962.425 549.88 965C506.88 973.52 466.38 970 461.99 969.55C443.199 967.673 424.597 964.228 406.38 959.25C402.51 958.25 399.29 957.25 397.03 956.58C412.41 939.45 425.44 925.58 434.63 915.92C488.01 859.92 521.88 831.23 546.73 812.09C558.665 802.761 571.306 794.372 584.54 787Z" fill="#E1E1EA"/>
<path id="Vector_30" opacity="0.1" d="M545.78 965.77C504.33 973.28 466.24 969.94 461.99 969.54C443.199 967.663 424.597 964.218 406.38 959.24C402.51 958.24 399.29 957.24 397.03 956.57L495.12 890.08C498.152 899.318 503.061 907.83 509.54 915.08C529.24 936.94 556.54 938.62 561.69 938.94C576.69 939.86 589.39 936.16 600.47 932.94C607.198 930.845 613.817 928.412 620.3 925.65C644.54 915.72 664.71 907.43 682.12 888.81C681.78 889.42 681.45 890.02 681.12 890.6L681 890.81L680.11 892.33L679.97 892.57C679.67 893.08 679.37 893.57 679.07 894.06L678.99 894.19C677.67 896.35 676.4 898.28 675.22 899.97L675.12 900.12L674.36 901.2L674.26 901.34C674 901.7 673.76 902.04 673.51 902.34L673.45 902.43C672.67 903.5 671.95 904.43 671.32 905.24C671.282 905.298 671.239 905.351 671.19 905.4L670.75 905.96L670.58 906.17L670.22 906.62L670.07 906.8L669.74 907.21L669.64 907.33L669.27 907.76C662.41 915.953 654.348 923.061 645.36 928.84C632.86 936.95 619.05 942.61 603.58 948.96H603.51C602.24 949.48 600.99 949.96 599.75 950.46L599.03 950.74C597.79 951.23 596.57 951.74 595.36 952.14L594.9 952.32C592.24 953.32 589.66 954.22 587.14 955.06C574.934 959.127 562.49 962.447 549.88 965C548.58 965.26 547.29 965.5 546 965.74L545.78 965.77Z" fill="#18187C"/>
<path id="Vector_31" d="M692 865.62C691.69 865.62 695.24 850.47 695.29 827.72C695.29 812.44 695.29 804.19 692.86 799.5C679.17 772.72 560.41 807.94 546.7 812.08C551.53 808.41 558.46 803.39 567.07 797.87C597.56 778.32 618.82 764.27 645.38 765.47C649.72 765.67 684.72 767.69 695.55 789.47C698.43 795.26 698.32 802.82 697.98 817.69C697.39 845 692.4 865.68 692 865.62Z" fill="white"/>
<path id="Vector_32" d="M544.53 809.36C554.155 801.443 564.338 794.231 575 787.78C580.41 784.57 585.77 781.66 591.2 778.67C596.63 775.68 602.2 772.83 607.92 770.28C613.699 767.63 619.729 765.566 625.92 764.12C632.195 762.694 638.63 762.096 645.06 762.34C648.24 762.464 651.412 762.761 654.56 763.23C657.705 763.667 660.826 764.265 663.91 765.02C670.192 766.455 676.248 768.743 681.91 771.82C687.8 774.965 692.809 779.533 696.48 785.11C697.403 786.56 698.203 788.086 698.87 789.67C699.5 791.285 699.962 792.96 700.25 794.67C700.748 797.862 700.995 801.089 700.99 804.32C701.06 810.59 700.87 816.7 700.76 822.88C700.65 829.06 700.41 835.27 699.76 841.52C699.134 847.78 698.024 853.982 696.44 860.07C694.826 866.145 692.781 872.096 690.32 877.88C685.422 889.466 678.815 900.252 670.72 909.88C662.516 919.449 652.731 927.54 641.79 933.8C630.96 940.11 619.47 944.86 608.08 949.52C596.656 954.322 584.939 958.397 573 961.72C567 963.367 560.977 964.827 554.93 966.1C551.93 966.74 548.87 967.29 545.82 967.84C542.77 968.39 539.73 968.9 536.68 969.38C524.46 971.31 512.16 972.59 499.83 973.38C493.66 973.76 487.49 974.03 481.31 974.14C478.22 974.2 475.13 974.21 472.03 974.19L462.78 974.01C437.938 973.271 413.41 968.257 390.27 959.19C389.888 959.043 389.58 958.75 389.414 958.376C389.248 958.002 389.238 957.577 389.385 957.195C389.532 956.813 389.825 956.505 390.199 956.339C390.573 956.173 390.998 956.163 391.38 956.31C414.223 965.085 438.406 969.865 462.87 970.44L472.06 970.55C475.107 970.55 478.163 970.513 481.23 970.44C487.35 970.287 493.463 969.993 499.57 969.56C511.78 968.69 523.96 967.34 536.04 965.36C539.04 964.86 542.04 964.36 545.04 963.77C548.04 963.18 551.04 962.64 554.04 961.99C560.04 960.703 565.96 959.227 571.8 957.56C583.553 954.216 595.083 950.131 606.32 945.33C617.65 940.61 628.92 935.84 639.32 929.68C649.743 923.626 659.052 915.83 666.84 906.63C674.531 897.34 680.791 886.951 685.41 875.81C687.732 870.258 689.653 864.546 691.16 858.72C692.619 852.89 693.622 846.956 694.16 840.97C694.74 834.97 694.91 828.89 695.01 822.77C695.11 816.65 695.22 810.45 695.12 804.43C695.1 801.509 694.859 798.594 694.4 795.71C694.176 794.386 693.814 793.089 693.32 791.84C693.067 791.226 692.776 790.628 692.45 790.05C692.151 789.435 691.817 788.837 691.45 788.26C688.295 783.556 684.015 779.713 679 777.08C673.802 774.313 668.251 772.268 662.5 771C656.708 769.633 650.797 768.832 644.85 768.61C638.972 768.427 633.095 769.015 627.37 770.36C621.591 771.748 615.966 773.715 610.58 776.23C605.1 778.7 599.74 781.55 594.39 784.5C589.04 787.45 583.63 790.5 578.48 793.57C568.132 799.935 558.253 807.033 548.92 814.81C548.2 815.378 547.287 815.64 546.376 815.542C545.464 815.443 544.628 814.991 544.047 814.283C543.465 813.574 543.185 812.666 543.266 811.753C543.347 810.84 543.783 809.995 544.48 809.4L544.53 809.36Z" fill="#6360A7"/>
<path id="Vector_33" d="M473.68 923.14C475.26 921.7 476.68 920.31 476.68 920.31C481.81 914.87 487.99 904.99 500.43 874.58C516.64 834.91 524.72 814.7 523.02 796.18C522.25 787.77 520.26 768.86 505.97 753.31C486.21 731.82 456.1 733.89 446.13 734.49C427.81 735.61 414.2 742.12 386.99 755.15C365.32 765.52 354.57 770.89 344.5 779.22C342.19 781.13 289.4 826.06 301.74 874.96C306.47 893.71 318.84 905.36 332.28 918.02C351.085 935.552 373.81 948.331 398.56 955.29C420.55 950.05 455.29 939.86 473.68 923.14Z" fill="#E1E1EA"/>
<path id="Vector_34" opacity="0.1" d="M332.25 918C318.81 905.34 306.44 893.69 301.71 874.94C294.71 847.29 308.58 820.94 322.35 802.87L322.98 802.27C322.87 803.66 322.78 805.53 322.79 807.73C323.07 846.53 357.22 898.73 409.72 904.84C446.57 909.11 479.49 889.13 495.98 868.84C506.08 856.43 512.49 840.84 513.58 841.4C510.08 850.8 505.67 861.64 500.4 874.55C497.5 881.63 494.95 887.55 492.66 892.65C485.14 909.31 480.59 916.11 476.66 920.28L476.24 920.69C475.72 921.21 474.76 922.14 473.7 923.1C455.31 939.82 420.57 950.01 398.55 955.25C373.795 948.299 351.063 935.527 332.25 918Z" fill="#18187C"/>
<path id="Vector_35" d="M358.31 774.38C368.36 764.87 401.61 735.61 446.1 734.49C458.86 734.17 487.49 733.25 505.94 753.31C509.123 756.795 511.885 760.641 514.17 764.77C494.183 758.793 473.451 755.669 452.59 755.49C411.71 755.11 378.56 765.91 358.31 774.38Z" fill="white"/>
<path id="Vector_36" d="M424.78 948.59C442.55 944.78 462.01 936.75 476.68 920.28C483.6 912.51 489.94 900.15 500.4 874.58C516.61 834.91 524.69 814.7 522.99 796.18C522.22 787.77 520.23 768.86 505.94 753.31C486.18 731.82 456.07 733.89 446.1 734.49C427.22 735.64 413.66 742.22 386.96 755.15C372.297 762.257 358.104 770.296 344.47 779.22" stroke="#6360A7" stroke-width="6.85" stroke-linecap="round" stroke-linejoin="round"/>
<path id="Vector_37" d="M487.78 714.92C493.21 697.62 495.51 687.66 497.01 687.92C498.51 688.18 498.1 697.1 497.96 701.35C497.673 709.855 496.557 718.311 494.63 726.6C504.94 708.67 510.07 701.38 512.63 699.03C512.919 698.72 513.256 698.46 513.63 698.26C513.749 698.172 513.887 698.114 514.034 698.091C514.18 698.068 514.33 698.082 514.47 698.13C516.89 698.91 515.65 711.357 510.75 735.47C517.182 728.103 524.792 721.855 533.27 716.98C538 714.34 539.74 714.06 540.34 714.75C540.7 715.17 541.51 716.93 533.66 728.05C526.375 738.288 518.047 747.742 508.81 756.26C506.274 753.27 503.473 750.515 500.44 748.03C499.08 746.91 497.74 745.92 496.44 745.03C491.377 741.863 485.821 739.564 480 738.23C481.86 732.89 484.66 724.84 487.78 714.92Z" fill="#A5A0D8"/>
<path id="Vector_38" d="M487.78 714.92C493.21 697.62 495.51 687.66 497.01 687.92C498.51 688.18 498.1 697.1 497.96 701.35C497.673 709.855 496.557 718.311 494.63 726.6C504.94 708.67 510.07 701.38 512.63 699.03C512.919 698.72 513.256 698.46 513.63 698.26C513.749 698.172 513.887 698.114 514.034 698.091C514.18 698.068 514.33 698.082 514.47 698.13C516.89 698.91 515.65 711.357 510.75 735.47C517.182 728.103 524.792 721.855 533.27 716.98C538 714.34 539.74 714.06 540.34 714.75C540.7 715.17 541.51 716.93 533.66 728.05C526.375 738.288 518.047 747.742 508.81 756.26C506.274 753.27 503.473 750.515 500.44 748.03C499.08 746.91 497.74 745.92 496.44 745.03C491.377 741.863 485.821 739.564 480 738.23C481.86 732.89 484.66 724.84 487.78 714.92Z" stroke="#6360A7" stroke-width="5" stroke-linecap="round" stroke-linejoin="round"/>
<path id="Vector_39" d="M686.29 745C692.08 734.32 694.29 730.92 695.17 731.24C696.46 731.68 694.56 741.24 692.22 749.56C690.501 755.667 688.369 761.651 685.84 767.47C689.52 763.12 693.97 758.23 699.26 753.11C702.71 749.77 715.14 738.11 717.47 739.97C720.47 742.37 705.28 765.49 707.07 766.64C707.78 767.11 710.35 763.49 716.52 758.9C718.03 757.77 726.24 751.65 727.69 753.02C729.14 754.39 723.14 762.96 719.48 768.14C713.077 777.168 706.06 785.745 698.48 793.81C697.201 790.769 695.519 787.913 693.48 785.32C686.4 776.22 676.84 772.89 672.48 771.68C675.68 765.22 680.33 756 686.29 745Z" fill="#A5A0D8"/>
<path id="Vector_40" d="M686.29 745C692.08 734.32 694.29 730.92 695.17 731.24C696.46 731.68 694.56 741.24 692.22 749.56C690.501 755.667 688.369 761.651 685.84 767.47C689.52 763.12 693.97 758.23 699.26 753.11C702.71 749.77 715.14 738.11 717.47 739.97C720.47 742.37 705.28 765.49 707.07 766.64C707.78 767.11 710.35 763.49 716.52 758.9C718.03 757.77 726.24 751.65 727.69 753.02C729.14 754.39 723.14 762.96 719.48 768.14C713.077 777.168 706.06 785.745 698.48 793.81C697.201 790.769 695.519 787.913 693.48 785.32C686.4 776.22 676.84 772.89 672.48 771.68C675.68 765.22 680.33 756 686.29 745Z" stroke="#6360A7" stroke-width="4.23" stroke-linecap="round" stroke-linejoin="round"/>
</g>
<g id="LeftArm">
<path id="Vector_41" d="M733.17 384.1C766.74 385.72 792.72 417.57 795.02 448.1C796.94 473.57 781.95 492.43 776.16 499.71C749.43 533.36 707 537.4 689.08 539.1C654.31 542.41 642.01 533.34 624.56 525.76C620.37 519.94 601.39 492.26 606.88 454.56C613.35 410.14 648.54 387.96 653.46 384.97C663.89 387.26 659.89 391.08 672.78 397.57C677.05 399.72 681 401.97 684.64 404.24C688.93 400 707.38 382.86 733.17 384.1Z" fill="#E1E1EA"/>
<path id="Vector_42" opacity="0.1" d="M795 448.11C794.094 437.715 790.879 427.654 785.59 418.66C788.55 425.429 790.378 432.638 791 440C792.92 465.47 777.93 484.33 772.14 491.61C745.38 525.26 702.94 529.3 685 531C650.23 534.31 637.93 525.24 620.48 517.67C618.351 514.697 616.397 511.602 614.63 508.4C617.331 514.508 620.648 520.325 624.53 525.76C641.98 533.34 654.28 542.41 689.05 539.1C706.96 537.4 749.4 533.36 776.13 499.72C782 492.44 796.94 473.58 795 448.11Z" fill="#18187C"/>
<path id="Vector_43" opacity="0.5" d="M795 448.11C792.7 417.57 766.72 385.72 733.15 384.11C707.36 382.87 688.91 400.03 684.62 404.25C691.19 400.51 704.37 394.25 720.78 395.6C753.34 398.19 780.33 429.06 782.63 459.6C784.55 485.07 769.56 503.93 763.77 511.22C762.69 512.58 761.58 513.87 760.45 515.13C766.29 510.657 771.559 505.485 776.14 499.73C782 492.44 796.94 473.58 795 448.11Z" fill="white"/>
<path id="Vector_44" d="M653.46 385C655.46 385.68 657.46 386.46 659.6 387.37C668.891 391.437 677.363 397.164 684.6 404.27C688.89 400.05 707.34 382.89 733.13 384.13C766.7 385.75 792.68 417.6 794.98 448.13C796.9 473.6 781.91 492.46 776.12 499.74C749.43 533.36 707 537.4 689.08 539.1C654.31 542.41 642.01 533.34 624.56 525.76" stroke="#6360A7" stroke-width="7.35" stroke-linecap="round" stroke-linejoin="round"/>
<path id="Vector_45" d="M689 400.63C682.15 407.864 677.136 416.636 674.38 426.21C665.92 456.3 684.54 481.9 687.29 485.56" stroke="#6360A7" stroke-width="7.35" stroke-linecap="round" stroke-linejoin="round"/>
</g>
<g id="Head">
<path id="Vector_46" d="M378.19 318.72C374.99 261.24 413.56 220.63 419.9 214.16C467.13 165.95 530.9 169.55 547.48 170.48C568.84 171.69 604.32 173.94 633.57 201.48C655.57 222.22 661.68 246.55 666.28 264.92C666.28 264.92 678.7 314.46 657.16 368.7C652.3 380.94 647.91 389.38 641.57 395.61C631.266 405.814 619.383 414.29 606.38 420.71C530.52 458 416.2 423 386.28 356.23C379.39 340.85 378.62 326.52 378.19 318.72Z" fill="#E1E1EA"/>
<path id="Vector_47" d="M378.19 318.72C378.39 305.51 380.73 255.06 419.9 214.16C469.55 162.32 538.07 167.87 556.9 170.32C573.78 172.53 613.11 177.86 641.16 210.02C657.67 228.97 662.32 248.35 666.3 264.94C669.5 278.26 685.3 344.16 644.78 388.87C637.329 397.073 628.591 404.007 618.91 409.4" stroke="#6360A7" stroke-width="7.13" stroke-linecap="round" stroke-linejoin="round"/>
<path id="Vector_48" d="M526.26 236.54C525.44 235.854 524.455 235.394 523.402 235.207C522.35 235.019 521.267 235.11 520.26 235.47L520.09 235.53C512.38 238.48 508.56 247.22 509.97 251.34C510.11 251.72 510.29 252.08 510.3 252.1C512.09 255.58 517.08 256.38 519.07 256.75C531.32 259 534.02 264.09 537.81 261.98C540.22 260.64 541.81 257.08 542.1 252.98C542.173 251.981 542.005 250.979 541.61 250.058C541.215 249.138 540.605 248.325 539.83 247.69L526.26 236.54Z" fill="#1A325A"/>
<path id="Vector_49" d="M643.14 241.67C642.338 241.12 641.484 240.651 640.59 240.27C639.464 239.779 638.223 239.612 637.007 239.789C635.792 239.966 634.65 240.479 633.71 241.27L622.78 250.5C621.659 251.456 620.889 252.758 620.59 254.2C619.77 258.04 620.13 261.56 622.15 263.13C624.56 265.02 627.05 262.32 638.62 261.48C644.84 261.03 646.29 261.65 647.8 260.24C651.54 256.76 649.76 246.32 643.14 241.67Z" fill="#1A325A"/>
<path id="Vector_50" d="M609.15 273.8C602.33 290.14 596.08 313.68 600.85 340.14C603.18 352.98 605.75 366.06 617.67 374.95C627.67 382.41 643.79 386.62 656.23 380.49C670.74 373.33 673.05 355.62 675.54 336.65C677.35 322.78 682.01 287.2 659.94 269.26C657.22 267.05 649.71 261.11 638.74 260.59C622.34 259.81 611 271.74 609.15 273.8Z" fill="#6360A7"/>
<path id="Vector_51" d="M615.5 269.48C608.68 285.83 602.42 309.37 607.2 335.82C609.52 348.67 612.09 361.74 624.01 370.64C634.01 378.1 650.14 382.3 662.57 376.17C677.08 369.02 679.4 351.3 681.88 332.33C683.69 318.46 688.35 282.89 666.28 264.94C663.57 262.73 656.05 256.79 645.08 256.28C628.68 255.5 617.38 267.43 615.5 269.48Z" fill="#B4B3E5"/>
<path id="Vector_52" d="M680.4 338.61C682.21 324.74 686.87 289.17 664.8 271.22C662.08 269.01 654.57 263.07 643.6 262.55C627.2 261.78 615.9 273.71 614.01 275.76C611.642 281.431 609.657 287.254 608.07 293.19C609.803 285.073 612.29 277.135 615.5 269.48C617.38 267.43 628.68 255.48 645.08 256.28C656.08 256.79 663.57 262.73 666.28 264.94C688.35 282.89 683.69 318.46 681.88 332.33C680.88 340.33 679.81 348.06 677.88 354.91C678.93 349.75 679.66 344.24 680.4 338.61Z" fill="#DADAF7"/>
<path id="Vector_53" opacity="0.6" d="M651.933 307.445C669.444 306.941 683.42 298.901 683.149 289.489C682.877 280.076 668.462 272.855 650.951 273.359C633.44 273.864 619.464 281.903 619.735 291.316C620.006 300.728 634.421 307.95 651.933 307.445Z" fill="#EF7DAC"/>
<path id="Vector_54" d="M624 370.64C627.828 373.111 632.004 374.995 636.39 376.23C640.69 377.499 645.17 378.049 649.65 377.86C651.846 377.756 654.024 377.421 656.15 376.86C658.242 376.317 660.258 375.514 662.15 374.47C665.882 372.377 669.005 369.347 671.21 365.68C673.376 361.879 674.989 357.787 676 353.53C677.044 349.158 677.845 344.731 678.4 340.27C678.98 335.78 679.6 331.21 680.1 326.72C680.6 322.23 680.94 317.72 681.02 313.24C681.24 304.29 680.52 295.29 677.91 286.89C677.276 284.795 676.504 282.744 675.6 280.75C675.18 279.75 674.6 278.75 674.15 277.81C673.7 276.87 673.15 275.91 672.47 275.02C671.278 273.201 669.94 271.483 668.47 269.88C666.989 268.28 665.391 266.793 663.69 265.43C660.298 262.676 656.436 260.558 652.29 259.18C648.101 257.816 643.674 257.339 639.29 257.78C630.48 258.69 622.11 263.22 615.47 269.48C621.413 262.146 629.739 257.128 639 255.3C643.745 254.532 648.598 254.76 653.25 255.97C657.896 257.248 662.261 259.385 666.12 262.27C668.057 263.688 669.885 265.249 671.59 266.94C673.268 268.678 674.8 270.551 676.17 272.54C676.89 273.54 677.46 274.54 678.11 275.54C678.76 276.54 679.29 277.64 679.79 278.73C680.831 280.884 681.733 283.101 682.49 285.37C683.951 289.888 684.956 294.542 685.49 299.26C686.024 303.927 686.235 308.625 686.12 313.32C686 317.99 685.61 322.64 685.06 327.24C684.51 331.84 683.89 336.36 683.17 340.94C682.477 345.557 681.522 350.131 680.31 354.64C679.117 359.292 677.197 363.727 674.62 367.78C671.918 371.904 668.161 375.229 663.74 377.41C661.551 378.45 659.239 379.21 656.86 379.67C654.521 380.146 652.136 380.361 649.75 380.31C645.045 380.183 640.395 379.256 636 377.57C633.832 376.735 631.732 375.732 629.72 374.57C627.716 373.407 625.804 372.094 624 370.64Z" fill="#6360A7"/>
<path id="Vector_55" d="M546.3 283.75C534.94 267.75 518.09 261.01 513.1 259.08C505.54 256.16 486.94 248.97 467.39 255.8C442.57 264.46 430.24 291 428.73 312C426.26 346.15 452.26 368.32 459.45 373.89C465.82 378.82 479.24 389.2 498.86 389.22C502.94 389.22 520.78 388.83 535.37 376.1C540.714 371.403 545.016 365.639 548 359.18C549 357.25 569.29 316.13 546.3 283.75Z" fill="#6360A7"/>
<path id="Vector_56" d="M552.32 278.3C540.96 262.3 524.11 255.56 519.13 253.64C511.56 250.71 492.96 243.53 473.41 250.35C448.59 259.01 436.26 285.53 434.75 306.52C432.28 340.67 458.28 362.84 465.48 368.41C471.85 373.34 485.26 383.72 504.88 383.75C508.96 383.75 526.8 383.35 541.39 370.62C546.745 365.936 551.061 360.182 554.06 353.73C555 351.81 575.31 310.69 552.32 278.3Z" fill="#B4B3E5"/>
<path id="Vector_57" d="M544.54 291C532.68 274.9 516.34 268.26 511.35 266.33C503.79 263.41 485.19 256.22 465.63 263.05C456.089 266.479 447.751 272.608 441.63 280.69C447.86 267.47 458.32 255.58 473.43 250.31C492.98 243.49 511.58 250.67 519.15 253.6C525.41 256.02 541.32 262.46 552.34 278.26C571.34 305.54 561.23 339.87 558.95 339.94C557 340 561.61 314.19 544.54 291Z" fill="#DADAF7"/>
<path id="Vector_58" d="M473.41 250.35C467.103 252.866 461.356 256.604 456.5 261.35C451.706 266.058 447.708 271.512 444.66 277.5C441.574 283.443 439.333 289.788 438 296.35L437.51 298.79L437.16 301.26C436.87 302.9 436.8 304.56 436.63 306.21C435.995 316.13 437.794 326.054 441.87 335.12C444.566 341.162 448.053 346.818 452.24 351.94C456.404 357.11 461.126 361.805 466.32 365.94C471.427 370.146 477.053 373.678 483.06 376.45C486.031 377.785 489.108 378.868 492.26 379.69C495.419 380.473 498.642 380.975 501.89 381.19C508.422 381.555 514.968 380.79 521.24 378.93C524.374 378.021 527.417 376.822 530.33 375.35C531.8 374.65 533.17 373.78 534.58 372.96C535.99 372.14 537.29 371.16 538.53 370.11C541.1 368.104 543.446 365.828 545.53 363.32C547.646 360.827 549.506 358.126 551.08 355.26C554.219 349.361 556.707 343.138 558.5 336.7C560.385 330.26 561.536 323.628 561.93 316.93C562.137 313.579 562.113 310.218 561.86 306.87C561.573 303.504 561.048 300.162 560.29 296.87C558.686 290.271 555.982 283.99 552.29 278.29C554.363 281.037 556.206 283.95 557.8 287C559.354 290.069 560.645 293.264 561.66 296.55C562.644 299.862 563.37 303.246 563.83 306.67C564.263 310.103 564.467 313.56 564.44 317.02C564.319 323.951 563.41 330.845 561.73 337.57C560.911 340.955 559.91 344.293 558.73 347.57C557.551 350.855 556.171 354.064 554.6 357.18C551.375 363.533 546.855 369.141 541.33 373.64C539.98 374.81 538.49 375.79 537.05 376.83C535.61 377.87 534.05 378.74 532.45 379.53C529.306 381.19 526.015 382.556 522.62 383.61C519.228 384.654 515.752 385.396 512.23 385.83C510.47 386.05 508.71 386.2 506.93 386.27C505.15 386.34 503.37 386.27 501.59 386.21C498.017 385.976 494.472 385.417 491 384.54C487.574 383.669 484.229 382.508 481 381.07C474.632 378.086 468.671 374.302 463.26 369.81C457.784 365.434 452.831 360.441 448.5 354.93C444.146 349.413 440.547 343.339 437.8 336.87C435.043 330.378 433.377 323.475 432.87 316.44C432.633 312.936 432.677 309.418 433 305.92C433.22 304.18 433.35 302.43 433.7 300.72L434.17 298.15L434.79 295.61C436.44 288.85 439.036 282.356 442.5 276.32C445.953 270.302 450.375 264.896 455.59 260.32C458.203 258.077 461.026 256.091 464.02 254.39C465.51 253.55 467.1 252.88 468.63 252.12C470.16 251.36 471.81 250.94 473.41 250.35Z" fill="#6360A7"/>
<path id="Vector_59" d="M588.999 351.547C613.877 351.156 633.71 329.589 633.298 303.375C632.886 277.161 612.385 256.228 587.508 256.618C562.631 257.009 542.797 278.576 543.209 304.79C543.621 331.004 564.122 351.938 588.999 351.547Z" fill="#D8DFE2"/>
<path id="Vector_60" d="M632.961 309.659C636.212 283.633 618.838 260.036 594.155 256.952C569.472 253.869 546.827 272.468 543.576 298.494C540.325 324.519 557.699 348.117 582.382 351.2C607.065 354.283 629.71 335.685 632.961 309.659Z" stroke="#6360A7" stroke-width="5.09" stroke-linecap="round" stroke-linejoin="round"/>
<path id="Vector_61" d="M543.34 300.86C544.258 288.106 550.143 276.221 559.73 267.76C553.481 275.523 549.739 285.002 549 294.94C547 321.09 565.48 343.73 590.29 345.5C596.114 345.897 601.959 345.129 607.483 343.24C613.007 341.351 618.098 338.38 622.46 334.5C613.39 345.75 599.56 352.5 584.6 351.44C559.81 349.65 541.33 327 543.34 300.86Z" fill="#6360A7"/>
<path id="Vector_62" opacity="0.6" d="M518.598 292.037C520.398 282.778 507.934 272.565 490.759 269.226C473.584 265.888 458.202 270.688 456.402 279.948C454.602 289.207 467.066 299.42 484.241 302.759C501.416 306.097 516.798 301.297 518.598 292.037Z" fill="#EF7DAC"/>
<path id="Vector_63" d="M378.14 317.54C377.96 320.3 377.89 323.3 378 326.54C378.175 331.539 378.778 336.514 379.8 341.41" stroke="#6360A7" stroke-width="7.13" stroke-linecap="round" stroke-linejoin="round"/>
<path id="Vector_64" d="M629.59 406.76L624.13 402.31C614.482 408.217 604.045 412.725 593.13 415.7C554.93 426.12 521.73 414.62 508.66 409.25C519.208 419.145 532.121 426.166 546.16 429.64C589.93 440.17 625.8 410.06 629.59 406.76Z" fill="#6360A7"/>
<path id="Vector_65" d="M595.43 292.73C591.26 292.25 587.43 293.41 583.09 294.68C579.87 295.68 573.99 297.39 574.85 298.74C576.04 299.07 577.28 299.39 578.58 299.69C581.03 299.94 585.38 300.26 593.32 300.69C602.8 301.26 604.86 301.3 606.05 300.86C607.93 300.19 606.3 298.86 603.92 296.94C601.1 294.7 599.21 293.16 595.43 292.73Z" fill="#9B3B62"/>
<path id="Vector_66" opacity="0.8" d="M593.32 300.73C597.71 301 600.49 301.14 602.32 301.18H602.76C602.16 300.55 599.81 298.36 592.64 296.73C590.064 296.157 587.456 295.74 584.83 295.48C584.83 295.48 584.29 295.43 581.26 295.22C578.06 296.22 574.1 297.62 574.82 298.74C576.01 299.07 577.25 299.39 578.55 299.69C581 299.94 585.38 300.26 593.32 300.73Z" fill="#E26A9B"/>
<path id="Vector_67" d="M606.59 301.24C606.437 301.453 606.238 301.628 606.008 301.753C605.778 301.878 605.522 301.949 605.26 301.96C604.891 301.991 604.519 301.991 604.15 301.96C603.47 301.87 602.83 301.74 602.15 301.62C600.88 301.36 599.62 301.18 598.35 301.04C595.801 300.835 593.239 300.835 590.69 301.04C588.09 301.15 585.49 301.27 582.89 301.32C581.59 301.32 580.29 301.37 578.98 301.32H576.98L575.98 301.27H575.43C575.336 301.261 575.242 301.244 575.15 301.22L574.8 301.14L574.46 301.03C574.115 300.87 573.818 300.622 573.6 300.31C573.379 299.988 573.25 299.61 573.23 299.22L574.23 300.9C573.754 300.635 573.357 300.249 573.08 299.78C572.843 299.368 572.731 298.895 572.76 298.42C572.772 298.199 572.812 297.981 572.88 297.77C572.94 297.604 573.013 297.443 573.1 297.29C573.315 296.907 573.6 296.568 573.94 296.29C574.161 296.106 574.395 295.939 574.64 295.79C575.408 295.332 576.218 294.95 577.06 294.65C578.561 294.093 580.09 293.612 581.64 293.21C584.707 292.294 587.86 291.697 591.05 291.43C592.707 291.325 594.371 291.436 596 291.76C596.825 291.926 597.634 292.16 598.42 292.46C599.181 292.764 599.92 293.121 600.63 293.53C602.073 294.326 603.364 295.372 604.44 296.62C604.992 297.185 605.513 297.779 606 298.4C606.26 298.753 606.478 299.136 606.65 299.54C606.754 299.778 606.818 300.031 606.84 300.29C606.863 300.626 606.776 300.959 606.59 301.24ZM605.52 300.57C605.552 300.387 605.516 300.199 605.42 300.04C605.278 299.732 605.104 299.441 604.9 299.17C604.47 298.6 603.95 298.04 603.43 297.47C602.408 296.427 601.201 295.582 599.87 294.98C599.202 294.685 598.513 294.437 597.81 294.24C597.12 294.052 596.413 293.935 595.7 293.89C594.258 293.795 592.809 293.886 591.39 294.16C588.459 294.842 585.573 295.707 582.75 296.75C581.31 297.26 579.86 297.75 578.52 298.26C577.912 298.507 577.317 298.787 576.74 299.1C576.653 299.15 576.569 299.207 576.49 299.27C576.42 299.27 576.49 299.33 576.56 299.14C576.595 299.069 576.625 298.995 576.65 298.92C576.687 298.803 576.71 298.682 576.72 298.56C576.737 298.277 576.671 297.996 576.53 297.75C576.27 297.37 576.25 297.43 576.23 297.41L577.23 299.08C577.242 298.727 577.148 298.379 576.96 298.08C576.783 297.793 576.525 297.564 576.22 297.42C576.187 297.391 576.15 297.367 576.11 297.35H576H576.42L577.34 297.43L579.25 297.58C580.53 297.68 581.82 297.77 583.11 297.89L590.85 298.57L594.75 298.9C596.08 299.02 597.39 299.22 598.69 299.45C599.99 299.68 601.27 300 602.54 300.27C603.17 300.4 603.8 300.55 604.4 300.64C604.675 300.678 604.952 300.699 605.23 300.7C605.334 300.676 605.433 300.631 605.52 300.57Z" fill="#6360A7"/>
<path id="Vector_68" opacity="0.93" d="M517.31 245.49C520.784 245.49 523.6 243.905 523.6 241.95C523.6 239.995 520.784 238.41 517.31 238.41C513.836 238.41 511.02 239.995 511.02 241.95C511.02 243.905 513.836 245.49 517.31 245.49Z" fill="white"/>
<path id="Vector_69" opacity="0.93" d="M627.3 251.77C630.774 251.77 633.59 250.185 633.59 248.23C633.59 246.275 630.774 244.69 627.3 244.69C623.826 244.69 621.01 246.275 621.01 248.23C621.01 250.185 623.826 251.77 627.3 251.77Z" fill="white"/>
</g>
<g id="HandMagnifyingGlass">
<path id="Vector_70" d="M723.3 427.43C729.2 439.49 732.7 446.64 740.56 449.2C751.33 452.7 764.77 445.78 770.11 435.36C770.77 434.09 776.03 423.47 770.87 415.69C766.95 409.77 759.4 409.16 749.87 408.38C745.58 408.03 723.47 406.22 719.99 415.24C718.82 418.16 720.3 421.29 723.3 427.43Z" fill="#A5A0D8"/>
<path id="Vector_71" d="M723.3 427.43C729.2 439.49 732.7 446.64 740.56 449.2C751.33 452.7 764.77 445.78 770.11 435.36C770.77 434.09 776.03 423.47 770.87 415.69C766.95 409.77 759.4 409.16 749.87 408.38C745.58 408.03 723.47 406.22 719.99 415.24C718.82 418.16 720.3 421.29 723.3 427.43Z" stroke="#6360A7" stroke-width="5" stroke-linecap="round" stroke-linejoin="round"/>
<path id="Vector_72" d="M699.73 378.579L714.469 366.588L772.642 438.094C774.073 439.853 774.747 442.108 774.515 444.364C774.283 446.62 773.164 448.691 771.405 450.122L769.955 451.302C768.196 452.733 765.94 453.407 763.685 453.175C761.429 452.943 759.358 451.824 757.927 450.065L699.753 378.56L699.73 378.579Z" fill="#FCB631"/>
<path id="Vector_73" d="M754.87 400.29C758.74 400.66 761.33 403.5 765.08 407.61C769.08 411.96 772.86 416.13 772.25 421.18C771.67 425.97 767.4 429.06 762.49 432.62C759.4 434.867 756.015 436.677 752.43 438C745.22 441.37 739.25 441 737.94 438.61C736.43 435.85 741.2 430.51 741.45 430.23C735.8 434.93 729.27 434.23 727.27 431.3C725.85 429.22 726.5 425.72 728.38 422.68C731.6 418.355 735.151 414.286 739 410.51C746.19 403.5 750 399.84 754.87 400.29Z" fill="#A5A0D8"/>
<path id="Vector_74" d="M754.87 400.29C758.74 400.66 761.33 403.5 765.08 407.61C769.08 411.96 772.86 416.13 772.25 421.18C771.67 425.97 767.4 429.06 762.49 432.62C759.4 434.867 756.015 436.677 752.43 438C745.22 441.37 739.25 441 737.94 438.61C736.43 435.85 741.2 430.51 741.45 430.23C735.8 434.93 729.27 434.23 727.27 431.3C725.85 429.22 726.5 425.72 728.38 422.68C731.6 418.355 735.151 414.286 739 410.51C746.19 403.5 750 399.84 754.87 400.29Z" stroke="#6360A7" stroke-width="5" stroke-linecap="round" stroke-linejoin="round"/>
<path id="Vector_75" d="M736 402.43C733 399.66 724.83 402.48 720.45 407.61C720.12 408 714.68 414.52 717.25 419.2C717.757 420.014 718.423 420.717 719.208 421.267C719.993 421.817 720.882 422.202 721.82 422.4C728.42 423.72 737.21 414.93 737.28 406.86C737.25 405.6 737.26 403.64 736 402.43Z" fill="#A5A0D8"/>
<path id="Vector_76" d="M736 402.43C733 399.66 724.83 402.48 720.45 407.61C720.12 408 714.68 414.52 717.25 419.2C717.757 420.014 718.423 420.717 719.208 421.267C719.993 421.817 720.882 422.202 721.82 422.4C728.42 423.72 737.21 414.93 737.28 406.86C737.25 405.6 737.26 403.64 736 402.43Z" stroke="#6360A7" stroke-width="5" stroke-linecap="round" stroke-linejoin="round"/>
<path id="Vector_77" d="M741.45 430.18L759.79 413.15" stroke="#6360A7" stroke-width="5" stroke-linecap="round" stroke-linejoin="round"/>
<path id="Vector_78" d="M657.81 382.5C710.664 382.5 753.51 339.654 753.51 286.8C753.51 233.946 710.664 191.1 657.81 191.1C604.956 191.1 562.11 233.946 562.11 286.8C562.11 339.654 604.956 382.5 657.81 382.5Z" fill="url(#paint0_linear_203_8)"/>
<path id="Vector_79" d="M656.66 185.29C636.314 185.29 616.425 191.323 599.508 202.627C582.592 213.93 569.406 229.996 561.62 248.793C553.834 267.59 551.797 288.274 555.767 308.229C559.736 328.184 569.533 346.514 583.92 360.9C598.307 375.287 616.636 385.084 636.591 389.053C656.546 393.023 677.23 390.986 696.027 383.2C714.824 375.414 730.89 362.228 742.193 345.312C753.497 328.395 759.53 308.506 759.53 288.16C759.53 260.877 748.692 234.712 729.4 215.42C710.108 196.128 683.943 185.29 656.66 185.29ZM656.66 373.39C639.8 373.392 623.319 368.394 609.299 359.029C595.28 349.663 584.353 336.351 577.9 320.775C571.448 305.199 569.759 288.059 573.047 271.523C576.336 254.987 584.455 239.798 596.376 227.876C608.298 215.955 623.487 207.836 640.023 204.547C656.559 201.259 673.699 202.948 689.275 209.4C704.851 215.853 718.163 226.78 727.529 240.799C736.894 254.819 741.892 271.3 741.89 288.16C741.89 310.764 732.91 332.443 716.927 348.427C700.943 364.41 679.264 373.39 656.66 373.39Z" fill="#FCB631"/>
<path id="Vector_80" opacity="0.79" d="M652.52 217.21C650.87 212.98 617.16 214.57 600.2 236.05C589.76 249.28 587.51 267.7 591.13 269.54C594.13 271.07 599.9 260.29 616.25 245.12C638.24 224.7 653.7 220.21 652.52 217.21Z" fill="white"/>
</g>
<g id="RightArm">
<path id="Vector_83" d="M494.22 456.66C498.8 452.47 511.13 442.36 529.29 440.98C535.414 440.527 541.572 441.094 547.51 442.66C549.911 444.121 551.742 446.358 552.7 449C553.435 451.097 553.58 453.356 553.12 455.53C554.54 458.604 555.19 461.977 555.016 465.359C554.842 468.74 553.848 472.028 552.12 474.94C552.653 476.938 552.725 479.031 552.33 481.06C551.52 484.96 548.97 487.73 544.33 491.39C538.791 495.726 532.775 499.417 526.4 502.39C525.347 502.799 524.193 502.875 523.095 502.607C521.997 502.338 521.009 501.739 520.263 500.889C519.518 500.04 519.051 498.982 518.927 497.859C518.803 496.736 519.028 495.602 519.57 494.61C517.75 495.52 515.776 496.083 513.75 496.27C505.63 497.02 499.75 491.27 498.56 490.16C497.093 478.98 495.647 467.813 494.22 456.66Z" fill="#A5A0D8"/>
<path id="Vector_84" d="M494.22 456.66C498.8 452.47 511.13 442.36 529.29 440.98C535.414 440.527 541.572 441.094 547.51 442.66C549.911 444.121 551.742 446.358 552.7 449C553.435 451.097 553.58 453.356 553.12 455.53C554.54 458.604 555.19 461.977 555.016 465.359C554.842 468.74 553.848 472.028 552.12 474.94C552.653 476.938 552.725 479.031 552.33 481.06C551.52 484.96 548.97 487.73 544.33 491.39C538.791 495.726 532.775 499.417 526.4 502.39C525.347 502.799 524.193 502.875 523.095 502.607C521.997 502.338 521.009 501.739 520.263 500.889C519.518 500.04 519.051 498.982 518.927 497.859C518.803 496.736 519.028 495.602 519.57 494.61C517.75 495.52 515.776 496.083 513.75 496.27C505.63 497.02 499.75 491.27 498.56 490.16C497.093 478.98 495.647 467.813 494.22 456.66Z" stroke="#6360A7" stroke-width="5" stroke-linecap="round" stroke-linejoin="round"/>
<path id="Vector_85" d="M519.5 494.58L532.52 481.3" stroke="#6360A7" stroke-width="5" stroke-linecap="round" stroke-linejoin="round"/>
<path id="Vector_86" d="M530.43 475.57C530.43 475.57 534.86 479.21 534.6 482.08" stroke="#6360A7" stroke-width="5" stroke-linecap="round" stroke-linejoin="round"/>
<path id="Vector_87" d="M542.16 462.8C542.16 462.8 551.85 468.8 552.07 474.94" stroke="#6360A7" stroke-width="5" stroke-linecap="round" stroke-linejoin="round"/>
<path id="Vector_88" d="M542.42 449.25C542.42 449.25 552.36 453.74 553.12 455.53" stroke="#6360A7" stroke-width="5" stroke-linecap="round" stroke-linejoin="round"/>
<path id="Vector_89" d="M411.11 423.82C416.16 423.96 423.39 424.32 432.04 425.32C446.89 427.04 454.31 427.89 462.94 431.8C473.68 436.65 480.54 443.4 484.86 447.74C487.37 450.25 495.77 458.67 499.81 467.67C508.3 486.56 499.81 512.95 486.86 527.47C460.15 557.37 403.47 549.18 368.75 530.96C359.49 526.1 313.69 502.16 307.15 453.86C301.15 409.78 330.25 362.86 379.8 341.38C380.67 343.12 381.52 344.87 382.37 346.63C394.271 371.435 403.89 397.272 411.11 423.82Z" fill="#E1E1EA"/>
<path id="Vector_90" d="M396.62 426.13C400.4 426.19 456.62 427.92 482.17 472.37C493.28 491.73 493.88 511.03 493.34 521.37C495.66 517.46 509.46 493.23 499.81 467.69C490.72 443.61 466.76 434.28 454.81 429.62C443.987 425.434 432.503 423.216 420.9 423.07L396.62 426.13Z" fill="white"/>
<path id="Vector_91" d="M411.11 423.82C416.16 423.96 423.39 424.32 432.04 425.32C446.89 427.04 454.31 427.89 462.94 431.8C473.68 436.65 480.54 443.4 484.86 447.74C487.37 450.25 495.77 458.67 499.81 467.67C508.3 486.56 499.81 512.95 486.86 527.47C460.15 557.37 403.47 549.18 368.75 530.96C359.49 526.1 313.69 502.16 307.15 453.86C301.15 409.78 330.25 362.86 379.8 341.38" stroke="#6360A7" stroke-width="7" stroke-linecap="round" stroke-linejoin="round"/>
</g>
</g>
<defs>
<linearGradient id="paint0_linear_203_8" x1="745.5" y1="379.57" x2="552.94" y2="175.85" gradientUnits="userSpaceOnUse">
<stop offset="0.01" stop-color="#685FC4" stop-opacity="0.7"/>
<stop offset="0.99" stop-color="#FAFAFD" stop-opacity="0"/>
</linearGradient>
</defs>
</svg>
