<?xml version="1.0" standalone="no"?>
<!DOCTYPE svg PUBLIC "-//W3C//DTD SVG 1.1//EN" "http://www.w3.org/Graphics/SVG/1.1/DTD/svg11.dtd" >
<svg xmlns="http://www.w3.org/2000/svg">
<metadata>Generated by IcoMoon</metadata>
<defs>
<font id="icomoon" horiz-adv-x="1024">
<font-face units-per-em="1024" ascent="960" descent="-64" />
<missing-glyph horiz-adv-x="1024" />
<glyph unicode="&#x20;" horiz-adv-x="512" d="" />
<glyph unicode="&#xe900;" glyph-name="Icon-kubernetes" d="M435.371 347.733l0.299-0.427-42.624-102.955c-40.515 26.217-71.399 64.293-88.038 109.277l-0.495 1.528 109.995 18.645 0.171-0.213c1.020 0.197 2.194 0.309 3.394 0.309 10.368 0 18.773-8.405 18.773-18.773 0-2.671-0.558-5.212-1.564-7.513l0.047 0.121zM399.829 438.571c8.027 2.25 13.816 9.503 13.816 18.107 0 5.635-2.482 10.689-6.413 14.13l-0.022 0.019 0.085 0.469-83.669 74.837c-20.381-32.68-32.465-72.361-32.465-114.864 0-8.461 0.479-16.81 1.411-25.021l-0.093 1.005 107.264 30.933 0.085 0.384zM448.683 523.051c3.061-2.255 6.906-3.609 11.067-3.609 10.092 0 18.324 7.963 18.756 17.949l0.001 0.039 0.427 0.213 6.4 111.787c-50.435-6.054-94.773-28.406-128.456-61.554l0.029 0.028 91.605-64.981 0.171 0.085zM481.109 405.717l30.848-14.891 30.805 14.805 7.68 33.28-21.333 26.581h-34.304l-21.333-26.581 7.637-33.237zM545.109 537.771c0.439-10.020 8.668-17.977 18.756-17.977 4.18 0 8.041 1.366 11.161 3.677l-0.051-0.036 0.341-0.128 91.051 64.555c-33.536 32.862-77.543 55.152-126.559 61.411l-1.099 0.115 6.315-111.573 0.085-0.043zM1009.152 283.051l-246.315-306.389c-12.616-15.513-31.702-25.344-53.085-25.344-0.057 0-0.115 0-0.172 0l-395.127-0.128c-0.015 0-0.034 0-0.052 0-21.421 0-40.538 9.866-53.054 25.302l-0.1 0.127-246.443 306.347c-9.212 11.446-14.785 26.159-14.785 42.174 0 5.318 0.615 10.493 1.777 15.457l-0.090-0.457 87.893 382.080c4.608 20.053 18.133 36.864 36.821 45.781l355.925 170.112c8.642 4.226 18.806 6.698 29.547 6.698s20.904-2.471 29.953-6.876l-0.406 0.179 356.053-170.027c18.688-8.917 32.213-25.771 36.821-45.781l87.979-382.080c4.608-20.053-0.213-41.088-13.141-57.173zM868.821 370.816c-1.792 0.427-4.395 1.109-6.187 1.451-7.424 1.408-13.44 1.067-20.437 1.621-14.933 1.579-27.221 2.859-38.187 6.315-4.48 1.707-7.68 7.040-9.216 9.216l-8.576 2.517c1.641 11.289 2.577 24.323 2.577 37.575 0 21.96-2.572 43.32-7.432 63.793l0.374-1.87c-8.178 35.041-21.973 65.902-40.553 93.251l0.617-0.963c2.219 2.005 6.4 5.675 7.552 6.784 0.341 3.84 0.043 7.808 4.011 12.032 8.405 7.893 18.944 14.421 31.701 22.272 6.059 3.584 11.648 5.845 17.707 10.325 1.365 1.024 3.243 2.645 4.693 3.797 10.24 8.149 12.587 22.187 5.248 31.403s-21.589 10.069-31.787 1.92c-1.451-1.152-3.413-2.645-4.736-3.755-5.717-4.949-9.259-9.813-14.080-14.933-10.496-10.667-19.2-19.541-28.715-25.984-4.139-2.389-10.197-1.579-12.928-1.408l-8.107-5.76c-45.266 47.438-106.889 78.922-175.785 85.377l-1.111 0.084-0.512 9.515c-2.773 2.645-6.101 4.907-6.955 10.667-0.939 11.435 0.64 23.765 2.432 38.613 0.981 6.955 2.603 12.715 2.901 20.267 0.043 1.707-0.043 4.224-0.043 6.059 0 13.056-9.557 23.68-21.333 23.68-11.733 0-21.291-10.624-21.291-23.68l0.043-0.597c0-1.749-0.085-3.925 0-5.461 0.256-7.552 1.877-13.312 2.859-20.267 1.792-14.848 3.328-27.179 2.389-38.656-1.278-4.397-3.685-8.129-6.889-10.988l-0.023-0.020-0.512-9.003c-70.44-5.818-132.543-37.463-177.62-85.323l-0.129-0.138c-3.683 2.53-6.184 4.325-8.66 6.152l0.98-0.69c-3.84-0.512-7.68-1.707-12.672 1.237-9.515 6.4-18.219 15.275-28.715 25.941-4.821 5.12-8.32 9.984-14.037 14.891-1.28 1.109-3.285 2.645-4.736 3.755-4.037 3.293-9.177 5.376-14.793 5.63l-0.055 0.002c-0.325 0.018-0.706 0.029-1.088 0.029-6.391 0-12.101-2.922-15.864-7.502l-0.028-0.036c-7.339-9.216-4.992-23.296 5.248-31.445l0.299-0.213 4.437-3.541c6.059-4.48 11.605-6.784 17.664-10.325 12.757-7.893 23.296-14.421 31.701-22.272 3.243-3.499 3.84-9.643 4.267-12.288l6.827-6.101c-29.025-42.985-46.332-95.96-46.332-152.977 0-13.857 1.022-27.476 2.996-40.785l-0.183 1.506-8.875-2.56c-2.347-3.072-5.675-7.851-9.173-9.259-10.965-3.456-23.296-4.693-38.187-6.272-6.997-0.597-13.013-0.256-20.48-1.664-1.579-0.299-3.84-0.853-5.675-1.28l-0.171-0.085-0.299-0.085c-12.587-3.029-20.651-14.592-18.048-25.941 2.603-11.392 14.891-18.304 27.52-15.573l0.299 0.043 0.427 0.128 5.504 1.237c7.253 1.963 12.544 4.821 19.115 7.339 14.080 5.035 25.771 9.259 37.12 10.923 4.779 0.384 9.813-2.944 12.288-4.309l9.259 1.579c21.645-65.533 65.11-118.903 121.618-152.729l1.262-0.7-3.84-9.301c1.408-3.584 2.944-8.491 1.877-12.032-4.139-10.752-11.221-22.059-19.285-34.688-3.883-5.803-7.893-10.325-11.435-17.024-0.853-1.579-1.92-4.053-2.731-5.717-5.461-11.733-1.451-25.216 9.088-30.293 10.581-5.12 23.723 0.299 29.44 12.032v0.085c0.853 1.664 1.963 3.84 2.645 5.419 2.987 6.912 4.011 12.843 6.144 19.541 5.632 14.165 8.747 29.013 16.512 38.272 2.133 2.56 5.547 3.499 9.173 4.48l4.821 8.747c29.367-11.655 63.392-18.413 98.995-18.413 35.099 0 68.665 6.568 99.534 18.542l-1.878-0.641 4.523-8.192c3.669-1.195 7.68-1.792 10.923-6.613 5.803-9.899 9.771-21.632 14.592-35.84 2.133-6.656 3.157-12.587 6.187-19.499 0.683-1.579 1.835-3.84 2.645-5.504 5.675-11.776 18.859-17.152 29.44-12.032 10.539 5.035 14.549 18.56 9.088 30.293-0.853 1.664-1.92 4.096-2.773 5.717-3.541 6.656-7.552 11.136-11.435 16.981-8.107 12.629-14.763 23.083-18.901 33.835-1.707 5.547 0.299 8.96 1.621 12.544-0.768 0.939-2.517 6.144-3.541 8.619 57.958 34.778 101.473 88.561 122.327 152.578l0.553 1.961c2.731-0.427 7.509-1.28 9.088-1.621 3.2 2.133 6.144 4.864 11.947 4.437 11.349-1.664 23.040-5.888 37.12-10.923 6.571-2.56 11.819-5.461 19.115-7.381 1.536-0.427 3.755-0.811 5.547-1.195l0.384-0.128 0.299-0.043c12.672-2.731 24.917 4.181 27.52 15.573 2.56 11.349-5.461 22.912-18.048 25.941zM699.733 546.091l-83.2-74.496v-0.213c-3.974-3.461-6.472-8.53-6.472-14.182 0-8.618 5.807-15.88 13.721-18.086l0.132-0.031 0.128-0.427 107.776-31.061c0.672 6.482 1.056 14.005 1.056 21.618 0 17.662-2.064 34.842-5.965 51.312l0.301-1.506c-5.912 25.405-15.384 47.818-28.022 68.050l0.545-0.935zM528.512 318.891c-3.197 5.943-9.372 9.914-16.475 9.914-0.268 0-0.535-0.006-0.8-0.017l0.038 0.001c-6.865-0.264-12.758-4.176-15.823-9.842l-0.049-0.099h-0.085l-54.101-97.792c21.212-7.48 45.673-11.802 71.143-11.802 25.33 0 49.662 4.274 72.313 12.141l-1.547-0.468-54.187 97.963h-0.427zM609.067 374.059c-1.022 0.198-2.198 0.311-3.401 0.311-2.952 0-5.745-0.681-8.23-1.896l0.111 0.049c-6.368-3.094-10.679-9.513-10.679-16.939 0-2.7 0.57-5.267 1.596-7.586l-0.047 0.12-0.128-0.171 43.093-104.021c40.777 26.315 71.795 64.695 88.303 110.045l0.486 1.528-110.933 18.773-0.171-0.213z" />
<glyph unicode="&#xe901;" glyph-name="Icon-Zoom-to-Fit" d="M387.75 380.25l-384-384 56.5-56.5 384 384zM96 392v-80h280v-280h80v360zM963.75 956.25l-384-384 56.5-56.5 384 384zM568 864v-360h360v80h-280v280z" />
<glyph unicode="&#xe902;" glyph-name="Icon-Entity" horiz-adv-x="970" d="M188.632 960l37.614-151.018 151.018-37.614-151.018-37.614-37.614-151.018-37.614 151.018-151.018 37.614 151.018 37.614 37.614 151.018zM565.895 744.421l80.6-323.611 323.611-80.6-323.611-80.6-80.6-323.611-80.601 323.611-323.609 80.6 323.609 80.6 80.601 323.611z" />
<glyph unicode="&#xe903;" glyph-name="icon-tutorial-header" horiz-adv-x="1344" d="M672 960l-640-341.333 232.727-124.018v-341.331l407.273-217.318 407.27 217.318v341.331l116.365 62.009v-393.1h116.365v455.108l-640 341.333zM1068.8 618.667l-396.8-211.627-396.8 211.627 396.8 211.626 396.8-211.626zM962.912 221.011l-290.912-155.302-290.909 155.302v211.629l290.909-155.309 290.912 155.309v-211.629z" />
<glyph unicode="&#xe90a;" glyph-name="Icon-Activity-Log-Small" d="M0 228.571h658.286v-146.286h-658.286v146.286zM0 521.143h1024v-146.286h-1024v146.286zM0 813.714h1024v-146.286h-1024v146.286z" />
<glyph unicode="&#xe90b;" glyph-name="Icon-Activity-Log" d="M0 234.667h597.333v-85.333h-597.333v85.333zM0 490.667h1024v-85.333h-1024v85.333zM0 746.667h1024v-85.333h-1024v85.333z" />
<glyph unicode="&#xe90c;" glyph-name="Icon-Actor-Light" d="M725.333 743l-60.333-60.333 234.667-234.667-234.667-234.667 60.333-60.333 295 295-264.833 264.833zM298.667 743l-295-295 295-295 60.333 60.333-234.667 234.667 234.667 234.667z" />
<glyph unicode="&#xe90d;" glyph-name="Icon-Actor" d="M725.333 743l-60.333-60.333 234.667-234.667-234.667-234.667 60.333-60.333 295 295-264.833 264.833zM298.667 743l-295-295 295-295 60.333 60.333-234.667 234.667 234.667 234.667z" />
<glyph unicode="&#xe90e;" glyph-name="Icon-Application" d="M746.667 554.667l-277.333-128v-362.667l277.333-128 277.333 128v362.667zM746.667 460.667l192-88.583v-253.5l-192-88.583-192 88.583v253.5zM529.667 412.167l-35.333-77.667 252.333-114.667 252.333 114.667-35.333 77.667-217-98.667zM277.333 554.667l-277.333-128v-362.667l277.333-128 277.333 128v362.667zM277.333 460.667l192-88.583v-253.5l-192-88.583-192 88.583v253.5zM60.333 412.167l-35.333-77.667 252.333-114.667 252.333 114.667-35.333 77.667-217-98.667zM512 960l-277.333-128v-362.667l277.333-128 277.333 128v362.667zM512 866l192-88.583v-253.5l-192-88.583-192 88.583v253.5zM295 817.5l-35.333-77.667 252.333-114.667 252.333 114.667-35.333 77.667-217-98.667z" />
<glyph unicode="&#xe90f;" glyph-name="Icon-Close" d="M243.5 776.833l-60.333-60.333 597.333-597.333 60.333 60.333zM780.5 776.833l-597.333-597.333 60.333-60.333 597.333 597.333z" />
<glyph unicode="&#xe910;" glyph-name="Icon-Copy-to-Clipboard" d="M288 736c-35.345-0.004-63.996-28.655-64-64v0-672c0.004-35.345 28.655-63.996 64-64h672c35.345 0.004 63.996 28.655 64 64v0 672c-0.004 35.345-28.655 63.996-64 64v0zM352 608h544v-544h-544zM0 960v-704h128v576h576v128z" />
<glyph unicode="&#xe911;" glyph-name="Icon-Disclosure" d="M352 858.5l-90.5-90.5 320-320-320-320 90.5-90.5 410.5 410.5-365.25 365.25z" />
<glyph unicode="&#xe912;" glyph-name="Icon-Dropdown" d="M224 666.5l-90.5-90.5 378.5-378.5 378.5 378.5-90.5 90.5-288-288-242.75 242.75z" />
<glyph unicode="&#xe913;" glyph-name="Icon-Dropup" d="M512 666.5l-378.5-378.5 90.5-90.5 288 288 288-288 90.5 90.5-45.25 45.25z" />
<glyph unicode="&#xe919;" glyph-name="Icon-Header-Settings" d="M464.833 960c-29.492 0.379-58.299-9.123-81.5-27.333s-39.241-44.233-44.417-73.333l-10.25-58.5c-16.673-7.792-32.779-16.528-48.25-26.333l-62.75 22c-27.584 9.817-57.57 10.139-85.333 0.833s-51.654-27.777-67-52.75v-0.083l-47.917-78.333c-15.24-24.889-20.86-54.727-15.333-83.417s21.634-54.207 44.667-72.083h0.083l48.833-37.833c-0.393-8.338-1.345-16.65-1.167-25 0-0.111-0.001-0.222 0-0.333 0.040-8.28 1.232-16.495 1.833-24.75l-47.833-37.083c-23.323-17.622-39.862-42.971-45.75-71.667s-0.618-58.728 14.417-83.833l0.083-0.166 48.083-78.5v-0.085c15.346-24.973 39.235-43.446 67-52.75v0.085c27.767-9.311 57.75-9.069 85.333 0.75l62.75 22c15.471-9.805 31.576-18.541 48.25-26.333l10.25-58.5v-0.085c5.176-29.098 21.219-55.039 44.417-73.249 23.203-18.214 52.011-27.712 81.5-27.333h94.75c29.489-0.38 58.214 9.117 81.417 27.333 23.203 18.211 39.324 44.156 44.5 73.25v0.085l10.25 58.583c16.638 7.781 32.727 16.465 48.167 26.25l62.75-22c27.583-9.818 57.65-10.061 85.417-0.75v-0.085c27.765 9.304 51.653 27.781 67 52.75v0.085l48 78.5 0.166 0.166c15.036 25.105 20.226 55.134 14.333 83.833-5.886 28.7-22.342 54.046-45.667 71.667l-47.833 37.083c0.609 8.368 1.803 16.689 1.833 25.083v0.331c-0.031 8.394-1.224 16.715-1.833 25.083l47.833 37.083c23.325 17.62 39.78 42.967 45.667 71.667 5.893 28.699 0.701 58.729-14.333 83.833l-0.166 0.167-48 78.5v0.083c-15.347 24.969-39.237 43.444-67 52.75s-57.833 8.984-85.417-0.833l-62.75-22c-15.439 9.785-31.529 18.469-48.167 26.25l-10.25 58.583c-5.176 29.095-21.295 55.121-44.5 73.333-23.201 18.214-51.924 27.713-81.417 27.333zM463.75 874.667h96.92c10.341 0.133 20.293-3.294 27.667-9.083 7.344-5.764 11.668-13.282 13.083-21.083l17.917-101.833 22.167-8.75c26.51-10.512 51.411-24.169 74.167-40.5l18.083-12.917 101.585 35.583c9.408 3.348 20.090 3.515 29.583 0.333s16.974-9.273 21.417-16.5l47.667-78c4.337-7.241 5.591-15.003 4-22.75-1.589-7.746-6.045-15.118-13.5-20.75l-0.252-0.167-86.083-66.667 3.5-24.667c1.878-12.965 2.868-26.011 2.917-39.083-0.064-12.961-1.055-25.895-2.917-38.75l-3.5-24.667 86.335-66.833c7.455-5.632 11.911-13.004 13.5-20.75 1.591-7.746 0.333-15.513-4-22.75l-47.667-78c-4.442-7.227-11.926-13.32-21.417-16.5-9.49-3.182-20.175-3.016-29.583 0.333h-0.085l-101.5 35.583-18.083-12.917c-22.756-16.331-47.658-29.99-74.167-40.5l-22.167-8.75-17.917-101.833c-1.415-7.799-5.737-15.317-13.083-21.083-7.376-5.787-17.326-9.216-27.67-9.083h-96.92c-10.344-0.132-20.29 3.293-27.667 9.083-7.36 5.778-11.761 13.274-13.167 21.083v0.085l-17.83 101.748-22.167 8.75c-26.507 10.51-51.49 24.168-74.25 40.5l-18 12.917-101.583-35.583c-9.407-3.348-20.178-3.515-29.667-0.333-9.491 3.18-16.895 9.277-21.333 16.5l-47.667 77.999c-4.333 7.236-5.674 15-4.083 22.75s6.129 15.118 13.583 20.75l0.167 0.166 86.167 66.667-3.583 24.667c-1.877 12.969-2.782 26.005-2.833 39.083v0.418l-0.083 0.418c-0.309 13.056 0.32 26.095 1.833 39.083l2.833 23.914-85.333 66.083c-7.336 5.693-11.676 13.095-13.167 20.833s-0.156 15.471 4.25 22.667l47.917 78.333c4.439 7.224 11.84 13.318 21.333 16.5s20.26 3.014 29.667-0.333h0.083l101.5-35.583 18 12.917c22.759 16.332 47.741 29.988 74.25 40.5l22.167 8.75 17.833 101.75v0.083c1.406 7.813 5.809 15.308 13.167 21.083 7.379 5.792 17.325 9.216 27.667 9.083zM512 640c-105.533 0-192-86.467-192-192s86.467-192 192-192c105.533 0 192 86.467 192 192s-86.467 192-192 192zM512 554.667c59.416 0 106.667-47.251 106.667-106.667s-47.251-106.667-106.667-106.667c-59.416 0-106.667 47.251-106.667 106.667s47.251 106.667 106.667 106.667z" />
<glyph unicode="&#xe91d;" glyph-name="Icon-Egress" horiz-adv-x="1638" d="M972.8 345.6v-358.4l614.4 460.8-614.4 460.8v-358.4h-921.6v-204.8h921.6z" />
<glyph unicode="&#xe91f;" glyph-name="Icon-Host" d="M512 960l-512-236.333v-551.333l24.75-11.5 487.25-224.833 512 236.333v551.333zM512 866l426.667-196.917v-442.167l-426.667-196.917-426.667 196.917v442.167zM985.667 743.167l-473.25-205.833-452.083 205.5-35.333-77.667 486.583-221.167 508.083 220.833z" />
<glyph unicode="&#xe920;" glyph-name="Icon-Link" d="M598.319 738.194c28.868 37.113 63.475 68.473 105.69 91.737 0.333-31.265 8.132-60.738 21.709-86.718-23.356-15.961-42.948-35.435-60.041-57.408-50.65-65.123-80.606-153.513-113.199-251.296l-1.289-3.861v-0.004c-31.053-93.175-64.998-195.038-125.511-272.836-28.865-37.116-63.476-68.476-105.69-91.738-0.33 31.262-8.133 60.736-21.707 86.716 23.354 15.962 42.948 35.435 60.039 57.408 50.652 65.126 80.609 153.515 113.202 251.298l1.289 3.861c31.053 93.178 64.998 195.041 125.508 272.842zM1024 832c0-70.692-57.308-128-128-128s-128 57.308-128 128c0 70.692 57.308 128 128 128s128-57.308 128-128zM256 64c0-70.692-57.308-128-128-128s-128 57.308-128 128c0 70.692 57.308 128 128 128s128-57.308 128-128z" />
<glyph unicode="&#xe921;" glyph-name="Icon-Menu-Item-Selected" d="M874.625 826.375l-42.5-47.875-466.875-525.25-221.25 221.25-90.5-90.5 317.25-317.25 599.625 674.625z" />
<glyph unicode="&#xe922;" glyph-name="Icon-More-Info" d="M512 960c-282.264 0-512-229.736-512-512s229.736-512 512-512c282.264 0 512 229.736 512 512s-229.736 512-512 512zM512 874.667c236.147 0 426.667-190.52 426.667-426.667s-190.52-426.667-426.667-426.667c-236.147 0-426.667 190.52-426.667 426.667s190.52 426.667 426.667 426.667zM469.333 512v-341.333h85.333v341.333zM576 661.333c0-35.346-28.654-64-64-64s-64 28.654-64 64c0 35.346 28.654 64 64 64s64-28.654 64-64z" />
<glyph unicode="&#xe923;" glyph-name="Icon-More" d="M960 448c0-53.019-42.981-96-96-96s-96 42.981-96 96c0 53.019 42.981 96 96 96s96-42.981 96-96zM608 448c0-53.019-42.981-96-96-96s-96 42.981-96 96c0 53.019 42.981 96 96 96s96-42.981 96-96zM256 448c0-53.019-42.981-96-96-96s-96 42.981-96 96c0 53.019 42.981 96 96 96s96-42.981 96-96z" />
<glyph unicode="&#xe924;" glyph-name="Icon-New-Constellation" d="M341.333-64l68.267 273.067 273.067 68.267-273.067 68.267-68.267 273.067-68.267-273.067-273.067-68.267 273.067-68.267 68.267-273.067zM490.667 746.667l21.333 85.333 85.333 21.333-85.333 21.333-21.333 85.333-21.333-85.333-85.333-21.333 85.333-21.333 21.333-85.333zM853.333 362.667l34.133 136.533 136.533 34.133-136.533 34.133-34.133 136.533-34.133-136.533-136.533-34.133 136.533-34.133 34.133-136.533z" />
<glyph unicode="&#xe925;" glyph-name="Icon-Pin" d="M597.333 746.667v-170.667c0-47.787 15.787-92.16 42.667-128h-256c27.733 36.693 42.667 81.067 42.667 128v170.667h170.667zM725.333 832h-426.667c-23.467 0-42.667-19.2-42.667-42.667s19.2-42.667 42.667-42.667h42.667v-170.667c0-70.827-57.173-128-128-128v-85.333h254.72v-256l42.667-42.667 42.667 42.667v256h257.28v85.333c-70.827 0-128 57.173-128 128v170.667h42.667c23.467 0 42.667 19.2 42.667 42.667s-19.2 42.667-42.667 42.667z" />
<glyph unicode="&#xe926;" glyph-name="Icon-Provider" d="M469.333 789.333v-426.667h85.333v426.667zM483.75 437.333l-394.667-348.25 56.5-64 366.417 323.333 366.417-323.333 56.5 64-394.667 348.25c-7.486 6.637-17.395 10.691-28.25 10.691s-20.764-4.053-28.294-10.729l0.044 0.039zM725.333 234.667h256v-256h-256v256zM42.667 234.667h256v-256h-256v256zM661.333 768c0-82.475-66.859-149.333-149.333-149.333s-149.333 66.859-149.333 149.333c0 82.475 66.859 149.333 149.333 149.333s149.333-66.859 149.333-149.333z" />
<glyph unicode="&#xe927;" glyph-name="Icon-Search" d="M661.333 359l-60.333-60.333 295-295 60.333 60.333-264.833 264.833zM426.667 874.667c-188.008 0-341.333-153.326-341.333-341.333s153.326-341.333 341.333-341.333c188.008 0 341.333 153.326 341.333 341.333s-153.326 341.333-341.333 341.333zM426.667 789.333c141.89 0 256-114.11 256-256s-114.11-256-256-256c-141.89 0-256 114.11-256 256s114.11 256 256 256z" />
<glyph unicode="&#xe928;" glyph-name="Icon-Terminate" d="M672 960v-64h288v-96h-896v96h288v64h320zM192 736v-800h640v800h-640zM384 544h64v-416h-64v416zM576 544h64v-416h-64v416z" />
<glyph unicode="&#xe929;" glyph-name="Icon-Toolbar-More" d="M341.333 448c0-26.93-21.831-48.762-48.762-48.762s-48.762 21.831-48.762 48.762c0 26.93 21.831 48.762 48.762 48.762s48.762-21.831 48.762-48.762zM560.762 448c0-26.93-21.831-48.762-48.762-48.762s-48.762 21.831-48.762 48.762c0 26.93 21.831 48.762 48.762 48.762s48.762-21.831 48.762-48.762zM780.19 448c0-26.93-21.831-48.762-48.762-48.762s-48.762 21.831-48.762 48.762c0 26.93 21.831 48.762 48.762 48.762s48.762-21.831 48.762-48.762z" />
<glyph unicode="&#xe92a;" glyph-name="Icon-Toolbar-New-Actor" d="M877.714 179.81v-243.81h48.762v243.81zM780.19 82.286v-48.762h243.81v48.762zM633.905 616.571l-34.476-34.476 134.095-134.095-134.095-134.095 34.476-34.476 168.571 168.571-151.333 151.333zM390.095 616.571l-168.571-168.571 168.571-168.571 34.476 34.476-134.095 134.095 134.095 134.095z" />
<glyph unicode="&#xe92b;" glyph-name="Icon-Toolbar-New-Application" d="M877.714 179.81v-243.81h48.762v243.81zM780.19 82.286v-48.762h243.81v48.762zM646.095 508.952l-158.476-73.143v-207.238l158.476-73.143 158.476 73.143v207.238zM646.095 455.238l109.714-50.619v-144.857l-109.714-50.619-109.714 50.619v144.857zM522.095 427.524l-20.19-44.381 144.19-65.524 144.19 65.524-20.19 44.381-124-56.381zM377.905 508.952l-158.476-73.143v-207.238l158.476-73.143 158.476 73.143v207.238zM377.905 455.238l109.714-50.619v-144.857l-109.714-50.619-109.714 50.619v144.857zM253.905 427.524l-20.19-44.381 144.19-65.524 144.19 65.524-20.19 44.381-124-56.381zM512 740.571l-158.476-73.143v-207.238l158.476-73.143 158.476 73.143v207.238zM512 686.857l109.714-50.619v-144.857l-109.714-50.619-109.714 50.619v144.857zM388 659.143l-20.19-44.381 144.19-65.524 144.19 65.524-20.19 44.381-124-56.381z" />
<glyph unicode="&#xe92c;" glyph-name="Icon-Toolbar-New-Host" d="M877.714 179.81v-243.81h48.762v243.81zM780.19 82.286v-48.762h243.81v48.762zM512 764.952l-292.571-135.048v-315.048l14.143-6.571 278.429-128.476 292.571 135.048v315.048zM512 711.238l243.81-112.524v-252.667l-243.81-112.524-243.81 112.524v252.667zM782.667 641.048l-270.429-117.619-258.333 117.429-20.19-44.381 278.048-126.381 290.333 126.19z" />
<glyph unicode="&#xe92d;" glyph-name="Icon-Toolbar-New-Provider" d="M877.714 179.81v-243.81h48.762v243.81zM780.19 82.286v-48.762h243.81v48.762zM487.619 643.048v-243.81h48.762v243.81zM495.857 441.905l-225.524-199 32.286-36.571 209.381 184.762 209.381-184.762 32.286 36.571-225.524 199c-4.278 3.793-9.94 6.109-16.143 6.109s-11.865-2.316-16.168-6.131l0.025 0.022zM633.905 326.095h146.286v-146.286h-146.286v146.286zM243.81 326.095h146.286v-146.286h-146.286v146.286zM597.333 630.857c0-47.128-38.205-85.333-85.333-85.333s-85.333 38.205-85.333 85.333c0 47.128 38.205 85.333 85.333 85.333s85.333-38.205 85.333-85.333z" />
<glyph unicode="&#xe92e;" glyph-name="Icon-Toolbar-New-Wormhole" d="M877.714 179.81v-243.81h48.762v243.81zM780.19 82.286v-48.762h243.81v48.762zM414.476 740.571h-195.048v-585.143h585.143v585.143h-146.286v-48.762h97.524v-487.619h-487.619v487.619h146.286v48.762zM633.905 740.571c-80.502 0-146.286-65.784-146.286-146.286v-146.286h48.762v146.286c0 54.149 43.375 97.524 97.524 97.524h24.381v48.762zM597.333 448c0-47.128-38.205-85.333-85.333-85.333s-85.333 38.205-85.333 85.333c0 47.128 38.205 85.333 85.333 85.333s85.333-38.205 85.333-85.333z" />
<glyph unicode="&#xe92f;" glyph-name="Icon-Unlock-1" d="M25.6 524.8h665.6v-512h-665.6zM0 550.4v-563.2h716.8v563.2zM51.2 499.2h614.4v-460.8h-614.4zM921.6 601.6v51.2c0 84.831-68.767 153.6-153.6 153.6s-153.6-68.769-153.6-153.6v-102.4c0-66.878 42.742-123.774 102.4-144.86v-106.020c-116.849 23.721-204.8 127.029-204.8 250.88v102.4c0 141.385 114.616 256 256 256s256-114.615 256-256v-51.2h-102.4z" />
<glyph unicode="&#xe930;" glyph-name="Icon-Unlock" d="M142.222 533.333h739.556v-568.889h-739.556zM113.778 561.778v-625.778h796.444v625.778zM170.667 504.889h682.667v-512h-682.667zM512 960c-156.598 0-284.444-127.846-284.444-284.444v-113.778c0-156.598 127.846-284.444 284.444-284.444s284.444 127.846 284.444 284.444v113.778c0 156.598-127.846 284.444-284.444 284.444zM512 846.222c95.533 0 170.667-75.133 170.667-170.667v-113.778c0-95.533-75.133-170.667-170.667-170.667s-170.667 75.133-170.667 170.667v113.778c0 95.533 75.133 170.667 170.667 170.667z" />
<glyph unicode="&#xe93a;" glyph-name="Icon-Wormhole" d="M341.333 960h-341.333v-1024h1024v1024h-256v-85.333h170.667v-853.333h-853.333v853.333h256v85.333zM725.333 960c-140.879 0-256-115.12-256-256v-256h85.333v256c0 94.761 75.906 170.667 170.667 170.667h42.667v85.333zM661.333 448c0-82.475-66.859-149.333-149.333-149.333s-149.333 66.859-149.333 149.333c0 82.475 66.859 149.333 149.333 149.333s149.333-66.859 149.333-149.333z" />
<glyph unicode="&#xe93b;" glyph-name="Icon-Ingress-And-Egress" horiz-adv-x="2048" d="M1433.6-12.8v358.4h-819.2v-358.4l-614.4 460.8 614.4 460.8v-358.4h819.2v358.4l614.4-460.8-614.4-460.8z" />
<glyph unicode="&#xe93c;" glyph-name="Icon-Ingress" horiz-adv-x="1638" d="M665.6 345.6v-358.4l-614.4 460.8 614.4 460.8v-358.4h921.6v-204.8h-921.6z" />
<glyph unicode="&#xe93d;" glyph-name="Logo-Cosmonic" horiz-adv-x="853" d="M407.002 198.050c-44.863 124.060-103.758 184.33-224.312 230.742-3.829 1.427-7.139 4.041-9.479 7.485s-3.596 7.552-3.596 11.761c0 4.21 1.256 8.318 3.596 11.762s5.65 6.059 9.479 7.485c120.555 46.413 179.449 106.903 224.312 230.962 1.334 4.037 3.855 7.543 7.21 10.024s7.376 3.815 11.5 3.815c4.124 0 8.145-1.334 11.5-3.815s5.876-5.987 7.21-10.024c36.145-125.379 78.031-210.505 353.371-216.004 2.615-0.029 5.209 0.478 7.632 1.493s4.628 2.517 6.487 4.419c1.859 1.903 3.335 4.168 4.342 6.664s1.525 5.175 1.525 7.88v139.897c-0.024 12.803-3.273 25.377-9.424 36.486s-14.995 20.367-25.657 26.864l-320.416 194.228c-10.792 6.577-23.089 10.046-35.614 10.046s-24.822-3.469-35.614-10.046l-320.415-194.228c-10.694-6.515-19.557-15.809-25.711-26.959s-9.384-23.77-9.371-36.611v-389.116c-0.018-12.811 3.212-25.404 9.368-36.519s15.022-20.367 25.714-26.831l320.415-194.23c10.821-6.485 23.107-9.907 35.614-9.907s24.793 3.422 35.614 9.907l320.416 194.23c10.691 6.463 19.558 15.714 25.713 26.831s9.386 23.708 9.368 36.519v141.216c0.001 2.724-0.524 5.42-1.545 7.932s-2.515 4.785-4.396 6.691c-1.882 1.905-4.111 3.403-6.56 4.405s-5.065 1.488-7.698 1.429c-276.404-5.499-317.013-90.626-353.159-215.785-1.104-4.188-3.481-7.898-6.779-10.581s-7.343-4.199-11.537-4.323c-4.195-0.123-8.317 1.152-11.756 3.638s-6.016 6.050-7.348 10.167z" />
</font>
</defs>
</svg>
