<svg width="1059" height="1089" viewBox="0 0 1059 1089" fill="none" xmlns="http://www.w3.org/2000/svg">
<style>
  @keyframes wobble {
    0% { transform: translateY(0); }
    100% { transform: translateY(-40px); }
  }
  @keyframes bob {
    from { transform: translateY(60px); }
    to { transform: translateY(20px); }
  }
  @keyframes wiggle {
    from { transform: translateY(60px) rotate(0); }
    to { transform: translateY(20px) rotate(10deg); }
  }
  .\-scale-x-100 #QuestionMarks {
    transform: scaleX(-1) translateX(-100%);
  }
  #Teri {
    transform-origin: 300px 700px;
    animation: 3s ease-in-out infinite alternate wobble;
  }
  #QuestionMarks * {
    transform: translateY(60px);
    animation: 3s ease-in-out infinite alternate wiggle;
  }
  #QuestionMarks :nth-child(1) { animation-delay: 0.5s; transform-origin: 800px 100px; }
  #QuestionMarks :nth-child(2) { animation-delay: 1.2s; transform-origin: 250px 350px; }
  #QuestionMarks :nth-child(3) { animation-delay: 0.8s; transform-origin: 600px 720px; }
  #BGDots * {
    transform: translateY(60px);
    animation: 3s ease-in-out infinite alternate bob;
  }
  #BGDots :nth-child(1) { animation-delay: 1s; }
  #BGDots :nth-child(2) { animation-delay: 0.7s; }
  #BGDots :nth-child(3) { animation-delay: 0.5s; }
  #BGDots :nth-child(4) { animation-delay: 0.2s; }
  @media (prefers-reduced-motion) { g { animation: none; }}
</style>
<g id="Floor">
<path id="Vector" opacity="0.5" d="M526.9 1013.38C724.143 1013.38 884.04 1003.08 884.04 990.37C884.04 977.662 724.143 967.36 526.9 967.36C329.657 967.36 169.76 977.662 169.76 990.37C169.76 1003.08 329.657 1013.38 526.9 1013.38Z" fill="#9D97B7"/>
</g>
<g id="BGDots">
<path id="Vector_2" opacity="0.5" d="M809.2 835.2C841.735 835.2 868.11 808.825 868.11 776.29C868.11 743.755 841.735 717.38 809.2 717.38C776.665 717.38 750.29 743.755 750.29 776.29C750.29 808.825 776.665 835.2 809.2 835.2Z" fill="#D8DFE2"/>
<path id="Vector_3" opacity="0.5" d="M275.41 294.27C298.23 294.27 316.73 275.77 316.73 252.95C316.73 230.129 298.23 211.63 275.41 211.63C252.59 211.63 234.09 230.129 234.09 252.95C234.09 275.77 252.59 294.27 275.41 294.27Z" fill="#D8DFE2"/>
<path id="Vector_4" opacity="0.5" d="M713.68 647.08C726.079 647.08 736.13 637.028 736.13 624.63C736.13 612.231 726.079 602.18 713.68 602.18C701.281 602.18 691.23 612.231 691.23 624.63C691.23 637.028 701.281 647.08 713.68 647.08Z" fill="#D8DFE2"/>
<path id="Vector_5" opacity="0.5" d="M83.57 440.36C95.9688 440.36 106.02 430.309 106.02 417.91C106.02 405.511 95.9688 395.46 83.57 395.46C71.1712 395.46 61.12 405.511 61.12 417.91C61.12 430.309 71.1712 440.36 83.57 440.36Z" fill="#D8DFE2"/>
<path id="Vector_6" opacity="0.5" d="M366.07 84.1799C374.078 84.1799 380.57 77.6881 380.57 69.6799C380.57 61.6718 374.078 55.1799 366.07 55.1799C358.062 55.1799 351.57 61.6718 351.57 69.6799C351.57 77.6881 358.062 84.1799 366.07 84.1799Z" fill="#D8DFE2"/>
</g>
<g id="QuestionMarks">
<path id="Vector_7" d="M729.05 65.64C729.05 56.8734 731.67 47.9934 736.91 39C742.15 30.0067 749.793 22.5567 759.84 16.65C769.893 10.7434 781.613 7.79004 795 7.79004C802.14 7.79004 814.63 7.86004 828 15.19C832.23 17.52 850 27.25 855.93 48.55C856.6 50.94 860.93 67.18 853.45 83.63C850.84 89.38 847.71 93.13 842.89 98.92C833.72 109.92 830.12 109.83 820.89 120.58C815.51 126.86 811.34 131.72 807.94 139.46C802.79 151.18 804.88 157.01 799.56 160.73C794.02 164.6 784.56 163.33 779.21 158.63C768.53 149.19 776.75 127.74 777.99 124.52C780.26 118.58 783.12 114.7 786.87 109.52C791.67 102.97 794.75 100.52 808.71 85.52C815.43 78.29 816.55 76.88 817.71 74.34C818.71 72.26 823.15 62.53 818.65 52.61C814.22 42.87 803.65 38.44 795.05 38.33C793.89 38.33 782.41 38.33 774.87 46.71C766.09 56.45 768.67 70.8 760.58 77.14C758.279 78.8723 755.753 80.282 753.07 81.33C750.887 82.2813 748.541 82.8041 746.16 82.87C741.553 82.7466 737.181 80.8053 734 77.47C730.937 74.2792 729.172 70.0616 729.05 65.64ZM791.81 217.31C786.387 217.385 781.131 215.434 777.07 211.84C772.87 208.2 770.77 203.103 770.77 196.55C770.712 193.816 771.223 191.1 772.272 188.574C773.32 186.049 774.883 183.769 776.86 181.88C778.824 179.934 781.16 178.403 783.728 177.381C786.297 176.359 789.046 175.865 791.81 175.93C794.528 175.892 797.227 176.4 799.745 177.423C802.264 178.446 804.552 179.963 806.474 181.886C808.397 183.808 809.914 186.096 810.937 188.615C811.96 191.134 812.468 193.832 812.43 196.55C812.43 203.01 810.353 208.083 806.2 211.77C802.279 215.375 797.136 217.355 791.81 217.31Z" fill="#FCB631"/>
<path id="Vector_8" d="M129.63 358.24C127.639 352.473 127.232 346.278 128.45 340.3C129.769 333.389 132.872 326.943 137.45 321.6C142.237 315.767 148.7 311.354 156.84 308.36C161.18 306.77 168.78 304.02 178.53 305.5C181.62 305.96 194.53 307.92 202.95 319.5C203.89 320.8 210.13 329.7 209.27 341.36C208.97 345.44 207.91 348.42 206.27 353.01C203.15 361.74 200.95 362.49 197.76 371.08C195.89 376.08 194.45 379.98 194.11 385.44C193.6 393.71 196.16 396.79 193.76 400.24C191.36 403.69 185.21 405.17 180.93 403.5C172.34 400.15 172.54 385.29 172.57 383.05C172.63 378.93 173.5 375.94 174.63 371.99C176.09 366.93 177.42 364.78 182.54 352.53C185.01 346.64 185.38 345.53 185.54 343.73C185.66 342.25 186.2 335.34 181.25 330.32C176.3 325.3 168.95 325.07 163.73 326.91C163.02 327.16 156.05 329.74 153.34 336.51C150.18 344.39 154.95 352.51 151.45 358.19C150.44 359.754 149.222 361.174 147.83 362.41C146.711 363.473 145.401 364.314 143.97 364.89C141.131 365.84 138.03 365.624 135.35 364.29C132.757 363.056 130.717 360.898 129.63 358.24ZM201.63 436.38C198.357 437.641 194.733 437.641 191.46 436.38C188.093 435.1 185.68 432.47 184.22 428.49C183.573 426.843 183.276 425.079 183.348 423.311C183.421 421.543 183.861 419.809 184.64 418.22C185.398 416.6 186.475 415.149 187.806 413.955C189.138 412.761 190.697 411.847 192.39 411.27C194.033 410.638 195.787 410.342 197.546 410.4C199.306 410.458 201.036 410.868 202.634 411.607C204.233 412.345 205.666 413.397 206.851 414.699C208.035 416.002 208.946 417.529 209.53 419.19C210.97 423.11 210.84 426.657 209.14 429.83C207.552 432.886 204.865 435.226 201.62 436.38H201.63Z" fill="#7873BC"/>
<path id="Vector_9" opacity="0.7" d="M882.58 558.52C883.898 553.585 886.52 549.095 890.17 545.52C894.316 541.328 899.487 538.294 905.17 536.72C911.599 534.904 918.399 534.863 924.85 536.6C930.947 537.832 936.61 540.65 941.27 544.77C943.19 546.54 951.27 553.96 951.66 565.96C951.791 572.497 949.732 578.89 945.81 584.12C943.69 586.81 941.56 588.38 938.27 590.81C932.02 595.41 930.13 594.9 923.89 599.37C920.25 601.99 917.42 604.01 914.63 607.65C910.4 613.16 910.74 616.5 907.46 617.77C904.18 619.04 899.2 617.2 897.01 614.03C892.61 607.67 899.71 597.44 900.78 595.9C902.647 593.35 904.878 591.086 907.4 589.18C910.78 586.34 912.71 585.47 922.01 579.36C926.48 576.42 927.25 575.82 928.2 574.64C928.97 573.64 932.59 569.12 931.5 563.31C930.41 557.5 925.41 553.9 920.92 552.73C920.31 552.57 914.26 551.1 909.2 554.54C903.32 558.54 902.82 566.43 897.74 568.72C896.304 569.335 894.789 569.749 893.24 569.95C891.967 570.172 890.663 570.145 889.4 569.87C886.982 569.203 884.928 567.602 883.69 565.42C882.47 563.34 882.074 560.878 882.58 558.52ZM896.01 646.52C893.142 645.858 890.625 644.15 888.95 641.73C888.08 640.445 887.509 638.981 887.279 637.446C887.048 635.911 887.165 634.344 887.62 632.86C887.943 631.413 888.563 630.049 889.441 628.855C890.319 627.66 891.435 626.661 892.72 625.92C894.008 625.152 895.437 624.65 896.923 624.443C898.409 624.237 899.921 624.331 901.37 624.72C902.809 625.048 904.167 625.663 905.363 626.527C906.559 627.39 907.57 628.486 908.334 629.749C909.098 631.011 909.601 632.414 909.811 633.875C910.022 635.335 909.936 636.823 909.56 638.25C909.272 639.767 908.652 641.201 907.745 642.449C906.837 643.697 905.664 644.729 904.31 645.47C901.776 646.867 898.807 647.253 896 646.55L896.01 646.52Z" fill="#7873BC"/>
</g>
<g id="Teri">
<g id="Layer 44">
<path id="Vector_10" d="M244.78 588C246.78 580.54 248.64 574.55 249.84 570.92C246.148 560.941 243.794 550.517 242.84 539.92C239.39 500.5 256.84 470.07 276.84 435.16C291.09 410.29 305.33 393.48 318.22 380.96C321.84 377.44 324.95 374.65 327.07 372.8C331.064 352.499 340.229 333.572 353.68 317.85C377.84 289.79 407.98 281.53 418.62 279.13C464.4 228.13 537.06 214.77 592.24 244.55C636.43 268.39 663.81 316.86 663.9 369.76C666.01 375.83 667.9 382.23 669.53 388.96C680.91 436.35 673.04 479.27 663.53 509.28L641.42 556C660.77 601.3 670.76 630.09 676.3 659.09C680.62 681.71 682.86 693.83 682.66 711.52C682 769.74 655.86 811.04 647.92 822.77C634.23 843 620.26 855.6 611.37 863.5C595.61 877.5 571.37 898.93 533.71 909.34C497.82 919.25 466.38 914.56 447.93 910.03C441.85 908.59 432.11 906.45 417.34 903.76L416.34 903.57C410.89 902.57 393.87 898.73 371.1 885.46C334.57 864.16 309.89 835.99 292.45 810.66C287.87 804.05 208.88 724.71 244.78 588Z" fill="#E1E1EA"/>
<path id="Vector_11" opacity="0.1" d="M292.42 810.66C287.87 804.05 208.88 724.71 244.78 587.96C246.69 580.68 248.54 574.82 249.78 571.17C250.797 572.522 251.903 573.804 253.09 575.01C259.84 581.85 271.94 584.82 295.87 590.49C322.11 596.7 335.2 599.55 346.87 598.74C385.17 596.06 404.28 565.6 412.18 571.9C417.49 576.13 413.06 592.81 405.44 603.9C388.32 628.74 348.74 634.48 345.39 634.9C334.81 636.31 328.21 625.08 324.91 630.03C319.46 638.18 327.8 654.64 336.08 663.54C354.24 683.04 385.37 680.4 415.2 678.43C532.26 670.71 591.36 675.88 592.98 661.68C593.83 654.28 578.21 649.17 579.71 643.88C582.18 635.18 627.02 639.98 673.99 647.37C674.86 651.44 675.65 655.37 676.37 659.1C680.69 681.72 682.93 693.84 682.73 711.53C682.07 769.75 655.93 811.05 647.99 822.78C634.23 843 620.26 855.6 611.37 863.5C595.61 877.5 571.37 898.93 533.71 909.34C497.82 919.25 466.38 914.56 447.93 910.03L446.72 909.74C443.27 908.94 433.72 906.74 417.34 903.74L416.34 903.55C410.89 902.55 393.87 898.71 371.1 885.44C334.54 864.16 309.86 836 292.42 810.66Z" fill="#18187C"/>
<path id="Vector_12" opacity="0.1" d="M457.33 480.45C431.66 492.05 404.81 482.45 386.79 475.95C340.73 459.43 333.41 433.48 308.63 437.78C290.49 440.93 277.18 457.78 264.98 473.3C256.413 484.202 249.477 496.292 244.39 509.19C249.2 483.43 262.39 460.46 276.87 435.13C291.12 410.26 305.36 393.45 318.25 380.93C321.87 377.41 324.98 374.62 327.1 372.77C331.532 350.754 341.942 330.383 357.188 313.893C372.435 297.404 391.928 285.431 413.53 279.29C406.418 297.338 405.507 317.238 410.94 335.86C405.06 337.21 382.94 343.03 368.25 364.29C364.31 370 357.48 381.7 356.46 397C353.93 434.92 389.38 460 391.75 461.6C386.12 458.6 379.39 455.08 371.7 451.2C378.035 455.141 384.641 458.626 391.47 461.63C410.63 470.35 425.13 476.95 443.26 474.51C471.9 470.65 489.26 446.96 494.12 439.81C488.74 451.86 477.78 471.22 457.33 480.45Z" fill="#18187C"/>
<path id="Vector_13" d="M244.78 588C246.78 580.54 248.64 574.55 249.84 570.92C246.148 560.941 243.794 550.517 242.84 539.92C239.39 500.5 256.84 470.07 276.84 435.16C291.09 410.29 305.33 393.48 318.22 380.96C321.84 377.44 324.95 374.65 327.07 372.8C331.064 352.499 340.229 333.572 353.68 317.85C377.84 289.79 407.98 281.53 418.62 279.13C464.4 228.13 537.06 214.77 592.24 244.55C636.43 268.39 663.81 316.86 663.9 369.76C666.01 375.83 667.9 382.23 669.53 388.96C680.91 436.35 673.04 479.27 663.53 509.28L641.42 556C660.77 601.3 670.76 630.09 676.3 659.09C680.62 681.71 682.86 693.83 682.66 711.52C682 769.74 655.86 811.04 647.92 822.77C637.518 837.842 625.235 851.526 611.37 863.49C599.85 873.49 575.74 894.02 538.84 905.61C485.94 922.22 439.94 910.04 417.34 903.75C404.99 900.31 389.45 895.87 371.07 885.45C334.63 864.79 309.2 835.03 292.42 810.65C287.87 804.05 208.88 724.71 244.78 588Z" stroke="#6360A7" stroke-width="7" stroke-linecap="round" stroke-linejoin="round"/>
<path id="Vector_14" d="M440 540.11C436.5 551.27 444.07 564.11 454.39 569.17C463.52 573.68 467.92 568.77 493.5 571.67C504.5 572.92 511.83 574.75 512.61 573.08C513.39 571.41 506.44 567.27 500.16 563.63C492.14 559 483.814 554.92 475.24 551.42C484.097 550.693 493.004 550.85 501.83 551.89C514.69 553.4 521.91 556.16 522.57 554.89C523.48 553.16 511.27 545.33 497.11 540.97C488.917 538.469 480.406 537.159 471.84 537.08C478.701 534.796 485.839 533.451 493.06 533.08C503.48 532.55 511.66 534.16 512.06 532.81C512.46 531.46 503.3 527.98 502.37 527.65C490.55 523.37 476.56 518.3 461.68 522.8C458.24 523.84 443.72 528.22 440 540.11Z" fill="#A5A0D8"/>
<path id="Vector_15" d="M440 540.11C436.5 551.27 444.07 564.11 454.39 569.17C463.52 573.68 467.92 568.77 493.5 571.67C504.5 572.92 511.83 574.75 512.61 573.08C513.39 571.41 506.44 567.27 500.16 563.63C492.14 559 483.814 554.92 475.24 551.42C484.097 550.693 493.004 550.85 501.83 551.89C514.69 553.4 521.91 556.16 522.57 554.89C523.48 553.16 511.27 545.33 497.11 540.97C488.917 538.469 480.406 537.159 471.84 537.08C478.701 534.796 485.839 533.451 493.06 533.08C503.48 532.55 511.66 534.16 512.06 532.81C512.46 531.46 503.3 527.98 502.37 527.65C490.55 523.37 476.56 518.3 461.68 522.8C458.24 523.84 443.72 528.22 440 540.11Z" stroke="#6360A7" stroke-width="5" stroke-linecap="round" stroke-linejoin="round"/>
<path id="Vector_16" d="M282.37 480.43C276.37 483.67 257.37 494.92 248.8 518.01C240.89 539.41 245.56 561.27 253.06 575.01C282.29 628.59 390.06 623.87 428.15 593.36C433.73 588.9 446.72 578.5 449.56 561.71C450.609 552.15 449 542.485 444.91 533.78C433.2 508.26 369 487.39 282.37 480.43Z" fill="#E1E1EA"/>
<path id="Vector_17" d="M313.76 483.67C384.26 492.67 434.66 511.45 444.91 533.78C449 542.485 450.609 552.149 449.56 561.71C446.72 578.5 433.73 588.9 428.15 593.36C390 623.87 282.29 628.59 253.06 575C253.06 575 238.19 548.38 244.39 509.18" stroke="#6360A7" stroke-width="7" stroke-linecap="round" stroke-linejoin="round"/>
<path id="Vector_18" d="M592.51 727.44C616.68 714.03 632.35 705.34 653.38 705.87C655.87 705.93 692.47 707.29 703.55 729.87C706.34 735.56 706.22 743.07 705.98 758.1C705.73 774.1 705.53 786.91 700.98 802.86C696.248 819.402 688.183 834.801 677.28 848.11C659 869.87 637.64 878.62 611.58 889.3C605.8 891.67 600.33 893.69 595.14 895.44C582.932 899.497 570.489 902.81 557.88 905.36C514.88 913.87 474.38 910.36 469.99 909.91C451.199 908.028 432.598 904.582 414.38 899.61C410.51 898.61 407.29 897.61 405.03 896.94C420.42 879.81 433.44 865.94 442.63 856.28C496.01 800.28 529.89 771.58 554.73 752.44C566.662 743.148 579.292 734.789 592.51 727.44Z" fill="#E1E1EA"/>
<path id="Vector_19" opacity="0.1" d="M553.75 906.16C512.3 913.68 474.21 910.34 469.96 909.94C451.169 908.058 432.568 904.612 414.35 899.64C410.48 898.64 407.26 897.64 405 896.97L503.09 830.48C506.126 839.719 511.039 848.23 517.52 855.48C537.21 877.34 564.52 879.02 569.66 879.33C584.66 880.26 597.36 876.56 608.45 873.33C615.175 871.22 621.79 868.773 628.27 866C652.51 856.06 672.68 847.78 690.09 829.16C689.76 829.77 689.42 830.36 689.09 830.95L688.97 831.16C688.67 831.67 688.38 832.16 688.08 832.68C688.08 832.76 687.99 832.84 687.94 832.92L687.04 834.41L686.96 834.54C685.64 836.69 684.37 838.62 683.19 840.32L683.09 840.47L682.33 841.55L682.23 841.69C681.98 842.05 681.73 842.39 681.48 842.69C681.466 842.721 681.445 842.748 681.42 842.77C680.64 843.85 679.92 844.77 679.29 845.59C679.25 845.646 679.206 845.699 679.16 845.75L678.72 846.31L678.56 846.52L678.19 846.96L678.04 847.15C677.93 847.29 677.82 847.43 677.71 847.55L677.61 847.67L677.25 848.11C670.384 856.302 662.32 863.408 653.33 869.19C640.84 877.33 627 883 611.55 889.33H611.48L607.72 890.84L607 891.12L603.34 892.52L602.87 892.69C600.22 893.69 597.63 894.59 595.11 895.44C582.902 899.497 570.459 902.81 557.85 905.36C556.55 905.61 555.26 905.86 553.97 906.09L553.75 906.16Z" fill="#18187C"/>
<path id="Vector_20" d="M700 806C699.68 806 703.23 790.85 703.28 768.1C703.28 752.81 703.28 744.57 700.86 739.88C687.16 713.1 568.4 748.32 554.69 752.45C559.52 748.79 566.45 743.76 575.06 738.24C605.56 718.7 626.81 704.65 653.37 705.85C657.71 706.05 692.71 708.07 703.54 729.85C706.42 735.65 706.31 743.2 705.97 758.08C705.36 785.39 700.38 806.08 700 806Z" fill="white"/>
<path id="Vector_21" d="M552.5 749.75C562.137 741.835 572.33 734.623 583 728.17C588.41 724.97 593.78 722.06 599.2 719.07C604.62 716.08 610.2 713.23 615.92 710.67C621.702 708.029 627.731 705.969 633.92 704.52C640.195 703.091 646.629 702.489 653.06 702.73C656.24 702.859 659.411 703.156 662.56 703.62C665.7 704.07 668.82 704.62 671.91 705.41C678.191 706.852 684.247 709.143 689.91 712.22C695.8 715.364 700.809 719.933 704.48 725.51C705.403 726.96 706.203 728.486 706.87 730.07C707.499 731.685 707.962 733.36 708.25 735.07C708.748 738.262 708.995 741.489 708.99 744.72C709.06 751 708.88 757.11 708.76 763.28C708.64 769.45 708.41 775.68 707.76 781.92C707.138 788.183 706.028 794.389 704.44 800.48C702.824 806.551 700.779 812.499 698.32 818.28C693.423 829.864 686.82 840.65 678.73 850.28C670.52 859.844 660.731 867.931 649.79 874.19C638.96 880.51 627.47 885.26 616.08 889.92C604.656 894.722 592.939 898.797 581 902.12C575 903.773 568.98 905.23 562.94 906.49C559.94 907.14 556.87 907.69 553.82 908.24C550.77 908.79 547.73 909.3 544.68 909.78C532.46 911.7 520.16 912.98 507.83 913.78C501.66 914.17 495.49 914.44 489.31 914.55C486.223 914.61 483.13 914.61 480.03 914.55L470.78 914.38C445.942 913.64 421.416 908.627 398.28 899.56C397.917 899.398 397.63 899.104 397.478 898.737C397.326 898.37 397.321 897.959 397.463 897.588C397.605 897.217 397.885 896.915 398.243 896.744C398.602 896.574 399.012 896.547 399.39 896.67C422.227 905.455 446.408 910.235 470.87 910.8L480 911C483.06 911 486.11 911 489.17 910.9C495.29 910.75 501.41 910.44 507.51 910.02C519.73 909.15 531.91 907.8 543.98 905.81C546.98 905.32 549.98 904.81 552.98 904.23C555.98 903.65 558.98 903.1 561.98 902.44C567.98 901.16 573.9 899.687 579.74 898.02C591.492 894.671 603.021 890.587 614.26 885.79C625.59 881.06 636.87 876.3 647.26 870.14C657.717 864.063 667.052 856.236 674.86 847C682.55 837.71 688.805 827.322 693.42 816.18C695.742 810.628 697.663 804.916 699.17 799.09C700.651 793.262 701.671 787.327 702.22 781.34C702.8 775.34 702.97 769.26 703.07 763.13C703.17 757 703.28 750.82 703.18 744.79C703.164 741.869 702.924 738.954 702.46 736.07C702.239 734.745 701.877 733.448 701.38 732.2C701.131 731.587 700.84 730.993 700.51 730.42C700.215 729.803 699.881 729.205 699.51 728.63C696.336 723.913 692.032 720.066 686.99 717.44C681.802 714.67 676.261 712.621 670.52 711.35C664.714 709.993 658.789 709.206 652.83 709C646.952 708.817 641.076 709.402 635.35 710.74C629.568 712.136 623.94 714.106 618.55 716.62C613.07 719.09 607.71 721.94 602.36 724.89C597.01 727.84 591.61 730.89 586.46 733.96C576.11 740.322 566.232 747.421 556.9 755.2C556.183 755.79 555.26 756.071 554.336 755.981C553.411 755.891 552.56 755.437 551.97 754.72C551.38 754.002 551.099 753.08 551.189 752.155C551.279 751.231 551.733 750.38 552.45 749.79L552.5 749.75Z" fill="#6360A7"/>
<path id="Vector_22" d="M481.65 863.53C483.24 862.1 484.65 860.71 484.65 860.71C489.79 855.27 495.96 845.39 508.4 814.98C524.62 775.31 532.69 755.1 531 736.58C530.23 728.17 528.23 709.26 513.94 693.71C494.18 672.22 464.07 674.28 454.1 674.89C435.78 676.01 422.18 682.52 394.96 695.54C373.29 705.92 362.54 711.28 352.47 719.62C350.16 721.53 297.37 766.46 309.71 815.35C314.44 834.1 326.81 845.76 340.25 858.42C359.054 875.955 381.785 888.732 406.54 895.68C428.52 890.44 463.26 880.26 481.65 863.53Z" fill="#E1E1EA"/>
<path id="Vector_23" opacity="0.1" d="M340.22 858.42C326.78 845.76 314.41 834.1 309.68 815.35C302.68 787.71 316.55 761.35 330.32 743.28L330.95 742.68C330.85 744.08 330.75 745.94 330.77 748.14C331.04 786.95 365.19 839.19 417.69 845.26C454.54 849.52 487.46 829.54 503.95 809.26C514.05 796.85 520.46 781.26 521.55 781.81C518.06 791.22 513.65 802.06 508.37 814.97C505.47 822.05 502.92 827.97 500.64 833.06C493.12 849.73 488.56 856.53 484.64 860.7L484.22 861.11C483.7 861.63 482.74 862.55 481.68 863.51C463.29 880.24 428.55 890.42 406.54 895.66C381.776 888.722 359.035 875.952 340.22 858.42Z" fill="#18187C"/>
<path id="Vector_24" d="M366.28 714.78C376.33 705.27 409.58 676.01 454.07 674.89C466.83 674.57 495.46 673.65 513.91 693.71C517.097 697.191 519.86 701.038 522.14 705.17C502.153 699.193 481.421 696.069 460.56 695.89C419.68 695.5 386.53 706.31 366.28 714.78Z" fill="white"/>
<path id="Vector_25" d="M432.76 889C450.52 885.19 469.98 877.17 484.65 860.7C491.57 852.92 497.91 840.57 508.37 815C524.59 775.33 532.66 755.12 530.97 736.6C530.2 728.19 528.2 709.28 513.91 693.73C494.15 672.24 464.04 674.3 454.07 674.91C435.19 676.06 421.63 682.63 394.93 695.56C380.265 702.667 366.073 710.711 352.44 719.64" stroke="#6360A7" stroke-width="6.85" stroke-linecap="round" stroke-linejoin="round"/>
<path id="Vector_26" d="M495.75 655.32C501.18 638.02 503.49 628.06 504.98 628.27C506.47 628.48 506.08 637.44 505.93 641.7C505.649 650.221 504.537 658.695 502.61 667C512.91 649.07 518.04 641.78 520.61 639.42C520.903 639.115 521.24 638.856 521.61 638.65C521.73 638.565 521.869 638.509 522.015 638.488C522.162 638.468 522.311 638.482 522.45 638.53C524.87 639.31 523.63 651.756 518.73 675.87C527.63 665.98 535.66 660.5 541.25 657.38C545.98 654.73 547.72 654.46 548.32 655.15C548.68 655.56 549.5 657.33 541.64 668.44C534.356 678.681 526.028 688.139 516.79 696.66C514.257 693.667 511.455 690.912 508.42 688.43C507.06 687.31 505.72 686.32 504.42 685.43C499.348 682.287 493.789 680.01 487.97 678.69C489.83 673.29 492.64 665.24 495.75 655.32Z" fill="#A5A0D8"/>
<path id="Vector_27" d="M495.75 655.32C501.18 638.02 503.49 628.06 504.98 628.27C506.47 628.48 506.08 637.44 505.93 641.7C505.649 650.221 504.537 658.695 502.61 667C512.91 649.07 518.04 641.78 520.61 639.42C520.903 639.115 521.24 638.856 521.61 638.65C521.73 638.565 521.869 638.509 522.015 638.488C522.162 638.468 522.311 638.482 522.45 638.53C524.87 639.31 523.63 651.756 518.73 675.87C527.63 665.98 535.66 660.5 541.25 657.38C545.98 654.73 547.72 654.46 548.32 655.15C548.68 655.56 549.5 657.33 541.64 668.44C534.356 678.681 526.028 688.139 516.79 696.66C514.257 693.667 511.455 690.912 508.42 688.43C507.06 687.31 505.72 686.32 504.42 685.43C499.348 682.287 493.789 680.01 487.97 678.69C489.83 673.29 492.64 665.24 495.75 655.32Z" stroke="#6360A7" stroke-width="5" stroke-linecap="round" stroke-linejoin="round"/>
<path id="Vector_28" d="M694.26 685.41C700.05 674.73 702.26 671.34 703.15 671.65C704.43 672.09 702.53 681.65 700.15 689.97C698.432 696.078 696.301 702.062 693.77 707.88C697.45 703.54 701.9 698.65 707.19 693.53C710.64 690.19 723.07 678.53 725.4 680.39C728.4 682.79 713.22 705.9 715 707.06C715.71 707.52 718.29 703.91 724.45 699.31C725.96 698.19 734.17 692.07 735.62 693.44C737.07 694.81 731.07 703.38 727.41 708.56C721.004 717.586 713.988 726.163 706.41 734.23C705.147 731.194 703.486 728.339 701.47 725.74C696.11 719.063 688.749 714.282 680.47 712.1C683.65 705.62 688.3 696.42 694.26 685.41Z" fill="#A5A0D8"/>
<path id="Vector_29" d="M694.26 685.41C700.05 674.73 702.26 671.34 703.15 671.65C704.43 672.09 702.53 681.65 700.15 689.97C698.432 696.078 696.301 702.062 693.77 707.88C697.45 703.54 701.9 698.65 707.19 693.53C710.64 690.19 723.07 678.53 725.4 680.39C728.4 682.79 713.22 705.9 715 707.06C715.71 707.52 718.29 703.91 724.45 699.31C725.96 698.19 734.17 692.07 735.62 693.44C737.07 694.81 731.07 703.38 727.41 708.56C721.004 717.586 713.988 726.163 706.41 734.23C705.147 731.194 703.486 728.339 701.47 725.74C696.11 719.063 688.749 714.282 680.47 712.1C683.65 705.62 688.3 696.42 694.26 685.41Z" stroke="#6360A7" stroke-width="4.23" stroke-linecap="round" stroke-linejoin="round"/>
</g>
<g id="Layer 50">
<path id="Vector_30" d="M652.64 476.73C699.77 511.67 712.37 565.58 690.77 598.03C666.28 634.82 606.43 631.03 591.64 630.14C577.98 629.28 526.84 626.07 511.57 593.57C511.14 592.66 502.94 574.5 510.62 557C523.19 528.35 573.39 512.69 634.53 523.11C628.2 510 629.23 495.66 637.59 486.11C641.645 481.654 646.854 478.407 652.64 476.73Z" fill="#E1E1EA"/>
<path id="Vector_31" d="M650.51 478.38C698.23 512.38 711.65 565.82 690.77 598.03C666.87 634.88 606.41 631.03 591.64 630.14C577.98 629.28 526.84 626.07 511.57 593.57C511.14 592.66 502.94 574.5 510.62 557C523.19 528.35 573.39 512.69 634.53 523.11" stroke="#6360A7" stroke-width="7.35" stroke-linecap="round" stroke-linejoin="round"/>
<path id="Vector_32" d="M516 558.67C524.24 567.67 522.14 582.67 514 591.54C506.81 599.38 500.33 596.54 476 609.47C465.57 615 459 619.64 457.53 618.39C456.06 617.14 461.2 610.51 465.93 604.61C471.991 597.056 478.564 589.926 485.6 583.27C476.492 586.095 467.672 589.778 459.26 594.27C447.07 600.81 441.04 606.27 439.84 605.34C438.19 604.08 447.05 591.91 459.32 582.19C466.503 576.555 474.432 571.941 482.88 568.48C475.083 569.097 467.396 570.696 460 573.24C449.38 576.89 441.9 581.66 440.92 580.56C439.94 579.46 447.6 572.56 448.39 571.88C458.39 563.18 470.17 552.88 486.94 551.14C490.84 550.74 507.19 549.05 516 558.67Z" fill="#A5A0D8"/>
<path id="Vector_33" d="M516 558.67C524.24 567.67 522.14 582.67 514 591.54C506.81 599.38 500.33 596.54 476 609.47C465.57 615 459 619.64 457.53 618.39C456.06 617.14 461.2 610.51 465.93 604.61C471.991 597.056 478.564 589.926 485.6 583.27C476.492 586.095 467.672 589.778 459.26 594.27C447.07 600.81 441.04 606.27 439.84 605.34C438.19 604.08 447.05 591.91 459.32 582.19C466.503 576.555 474.432 571.941 482.88 568.48C475.083 569.097 467.396 570.696 460 573.24C449.38 576.89 441.9 581.66 440.92 580.56C439.94 579.46 447.6 572.56 448.39 571.88C458.39 563.18 470.17 552.88 486.94 551.14C490.84 550.74 507.19 549.05 516 558.67Z" stroke="#6360A7" stroke-width="5.25" stroke-linecap="round" stroke-linejoin="round"/>
</g>
<g id="Layer 49">
<path id="Vector_34" d="M662.47 341.27C705.9 375.68 717.47 428.77 697.6 460.72C675 497 619.89 493.26 606.25 492.34C593.67 491.5 546.54 488.34 532.47 456.34C532.08 455.44 524.47 437.57 531.59 420.34C543.18 392.12 589.44 376.7 645.78 386.96C639.95 374.05 640.89 359.96 648.6 350.52C652.247 346.178 657.06 342.968 662.47 341.27Z" fill="#E1E1EA"/>
<path id="Vector_35" d="M660.5 342.9C704.5 376.38 716.85 429.01 697.6 460.72C675.6 497.02 619.87 493.26 606.25 492.34C593.67 491.5 546.54 488.34 532.47 456.34C532.08 455.44 524.47 437.57 531.59 420.34C543.18 392.12 589.44 376.7 645.78 386.96" stroke="#6360A7" stroke-width="7" stroke-linecap="round" stroke-linejoin="round"/>
<path id="Vector_36" d="M536.53 428.47C544.13 437.36 542.2 452.1 534.7 460.84C528.08 468.56 522.1 465.78 499.7 478.49C490.1 483.95 484.05 488.49 482.7 487.28C481.35 486.07 486.09 479.52 490.45 473.71C496.008 466.308 502.061 459.292 508.57 452.71C500.141 455.523 492.011 459.164 484.3 463.58C473.07 470.02 467.51 475.39 466.4 474.49C464.88 473.25 473.05 461.26 484.35 451.69C490.906 446.178 498.216 441.631 506.06 438.19C498.864 438.78 491.78 440.338 485 442.82C475.21 446.41 468.32 451.11 467.42 450.03C466.52 448.95 473.58 442.15 474.3 441.48C483.49 432.9 494.38 422.75 509.83 421.05C513.37 420.65 528.44 419 536.53 428.47Z" fill="#A5A0D8"/>
<path id="Vector_37" d="M536.53 428.47C544.13 437.36 542.2 452.1 534.7 460.84C528.08 468.56 522.1 465.78 499.7 478.49C490.1 483.95 484.05 488.49 482.7 487.28C481.35 486.07 486.09 479.52 490.45 473.71C496.008 466.308 502.061 459.292 508.57 452.71C500.141 455.523 492.011 459.164 484.3 463.58C473.07 470.02 467.51 475.39 466.4 474.49C464.88 473.25 473.05 461.26 484.35 451.69C490.906 446.178 498.216 441.631 506.06 438.19C498.864 438.78 491.78 440.338 485 442.82C475.21 446.41 468.32 451.11 467.42 450.03C466.52 448.95 473.58 442.15 474.3 441.48C483.49 432.9 494.38 422.75 509.83 421.05C513.37 420.65 528.44 419 536.53 428.47Z" stroke="#6360A7" stroke-width="5" stroke-linecap="round" stroke-linejoin="round"/>
</g>
<g id="Layer 47">
<path id="Vector_38" d="M399.7 283.73C397.96 270.73 392.94 221.34 424.75 173.73C428.94 167.45 464.3 116.29 530.03 105.84C545.48 103.38 583.11 97.3996 617.61 119.61C642.56 135.68 653.19 158.34 661.22 175.45C661.22 175.45 682.87 221.59 673.37 278.89C671.22 291.82 668.76 300.94 664.02 308.27C656.376 320.196 646.837 330.795 635.78 339.65C571.54 390.77 456.49 378.58 414.85 318.94C407.535 308.313 402.387 296.348 399.7 283.73Z" fill="#E1E1EA"/>
<path id="Vector_39" d="M399.7 283.73C397.92 269.42 393.7 220.61 424.75 173.73C428.96 167.36 468.49 109.73 538.89 103.87C551.4 102.87 592.29 99.4198 626.47 126.5C645.87 141.87 654.14 159.96 661.22 175.45C666.9 187.88 695.03 249.45 665.68 301.03C660.297 310.441 653.428 318.92 645.34 326.14" stroke="#6360A7" stroke-width="7" stroke-linecap="round" stroke-linejoin="round"/>
<path id="Vector_40" d="M517.9 175.64C520.103 174.245 522.643 173.471 525.25 173.401C527.857 173.33 530.434 173.966 532.71 175.24C540.86 179.95 542.28 192.7 538.17 196.33C535.26 198.91 531.98 194.8 520.91 194.94C519.11 194.94 514.63 195.13 512.43 192.31C512.273 192.112 512.133 191.901 512.01 191.68C510 188.22 511.73 179.66 517.9 175.64Z" fill="#1A325A"/>
<path id="Vector_41" d="M634.09 158.37C633.45 158.08 628.8 156.05 624.38 158.37C622.265 159.559 620.592 161.401 619.61 163.62C616.53 169.62 616.52 178.73 620.28 180.68C622.64 181.92 624.28 179.14 633.81 176.42C638.96 174.96 640.29 175.25 641.31 173.77C643.82 170.06 640.47 161.28 634.09 158.37Z" fill="#1A325A"/>
<path id="Vector_42" d="M609 195.13C605.83 212.46 604.62 236.73 614.43 261.73C619.2 273.87 624.24 286.18 637.29 292.59C648.23 297.97 664.29 298.98 674.84 290.59C687.12 280.78 685.77 262.98 684.32 243.91C683.26 229.97 680.54 194.22 656.09 180.91C653.09 179.27 644.79 174.91 634.32 176.52C618.66 178.88 610.37 192.75 609 195.13Z" fill="#6360A7"/>
<path id="Vector_43" d="M614.13 189.67C610.96 207.01 609.75 231.28 619.56 256.28C624.33 268.41 629.37 280.73 642.42 287.14C653.36 292.52 669.42 293.53 679.97 285.14C692.25 275.33 690.9 257.53 689.45 238.46C688.39 224.52 685.67 188.77 661.22 175.46C658.22 173.82 649.92 169.46 639.45 171.06C623.8 173.43 615.5 187.3 614.13 189.67Z" fill="#B4B3E5"/>
<path id="Vector_44" d="M689.3 244.88C688.24 230.94 685.53 195.18 661.08 181.88C658.08 180.24 649.78 175.88 639.3 177.48C623.65 179.89 615.36 193.76 613.99 196.13C612.881 202.153 612.169 208.243 611.86 214.36C611.875 206.085 612.635 197.828 614.13 189.69C615.5 187.32 623.79 173.45 639.45 171.04C649.92 169.43 658.21 173.8 661.22 175.44C685.67 188.77 688.39 224.52 689.45 238.44C690.06 246.44 690.64 254.25 690.21 261.33C690.15 256.07 689.73 250.53 689.3 244.88Z" fill="#DADAF7"/>
<path id="Vector_45" opacity="0.6" d="M656.221 219.793C672.667 215.902 684.242 205.319 682.074 196.156C679.906 186.992 664.817 182.718 648.371 186.609C631.925 190.499 620.35 201.082 622.518 210.245C624.686 219.409 639.775 223.683 656.221 219.793Z" fill="#EF7DAC"/>
<path id="Vector_46" d="M642.42 287.14C646.565 288.848 650.951 289.901 655.42 290.26C659.805 290.666 664.227 290.311 668.49 289.21C672.654 288.16 676.494 286.099 679.67 283.21C682.757 280.337 685.018 276.691 686.22 272.65C687.402 268.5 688.031 264.213 688.09 259.9C688.175 255.472 688.032 251.043 687.66 246.63C687.31 242.19 686.99 237.63 686.57 233.23C686.15 228.83 685.57 224.4 684.76 220.06C683.39 211.391 680.691 202.986 676.76 195.14C674.804 191.298 672.345 187.734 669.45 184.54C666.531 181.404 663.136 178.748 659.39 176.67C655.649 174.556 651.551 173.149 647.3 172.52C645.178 172.211 643.028 172.138 640.89 172.3C638.744 172.487 636.622 172.896 634.56 173.52C630.37 174.842 626.477 176.968 623.1 179.78C621.368 181.18 619.753 182.718 618.27 184.38C616.752 186.036 615.364 187.808 614.12 189.68C616.197 185.621 618.919 181.926 622.18 178.74C623.82 177.119 625.623 175.671 627.56 174.42C628.526 173.771 629.528 173.176 630.56 172.64C631.56 172.11 632.67 171.64 633.75 171.2C635.959 170.377 638.248 169.79 640.58 169.45C642.926 169.126 645.3 169.063 647.66 169.26C652.383 169.707 656.978 171.047 661.2 173.21C662.2 173.71 663.26 174.33 664.3 174.9C665.34 175.47 666.3 176.16 667.3 176.9C669.215 178.307 671.011 179.869 672.67 181.57C675.93 184.974 678.721 188.797 680.97 192.94C685.46 201.18 688.03 210.19 689.71 219.21C690.51 223.73 691.06 228.28 691.46 232.82C691.86 237.36 692.17 241.82 692.4 246.38C692.67 250.958 692.7 255.548 692.49 260.13C692.313 264.836 691.451 269.492 689.93 273.95C688.356 278.534 685.558 282.6 681.84 285.71C678.114 288.705 673.702 290.726 669 291.59C664.44 292.415 659.77 292.415 655.21 291.59C652.958 291.201 650.741 290.633 648.58 289.89C646.458 289.135 644.398 288.216 642.42 287.14Z" fill="#6360A7"/>
<path id="Vector_47" d="M551.58 217C537.65 203.52 520.37 200.17 515.28 199.24C507.54 197.84 488.53 194.39 471.41 204.85C449.69 218.12 443.34 246.48 446.11 267.34C450.62 301.28 479.62 317.99 487.54 322.05C494.54 325.65 509.3 333.23 527.85 329.47C531.71 328.69 548.49 324.85 559.73 309.56C563.876 303.888 566.801 297.419 568.32 290.56C568.87 288.5 579.79 244.3 551.58 217Z" fill="#6360A7"/>
<path id="Vector_48" d="M556.18 210.51C542.25 197 525 193.68 519.88 192.75C512.14 191.35 493.13 187.9 476.01 198.36C454.29 211.63 447.94 239.99 450.71 260.85C455.22 294.79 484.22 311.5 492.14 315.56C499.14 319.16 513.9 326.74 532.45 322.98C536.31 322.2 553.09 318.36 564.33 303.07C568.476 297.399 571.401 290.929 572.92 284.07C573.47 282 584.4 237.8 556.18 210.51Z" fill="#B4B3E5"/>
<path id="Vector_49" d="M551.39 224.49C537 211 520.18 207.66 515.08 206.73C507.35 205.33 488.33 201.88 471.21 212.34C462.793 217.605 456.112 225.232 452 234.27C455.24 220.1 462.75 206.44 476 198.36C493.12 187.9 512.13 191.36 519.87 192.75C526.27 193.91 542.6 197.16 556.17 210.51C579.61 233.57 576.91 269.16 574.77 269.67C572.91 270.1 572.15 243.88 551.39 224.49Z" fill="#DADAF7"/>
<path id="Vector_50" d="M476 198.36C470.453 202.113 465.728 206.954 462.11 212.59C458.53 218.17 455.866 224.287 454.22 230.71C452.53 237.091 451.703 243.669 451.76 250.27V252.74L451.91 255.2C451.97 256.84 452.23 258.46 452.4 260.08C452.57 261.7 453.01 263.29 453.31 264.9C453.619 266.499 454.033 268.076 454.55 269.62C456.474 275.856 459.322 281.769 463 287.16C466.677 292.546 471.048 297.425 476 301.67C480.941 305.957 486.341 309.687 492.1 312.79C497.794 315.963 503.875 318.386 510.19 320C513.307 320.763 516.487 321.245 519.69 321.44C522.886 321.608 526.09 321.471 529.26 321.03C535.631 320.094 541.777 317.996 547.39 314.84C553.045 311.766 558.015 307.574 562 302.52C565.977 297.424 568.907 291.592 570.62 285.36C572.323 278.987 573.369 272.456 573.74 265.87C574.179 259.26 573.911 252.623 572.94 246.07C572.445 242.796 571.743 239.556 570.84 236.37C569.906 233.183 568.75 230.065 567.38 227.04C564.58 220.957 560.803 215.373 556.2 210.51C561.248 215.041 565.453 220.431 568.62 226.43C570.212 229.438 571.573 232.564 572.69 235.78C573.787 239.01 574.675 242.306 575.35 245.65C576.638 252.353 577.191 259.177 577 266C576.863 272.854 575.988 279.673 574.39 286.34C572.745 293.166 569.705 299.577 565.46 305.17C561.203 310.801 555.844 315.507 549.71 319C540.541 324.344 530.02 326.917 519.42 326.41C515.914 326.221 512.433 325.712 509.02 324.89C502.305 323.137 495.844 320.521 489.8 317.11C483.727 313.811 478.053 309.825 472.89 305.23C467.7 300.641 463.14 295.386 459.33 289.6C455.521 283.792 452.658 277.416 450.85 270.71C450.355 269.053 449.964 267.366 449.68 265.66C449.42 263.96 449.07 262.26 448.87 260.55C448.67 258.84 448.52 257.12 448.51 255.4L448.44 252.82L448.51 250.25C448.715 243.395 449.849 236.6 451.88 230.05C453.899 223.508 456.98 217.342 461 211.8C463.012 209.062 465.293 206.533 467.81 204.25C468.442 203.671 469.11 203.134 469.81 202.64L471.81 201.08C473.15 200.12 474.6 199.26 476 198.36Z" fill="#6360A7"/>
<path id="Vector_51" d="M605.251 275.217C628.722 270.193 643.301 245.339 637.814 219.703C632.328 194.066 608.853 177.356 585.382 182.379C561.911 187.402 547.332 212.257 552.819 237.893C558.306 263.529 581.78 280.24 605.251 275.217Z" fill="#D8DFE2"/>
<path id="Vector_52" d="M601.333 275.948C625.14 272.898 641.74 249.345 638.409 223.34C635.077 197.336 613.077 178.727 589.269 181.777C565.461 184.827 548.862 208.38 552.193 234.385C555.524 260.389 577.525 278.997 601.333 275.948Z" stroke="#6360A7" stroke-width="5" stroke-linecap="round" stroke-linejoin="round"/>
<path id="Vector_53" d="M552.21 234.35C550.494 221.785 553.67 209.041 561.08 198.75C556.718 207.644 555.09 217.631 556.4 227.45C559.73 253.45 581.73 272.07 605.54 269.02C611.152 268.262 616.55 266.363 621.4 263.439C626.25 260.515 630.449 256.629 633.74 252.02C627.42 264.81 615.74 274.1 601.35 275.94C577.54 279 555.54 260.36 552.21 234.35Z" fill="#6360A7"/>
<path id="Vector_54" opacity="0.6" d="M527.081 230.695C527.114 221.278 513.441 213.597 496.541 213.538C479.641 213.479 465.915 221.064 465.882 230.481C465.849 239.897 479.522 247.579 496.422 247.638C513.322 247.697 527.049 240.111 527.081 230.695Z" fill="#EF7DAC"/>
<path id="Vector_55" d="M399.42 282.58C399.8 285.32 400.33 288.27 401.08 291.39C402.242 296.255 403.807 301.015 405.76 305.62" stroke="#6360A7" stroke-width="7" stroke-linecap="round" stroke-linejoin="round"/>
<path id="Vector_56" d="M654.93 321.46L648.87 318.15C640.976 325.767 632.019 332.201 622.28 337.25C588.28 354.83 554.58 349.97 541.16 347.25C552.994 354.87 566.614 359.266 580.67 360C624.13 361.85 652 325.42 654.93 321.46Z" fill="#6360A7"/>
<path id="Vector_57" d="M602 211.14C598.65 211.21 596.55 215.78 594.23 220.83C592.48 224.62 589.3 231.57 590.78 235.08C591.861 235.609 592.969 236.079 594.1 236.49C597.95 236.045 601.768 235.354 605.53 234.42C612.8 232.81 614.33 232.21 614.93 230.58C615.87 228.04 613.85 224.89 610.93 220.24C607.39 214.77 605 211.08 602 211.14Z" fill="#9B3B62"/>
<path id="Vector_58" opacity="0.8" d="M605.53 234.42C607.854 233.964 610.149 233.366 612.4 232.63L612.72 232.46C611.88 230.89 608.78 225.53 602.51 223.36C600.426 222.643 598.219 222.351 596.02 222.5C596.02 222.5 595.6 222.5 593.26 222.98C591.54 226.86 589.54 232.16 590.78 235.08C591.861 235.609 592.969 236.079 594.1 236.49C597.95 236.045 601.768 235.354 605.53 234.42Z" fill="#E26A9B"/>
<path id="Vector_59" d="M615.72 230.88C615.542 231.392 615.243 231.855 614.85 232.23C614.48 232.558 614.066 232.834 613.62 233.05C612.833 233.426 612.017 233.737 611.18 233.98C609.58 234.48 607.98 234.91 606.4 235.35C603.22 236.24 600.07 237.16 596.78 237.93C595.94 238.12 595.12 238.3 594.21 238.43C593.73 238.501 593.245 238.545 592.76 238.56C592.009 238.597 591.261 238.439 590.59 238.1C590.343 237.967 590.114 237.802 589.91 237.61C589.765 237.474 589.631 237.327 589.51 237.17C589.31 236.9 589.11 236.62 588.92 236.33C588.633 235.783 588.418 235.201 588.28 234.6C588.043 233.567 587.969 232.505 588.06 231.45C588.229 229.628 588.612 227.832 589.2 226.1C589.743 224.475 590.371 222.879 591.08 221.32C591.78 219.79 592.46 218.32 593.24 216.81C594.04 215.196 595.002 213.669 596.11 212.25C596.761 211.415 597.541 210.689 598.42 210.1C599.469 209.367 600.721 208.982 602 209C603.225 209.051 604.404 209.477 605.38 210.22C606.168 210.815 606.868 211.519 607.46 212.31C608.489 213.692 609.417 215.146 610.24 216.66L612.66 220.98C613.47 222.42 614.31 223.86 615.02 225.43C615.393 226.237 615.677 227.082 615.87 227.95C616.099 228.921 616.047 229.937 615.72 230.88ZM614.13 230.29C614.56 229.1 614.13 227.62 613.38 226.29C612.619 224.88 611.764 223.524 610.82 222.23C609.028 219.57 607.022 217.061 604.82 214.73C604.355 214.267 603.826 213.873 603.25 213.56C602.875 213.344 602.439 213.257 602.01 213.31C601.633 213.386 601.285 213.57 601.01 213.84C600.591 214.248 600.222 214.705 599.91 215.2C598.412 217.901 597.076 220.689 595.91 223.55C594.575 226.258 593.542 229.105 592.83 232.04C592.717 232.612 592.676 233.197 592.71 233.78C592.724 233.982 592.754 234.182 592.8 234.38C592.84 234.438 592.87 234.502 592.89 234.57C592.831 234.521 592.767 234.477 592.7 234.44C592.41 234.34 592.7 234.44 592.92 234.51C593.252 234.547 593.586 234.567 593.92 234.57C594.65 234.57 595.45 234.57 596.24 234.47C599.43 234.23 602.69 233.76 605.91 233.22C607.51 232.94 609.12 232.64 610.67 232.22C612.22 231.8 613.83 231.35 614.13 230.29Z" fill="#6360A7"/>
</g>
<g id="Layer 48">
<path id="Vector_60" d="M471.06 362.81C477.06 372.98 490.35 374.17 491.56 374.26C495.844 374.55 500.138 373.866 504.12 372.26L512.64 368.45C514.18 371.24 515.83 372.22 517.12 372.54C522.91 373.97 531.35 364.76 533.12 355.54C535.44 343.76 526.43 334.42 525.34 333.32C557.76 312.45 565.34 304.61 564.12 302.11C562.9 299.61 551.32 301.11 511.92 316.02C512.28 310.81 512.28 299.74 505.35 292.07C504.02 290.59 502.23 288.66 500.35 288.97C496.58 289.59 496.49 298.11 493.67 306.48C487.92 323.54 476.72 322.35 470.97 339.01C469.37 343.71 465.84 354 471.06 362.81Z" fill="#A5A0D8"/>
<path id="Vector_61" d="M471.06 362.81C477.06 372.98 490.35 374.17 491.56 374.26C495.844 374.55 500.138 373.866 504.12 372.26L512.64 368.45C514.18 371.24 515.83 372.22 517.12 372.54C522.91 373.97 531.35 364.76 533.12 355.54C535.44 343.76 526.43 334.42 525.34 333.32C552.76 315.64 565.687 305.237 564.12 302.11C562.433 298.777 543.923 303.873 508.59 317.4C509.5 313.84 512.59 300.4 505.35 292.07C504.35 290.87 502.35 288.64 500.35 288.97C496.58 289.59 496.49 298.11 493.67 306.48C487.92 323.54 476.72 322.35 470.97 339.01C469.37 343.71 465.84 354 471.06 362.81Z" stroke="#6360A7" stroke-width="4.52" stroke-linecap="round" stroke-linejoin="round"/>
<path id="Vector_62" d="M511.97 316.05L498.58 320.28" stroke="#6360A7" stroke-width="4.52" stroke-linecap="round" stroke-linejoin="round"/>
<path id="Vector_63" d="M512.64 368.48L524.15 359.44" stroke="#6360A7" stroke-width="4.52" stroke-linecap="round" stroke-linejoin="round"/>
<path id="Vector_64" d="M419.67 352.43C449.17 344.1 479.67 350.43 495.93 368.55C520.73 396.21 507.18 446.91 477.86 468.94C441.98 495.94 390.66 474.02 376.52 468C362.19 461.89 310.28 440.49 303.36 397.38C296.65 355.65 333.8 304.72 397.64 286.14C398.352 294.705 400.376 303.11 403.64 311.06C403.759 311.738 404.06 312.371 404.511 312.89C404.962 313.41 405.546 313.797 406.2 314.01C407.104 314.257 408.069 314.154 408.9 313.72L419.67 352.43Z" fill="#E1E1EA"/>
<path id="Vector_65" d="M396 368.47C430.37 350.25 470.63 360.08 489.62 384.47C507.93 408.02 500.94 438.06 500.12 441.34C511.96 417.47 513.12 387.7 495.93 368.51C479.67 350.38 449.17 344.06 419.67 352.39L396 368.47Z" fill="white"/>
<path id="Vector_66" d="M397.64 286.14C333.8 304.72 296.64 355.65 303.36 397.38C310.28 440.49 362.19 461.89 376.52 468C390.66 474 441.98 495.9 477.86 468.94C505.62 448.08 521.86 398.18 495.93 368.55C473.98 343.55 428.21 340.18 396 368.47" stroke="#6360A7" stroke-width="7" stroke-linecap="round" stroke-linejoin="round"/>
</g>
</g>
</svg>
