<?xml version="1.0" encoding="utf-8"?>
<!-- Generator: Adobe Illustrator 27.3.1, SVG Export Plug-In . SVG Version: 6.00 Build 0)  -->
<svg version="1.1" id="Layer_1" xmlns="http://www.w3.org/2000/svg" xmlns:xlink="http://www.w3.org/1999/xlink" x="0px" y="0px"
	 viewBox="0 0 1007 1024" style="enable-background:new 0 0 1007 1024;" xml:space="preserve">
<style type="text/css">

  @keyframes wobble {
    0% { transform: translateY(0); }
    100% { transform: translateY(-40px); }
  }
  @keyframes bob {
    from { transform: translateY(60px); }
    to { transform: translateY(20px); }
  }
  #Teri {
    transform-origin: 300px 700px;
    animation: 3s ease-in-out infinite alternate wobble;
  }
  #BGDots * {
    transform: translateY(60px);
    animation: 3s ease-in-out infinite alternate bob;
  }
  #BGDots :nth-child(1) { animation-delay: 1s; }
  #BGDots :nth-child(2) { animation-delay: 0.7s; }
  #BGDots :nth-child(3) { animation-delay: 0.5s; }
  #BGDots :nth-child(4) { animation-delay: 0.2s; }
  #BGDots :nth-child(5) { animation-delay: 1.2s; }
  @media (prefers-reduced-motion) { g { animation: none; }}
	.st0{opacity:0.5;fill:#9D97B7;enable-background:new    ;}
	.st1{opacity:0.5;fill:#D8DFE2;enable-background:new    ;}
	.st2{fill:#E1E1EA;}
	.st3{opacity:0.1;}
	.st4{fill:#18187C;}
	.st5{fill:#6360A7;}
	.st6{fill:none;stroke:#6360A7;stroke-width:7;stroke-linecap:round;stroke-linejoin:round;}
	.st7{fill:#FFFFFF;}
	.st8{fill:none;stroke:#6360A7;stroke-width:6.85;stroke-linecap:round;stroke-linejoin:round;}
	.st9{fill:#B4B3E5;}
	.st10{fill:#DADAF7;}
	.st11{opacity:0.6;fill:#EF7DAC;enable-background:new    ;}
	.st12{fill:#1A325A;}
	.st13{fill:#D8DFE2;}
	.st14{fill:none;stroke:#6360A7;stroke-width:5;stroke-linecap:round;stroke-linejoin:round;}
	.st15{fill:#A5A0D8;}
	.st16{fill:none;stroke:#6360A7;stroke-width:4.23;stroke-linecap:round;stroke-linejoin:round;}
	.st17{fill:#FCB631;}
	.st18{fill:#D8DFE1;}
	.st19{fill:#193159;}
	.st20{fill:#0C1E3A;}
	.st21{opacity:0.3;}
	.st22{opacity:0.5;fill:none;stroke:#000000;stroke-width:6;stroke-miterlimit:10;enable-background:new    ;}
</style>
<path class="st0" d="M518.3,1000.7c197.2,0,357.1-10.3,357.1-23s-159.9-23-357.1-23s-357.1,10.3-357.1,23S321,1000.7,518.3,1000.7z"
	/>
<g id="BGDots">
<path class="st1" d="M177.8,788.6c32.5,0,58.9-26.4,58.9-58.9c0-32.5-26.4-58.9-58.9-58.9s-58.9,26.4-58.9,58.9
	C118.9,762.2,145.3,788.6,177.8,788.6z"/>
<path class="st1" d="M711.6,247.6c22.8,0,41.3-18.5,41.3-41.3S734.4,165,711.6,165c-22.8,0-41.3,18.5-41.3,41.3
	S688.8,247.6,711.6,247.6z"/>
<path class="st1" d="M273.3,600.5c12.4,0,22.5-10.1,22.5-22.5s-10.1-22.5-22.5-22.5c-12.4,0-22.4,10.1-22.4,22.5
	S260.9,600.5,273.3,600.5z"/>
<path class="st1" d="M903.4,393.7c12.4,0,22.5-10.1,22.5-22.4c0-12.4-10.1-22.5-22.5-22.5S881,358.9,881,371.3
	C881,383.7,891,393.7,903.4,393.7z"/>
<path class="st1" d="M620.9,37.6c8,0,14.5-6.5,14.5-14.5c0-8-6.5-14.5-14.5-14.5s-14.5,6.5-14.5,14.5
	C606.4,31.1,612.9,37.6,620.9,37.6z"/>
</g>


<g id="Teri">
<path class="st2" d="M742.2,541.3c-2-7.5-3.9-13.4-5.1-17.1c3.7-10,6-20.4,7-31c3.5-39.4-14-69.8-34-104.8
	c-14.2-24.9-28.5-41.7-41.4-54.2c-3.6-3.5-6.7-6.3-8.8-8.2c-4-20.3-13.2-39.2-26.6-54.9c-24.2-28.1-54.3-36.3-64.9-38.7
	c-45.8-51-118.5-64.3-173.6-34.6c-44.2,23.8-71.6,72.3-71.7,125.2c-2.1,6.1-4,12.5-5.6,19.2c-11.4,47.4-3.5,90.3,6,120.3l22.2,46.8
	c-15.7,36.5-27.4,74.6-34.9,113.5c-4.3,22.6-6.6,34.7-6.4,52.4c0.7,58.2,26.8,99.5,34.7,111.2c13.7,20.2,27.7,32.8,36.6,40.7
	c15.8,14,39.9,35.4,77.6,45.8c35.9,9.9,67.3,5.2,85.8,0.7c6.1-1.4,15.8-3.6,30.6-6.3l1-0.2c5.5-1,22.5-4.8,45.2-18.1
	c36.5-21.3,61.2-49.5,78.6-74.8C699.1,767.9,778.1,678.1,742.2,541.3z"/>
<g class="st3">
	<path class="st4" d="M694.6,774.5c4.5-6.6,83.5-96.4,47.6-233.2c-1.9-7.3-3.8-13.1-5-16.8c-1,1.3-2.1,2.6-3.3,3.8
		c-6.8,6.8-18.9,9.8-42.8,15.5c-26.2,6.2-39.3,9.1-51,8.2c-38.3-2.7-57.4-33.1-65.3-26.8c-5.3,4.2-0.9,20.9,6.8,32
		c17.1,24.8,56.7,30.6,60,31c11.2,1.5,19.4,1.7,20.5,5.6c0.8,3-2.8,7.9-22.7,19.3c-25,14.4-41.8,24-67.6,29.1
		c-13.3,2.6-21.2,2.5-70.3-0.6c-81.8-5.1-106.2-7.6-107.5-16.2c-1.1-7.2,14.7-12.7,13.3-17.8c-2.5-8.7-47.3-3.9-94.3,3.5
		c-0.9,4.1-1.7,8-2.4,11.7c-4.3,22.6-6.6,34.7-6.4,52.4c0.7,58.2,26.8,99.5,34.7,111.2c13.7,20.2,27.7,32.8,36.6,40.7
		c15.8,14,39.9,35.4,77.6,45.8c35.9,9.9,67.3,5.2,85.8,0.7l1.2-0.3c3.5-0.8,13-3,29.4-6l1-0.2c5.5-1,22.5-4.9,45.2-18.1
		C652.5,828,677.2,799.8,694.6,774.5z"/>
</g>
<g class="st3">
	<path class="st4" d="M529.7,433.8c25.7,11.6,52.5,2,70.5-4.5c46.1-16.5,53.4-42.5,78.2-38.2c18.1,3.1,31.4,20,43.6,35.5
		c8.6,10.9,15.5,23,20.6,35.9c-4.8-25.8-18-48.7-32.5-74.1c-14.2-24.9-28.5-41.7-41.4-54.2c-3.6-3.5-6.7-6.3-8.9-8.2
		c-4.4-22-14.8-42.4-30.1-58.9c-15.2-16.5-34.7-28.5-56.3-34.6c7.1,18.1,8,37.9,2.6,56.6c5.9,1.4,28,7.2,42.7,28.4
		c3.9,5.7,10.8,17.4,11.8,32.7c2.5,37.9-32.9,63-35.3,64.6c5.6-3,12.4-6.5,20-10.4c-6.3,3.9-12.9,7.4-19.7,10.4
		c-19.2,8.7-33.7,15.3-51.8,12.9c-28.6-3.9-46-27.6-50.9-34.7C498.3,405.2,509.2,424.6,529.7,433.8z"/>
</g>
<path class="st5" d="M324.8,331.2c9.8,2.6,20,5.1,30.4,7.4c30,6.7,60.3,11.7,90.8,15c-10.8,9.1-23.7,15.2-37.5,17.8
	c-31.6,5.5-67.8-9-81.1-34.5C326.4,335.1,325.6,333.2,324.8,331.2z"/>
<path class="st6" d="M742.2,541.3c-2-7.5-3.9-13.4-5.1-17.1c3.7-10,6-20.4,7-31c3.5-39.4-14-69.8-34-104.8
	c-14.2-24.9-28.5-41.7-41.4-54.2c-3.6-3.5-6.7-6.3-8.8-8.2c-4-20.3-13.2-39.2-26.6-54.9c-24.2-28.1-54.3-36.3-64.9-38.7
	c-45.8-51-118.5-64.3-173.6-34.6c-44.2,23.8-71.6,72.3-71.7,125.2c-2.1,6.1-4,12.5-5.6,19.2c-11.4,47.4-3.5,90.3,6,120.3l22.2,46.8
	c-15.7,36.5-27.4,74.6-34.9,113.5c-4.3,22.6-6.6,34.7-6.4,52.4c0.7,58.2,26.8,99.5,34.7,111.2c10.4,15.1,22.7,28.8,36.6,40.7
	c11.5,10,35.6,30.5,72.5,42.1c52.9,16.6,98.9,4.4,121.5-1.9c12.3-3.4,27.9-7.9,46.3-18.3c36.4-20.7,61.9-50.4,78.6-74.8
	C699.1,767.9,778.1,678.1,742.2,541.3z"/>
<path class="st2" d="M321.7,342.4c-5.2,14-12.3,22.1-17.9,27c-6.1,5.3-10,6.5-17.6,13.3s-11.9,13.4-15.8,19.3
	c-10.9,16.8-16.4,34.2-19.2,46.8c1.4,4.4,10.6,32.5,40.2,45.7c31.9,14.3,61.9-1.1,68.8-4.6c14.1-7.2,27.7-14.1,30.9-27.2
	c5.5-22.5-25.4-38.8-58.5-98.8C327.8,354.9,324.1,347.4,321.7,342.4z"/>
<path class="st6" d="M322.6,331.2c-1.1,3.4-2.8,8.3-5.1,13.9c-4.4,10.3-7.5,17.6-13.6,24.3c-6.4,7-8.7,5.4-17.6,13.3
	c-7.6,6.8-11.9,13.4-15.8,19.4c-7.1,11-12.5,23-16.3,35.6c-2.4,7.8-1.6,16.3,2.3,23.5c5.6,10.5,16.2,25,35,33.4
	c29.1,13,57.6,0.9,66.8-3.6c1-0.5,1.9-0.9,2-1c12.4-6.5,23-15.8,30.9-27.2"/>
<path class="st2" d="M373.3,511.5c-7.5-2.2-33.6-8.9-60.9,4.2c-10.9,5.3-20.5,12.9-28.2,22.3c-1.6,1.9-17.6,21-11.3,44.1
	c6.4,23.7,30.7,31.9,35.7,33.6c3.4,1.2,12.4,1.8,30.3,2.9c30.4,2,37.6,1.2,44.6-0.4c11.9-2.8,18.8-4.5,23.9-10.5
	c17.5-20.6-9-65.8-10.9-68.9C390.3,528.5,382.4,519.3,373.3,511.5z"/>
<path class="st7" d="M285.8,551.1c4.4-5.1,9.3-9.8,14.7-13.8c2.5-1.9,4.8-3.4,6.8-4.7c0,0,3.1-2,6.6-3.8c5.2-2.7,28-9.3,59.9-15.3
	c-8.2-2.4-16.7-3.6-25.2-3.5c-12,0.1-23.9,2.8-34.7,8c-6.6,3.1-17.5,9.9-28.2,22.3c-1.5,1.7-15.1,18-12.4,38.6
	C275.3,563.6,284.6,552.5,285.8,551.1z"/>
<path class="st6" d="M373.3,511.5c-7.5-2.2-33.6-8.9-60.9,4.2c-10.9,5.3-20.5,12.9-28.2,22.3c-1.6,1.9-17.6,21-11.3,44.1
	c6.4,23.7,30.7,31.9,35.7,33.6c3.4,1.2,12.4,1.8,30.3,2.9c30.4,2,37.6,1.2,44.6-0.4c11.9-2.8,18.8-4.5,23.9-10.5"/>
<path class="st6" d="M660.2,326.2c1.2,13.7-1,27.5-6.4,40.1c-10.8,24.5-30.8,35.8-43.2,42.8c-16,9-50.6,28.5-84.2,13.2
	c-4.2-1.9-24.4-11.7-33.7-34.6c-10.3-25.5-2.7-56.8,19.6-79.6"/>
<path class="st2" d="M575.6,235.5c-6.9-19-18.8-65.4-53.4-91.6c-9.4-7.1-19.6-13.1-30.5-17.9c-73.5-21.9-147.8-13.5-175.2,26.1
	c-10.7,15.5-11.4,45-13.7,58.8c-9.4,55.5,8.2,101.2,18.2,122.6c17,11.2,30.6,20.1,50.5,24.9c31.3,7.5,58.2,0.2,72.6-5
	c25.3-34.5,55.7-65.1,90-90.7C547.4,252.8,561.3,243.7,575.6,235.5z"/>
<path class="st6" d="M575.6,235.5c-6.9-19-18.8-65.4-53.4-91.6c-9.4-7.1-19.6-13.1-30.5-17.9c-73.5-21.9-147.8-13.5-175.2,26.1
	c-5.6,8.1-10.2,31.7-13.7,58.8c-3,23.3-4.8,67,16.8,122.6"/>
<path class="st2" d="M394.5,691.3c-24.2-13.4-39.8-22.1-60.9-21.6c-2.5,0.1-39.1,1.4-50.2,24c-2.8,5.7-2.7,13.2-2.4,28.2
	c0.2,16,0.5,28.8,5,44.8c4.7,16.6,12.8,32,23.7,45.3c18.3,21.8,39.6,30.5,65.7,41.2c5.8,2.4,11.2,4.4,16.4,6.1
	c12.2,4,24.7,7.4,37.3,9.9c43,8.5,83.5,5,87.9,4.5c18.8-1.9,37.4-5.3,55.6-10.3c3.9-1,7.1-2,9.4-2.7c-15.4-17.1-28.4-31-37.6-40.7
	c-53.4-56-87.2-84.7-112.1-103.8C420.4,707,407.7,698.6,394.5,691.3z"/>
<g class="st3">
	<path class="st4" d="M433.3,870c41.4,7.5,79.5,4.2,83.8,3.8c18.8-1.9,37.4-5.3,55.6-10.3c3.9-1,7.1-2,9.4-2.7l-98.1-66.5
		c-3,9.2-7.9,17.7-14.4,25c-19.7,21.8-47,23.5-52.1,23.8c-15,0.9-27.7-2.8-38.8-6c-4.6-1.3-11-3.6-19.8-7.3
		c-24.2-9.9-44.4-18.2-61.8-36.8l1,1.8l0.1,0.2l0.9,1.5l0.1,0.2c0.3,0.5,0.6,1,0.9,1.5c0,0,0,0.1,0.1,0.1c1.3,2.2,2.6,4.1,3.8,5.8
		l0.1,0.1c0.3,0.4,0.5,0.7,0.8,1.1l0.1,0.2c0.3,0.3,0.5,0.7,0.8,1l0.1,0.1c0.8,1.1,1.5,2,2.1,2.8l0.1,0.2l0.4,0.6l0.2,0.2l0.4,0.5
		l0.1,0.2l0.3,0.4l0.1,0.1l0.4,0.4c6.9,8.2,14.9,15.3,23.9,21.1c12.5,8.1,26.3,13.8,41.8,20.1h0.1c1.3,0.5,2.5,1,3.8,1.5l0.7,0.3
		l3.7,1.4l0.5,0.2c2.7,1,5.2,1.9,7.8,2.8c12.2,4,24.7,7.4,37.3,9.9c1.3,0.3,2.6,0.5,3.9,0.7L433.3,870z"/>
</g>
<path class="st7" d="M287,769.8c0.3,0-3.2-15.1-3.3-37.9c0-15.3,0-23.5,2.4-28.2c13.7-26.8,132.4,8.4,146.2,12.6
	c-4.8-3.7-11.8-8.7-20.4-14.2c-30.5-19.5-51.8-33.6-78.3-32.4c-4.3,0.2-39.3,2.2-50.2,24c-2.9,5.8-2.8,13.3-2.4,28.2
	C281.6,749.2,286.6,769.9,287,769.8z"/>
<path class="st5" d="M430.1,719c-9.3-7.8-19.2-14.9-29.6-21.2c-5.1-3.1-10.6-6.1-15.9-9.1c-5.3-3-10.7-5.8-16.2-8.3
	c-5.4-2.5-11-4.5-16.8-5.9c-5.7-1.3-11.6-1.9-17.5-1.8c-5.9,0.2-11.9,1-17.6,2.4c-5.7,1.3-11.3,3.3-16.5,6.1
	c-5,2.6-9.3,6.5-12.5,11.2c-0.4,0.6-0.7,1.2-1,1.8c-0.3,0.6-0.6,1.2-0.9,1.8c-0.5,1.2-0.9,2.5-1.1,3.9c-0.5,2.9-0.7,5.8-0.7,8.7
	c-0.1,6,0,12.2,0.1,18.3c0.1,6.1,0.3,12.2,0.9,18.2c0.5,6,1.5,11.9,3,17.8c1.5,5.8,3.4,11.5,5.8,17.1c4.6,11.1,10.9,21.5,18.6,30.8
	c7.8,9.2,17.1,17,27.5,23c10.4,6.2,21.7,10.9,33,15.6c11.2,4.8,22.8,8.9,34.5,12.2c5.9,1.7,11.8,3.2,17.8,4.4c3,0.7,6,1.2,9,1.8
	s6,1.1,9,1.6c12.1,2,24.3,3.3,36.5,4.2c6.1,0.4,12.2,0.7,18.3,0.9c3.1,0.1,6.1,0.1,9.2,0.1l9.2-0.1c24.5-0.6,48.6-5.3,71.5-14.1
	c0.4-0.1,0.8-0.1,1.2,0c0.4,0.2,0.7,0.5,0.8,0.9c0.1,0.4,0.1,0.8,0,1.2c-0.2,0.4-0.5,0.7-0.9,0.8c-23.1,9.1-47.7,14.1-72.5,14.8
	l-9.2,0.2c-3.1,0-6.2,0-9.3,0c-6.2-0.1-12.4-0.4-18.5-0.8c-12.3-0.8-24.6-2.1-36.9-4c-3-0.5-6.1-1-9.1-1.5c-3-0.6-6.1-1.1-9.1-1.7
	c-6-1.2-12-2.7-18-4.3c-11.9-3.3-23.6-7.4-35-12.2c-11.4-4.7-22.9-9.4-33.7-15.7c-10.9-6.3-20.7-14.3-28.9-23.9
	c-8.1-9.6-14.7-20.4-19.6-32c-2.5-5.8-4.5-11.7-6.1-17.8c-1.6-6.1-2.7-12.3-3.3-18.6c-0.6-6.2-0.9-12.5-1-18.6
	c-0.1-6.2-0.3-12.3-0.2-18.6c0-3.2,0.2-6.5,0.7-9.7c0.3-1.7,0.8-3.4,1.4-5c0.3-0.8,0.7-1.6,1.1-2.4c0.4-0.8,0.8-1.5,1.3-2.2
	c3.7-5.6,8.7-10.1,14.6-13.3c5.7-3.1,11.7-5.4,18-6.8c3.1-0.8,6.2-1.3,9.3-1.8c3.1-0.5,6.3-0.8,9.5-0.9c6.4-0.2,12.9,0.4,19.1,1.8
	c6.2,1.5,12.2,3.5,18,6.2c5.8,2.6,11.3,5.4,16.7,8.4s10.8,5.9,16.2,9.1c10.7,6.5,20.8,13.7,30.5,21.6c0.4,0.3,0.7,0.6,0.9,1.1
	s0.4,0.8,0.4,1.3c0,0.5,0,0.9-0.1,1.4c-0.1,0.4-0.3,0.9-0.6,1.2s-0.6,0.7-1.1,0.9c-0.4,0.2-0.8,0.4-1.3,0.4c-0.5,0-0.9,0-1.4-0.1
	C430.9,719.6,430.5,719.3,430.1,719L430.1,719z"/>
<path class="st2" d="M505.4,827.4c-1.6-1.4-3-2.8-3-2.8c-5.1-5.4-11.3-15.3-23.8-45.7c-16.2-39.7-24.3-59.9-22.6-78.4
	c0.8-8.4,2.8-27.3,17.1-42.9c19.8-21.5,49.9-19.4,59.8-18.8c18.3,1.1,31.9,7.6,59.1,20.7c21.7,10.4,32.4,15.7,42.5,24.1
	c2.3,1.9,55.1,46.8,42.8,95.7c-4.7,18.8-17.1,30.4-30.5,43.1c-18.8,17.5-41.5,30.3-66.3,37.3C558.5,854.3,523.8,844.1,505.4,827.4z"
	/>
<g class="st3">
	<path class="st4" d="M646.8,822.3c13.4-12.7,25.8-24.3,30.5-43.1c7-27.7-6.9-54-20.6-72.1l-0.6-0.6c0.1,1.4,0.2,3.3,0.2,5.5
		c-0.3,38.8-34.4,91-86.9,97.1c-36.9,4.3-69.8-15.7-86.3-36c-10.1-12.4-16.5-28-17.6-27.4c3.5,9.4,7.9,20.2,13.2,33.1
		c2.9,7.1,5.4,13,7.7,18.1c7.5,16.7,12.1,23.5,16,27.6l0.4,0.4c0.5,0.5,1.5,1.5,2.5,2.4c18.4,16.7,53.1,26.9,75.1,32.2
		C605.2,852.6,628,839.8,646.8,822.3z"/>
</g>
<path class="st7" d="M620.7,678.6c-10-9.5-43.3-38.8-87.8-39.9c-12.8-0.3-41.4-1.2-59.8,18.8c-3.2,3.5-5.9,7.3-8.2,11.5
	c20-6,40.7-9.1,61.6-9.3C567.3,659.3,600.5,670.1,620.7,678.6z"/>
<path class="st8" d="M554.3,852.8c-17.8-3.8-37.3-11.8-51.9-28.3c-6.9-7.8-13.3-20.1-23.7-45.7c-16.2-39.7-24.3-59.9-22.6-78.4
	c0.8-8.4,2.8-27.3,17.1-42.9c19.8-21.5,49.9-19.4,59.8-18.8c18.9,1.2,32.4,7.7,59.1,20.7c14.7,7.1,28.9,15.1,42.5,24.1"/>
<path class="st5" d="M348.9,219.6c8.6,15.4,17.6,37.9,16.5,64.8c-0.6,13-1.4,26.3-11.6,36.6c-8.6,8.6-23.5,14.8-36.2,10.3
	c-14.8-5.3-19.3-22.6-24.1-41.1c-3.5-13.5-12.6-48.2,6.2-68.8c2.3-2.5,8.7-9.4,19.2-11.2C334.5,207.4,346.8,217.8,348.9,219.6z"/>
<path class="st9" d="M342.3,216.1c8.6,15.4,17.6,37.9,16.5,64.8c-0.6,13-1.4,26.3-11.6,36.6c-8.6,8.6-23.5,14.8-36.2,10.3
	c-14.8-5.3-19.3-22.6-24.1-41.1c-3.5-13.5-12.5-48.2,6.3-68.8c2.3-2.5,8.7-9.3,19.2-11.2C327.9,203.9,340.2,214.3,342.3,216.1z"/>
<path class="st10" d="M289.1,292.7c-3.5-13.5-12.5-48.2,6.2-68.8c2.3-2.5,8.7-9.4,19.2-11.2c15.6-2.8,27.9,7.6,30,9.4
	c3,5.3,5.6,10.9,7.9,16.5c-2.7-7.8-6.1-15.4-10.1-22.6c-2.1-1.8-14.4-12.2-30-9.4c-10.4,1.9-16.9,8.7-19.2,11.2
	c-18.8,20.5-9.8,55.2-6.3,68.8c2,7.8,4,15.3,6.7,21.9C291.9,303.6,290.5,298.2,289.1,292.7z"/>
<path class="st11" d="M312.3,258.3c16.8-1.7,29.7-10.6,28.8-20c-0.9-9.4-15.3-15.6-32.1-14c-16.8,1.7-29.7,10.6-28.8,20
	S295.5,259.9,312.3,258.3z"/>
<path class="st5" d="M347.1,317.5c-1.5,1.7-3.2,3.2-5,4.6c-1.8,1.4-3.7,2.7-5.7,3.8c-4.1,2.3-8.5,3.8-13.1,4.5
	c-4.7,0.7-9.5,0.2-14-1.5c-4.5-1.7-8.5-4.7-11.5-8.5c-2.9-3.7-5.2-7.8-6.9-12.2c-1.7-4.3-3.1-8.6-4.4-13c-1.3-4.4-2.4-8.7-3.5-13.1
	c-1.1-4.4-2-8.9-2.8-13.4c-1.3-9.1-1.8-18.4-0.3-27.7c0.8-4.7,2.2-9.2,4.2-13.5c1-2.1,2.2-4.2,3.6-6.1c0.7-1,1.4-1.9,2.2-2.8
	c0.7-0.9,1.6-1.8,2.4-2.6c3.3-3.4,7.2-6.2,11.5-8.1c2.2-1,4.4-1.7,6.8-2.1c2.3-0.4,4.7-0.6,7-0.6c1.2,0.1,2.3,0.2,3.5,0.3
	c1.2,0.2,2.3,0.4,3.4,0.7c2.2,0.6,4.4,1.4,6.5,2.3c4.1,2,7.9,4.6,11.2,7.7c-1.8-1.4-3.7-2.6-5.6-3.7c-1.9-1.1-4-2-6.1-2.8
	c-4.1-1.6-8.5-2.3-12.9-2.2c-2.2,0.1-4.3,0.4-6.4,0.9c-2.1,0.5-4.1,1.3-6,2.3c-3.8,2-7.2,4.6-10.1,7.8c-2.9,3.2-5.3,6.8-7,10.7
	c-1.7,4-2.9,8.1-3.5,12.4c-1.2,8.7-1,17.5,0.5,26.2c0.6,4.4,1.5,8.7,2.6,13c1,4.3,2.2,8.7,3.3,13c1.1,4.3,2.4,8.5,3.9,12.7
	c1.5,4.1,3.5,7.9,6,11.5c2.5,3.4,5.8,6.1,9.6,7.9c3.9,1.7,8.2,2.4,12.5,2.1c4.4-0.3,8.7-1.4,12.7-3.2
	C340,322.9,343.8,320.4,347.1,317.5z"/>
<path class="st5" d="M410.3,221.7c8.8-17.3,24.1-26,28.6-28.6c6.9-3.8,23.7-13.3,43.3-8.9c24.9,5.5,40.1,30.3,44.2,50.9
	c6.8,33.6-15.3,58.8-21.4,65.2c-5.5,5.7-17,17.6-35.7,20.1c-3.9,0.5-21,2.3-36.6-8.5c-5.8-4-10.6-9.2-14.3-15.2
	C417.2,294.9,392.5,256.6,410.3,221.7z"/>
<path class="st9" d="M403.9,217c8.8-17.3,24.1-26.1,28.6-28.6c6.9-3.8,23.7-13.3,43.3-8.9c24.9,5.5,40,30.3,44.2,50.9
	c6.8,33.6-15.3,58.8-21.4,65.2c-5.5,5.7-17,17.6-35.7,20.1c-3.9,0.5-21,2.3-36.6-8.5c-5.8-4-10.6-9.2-14.3-15.2
	C410.7,290.3,386,252,403.9,217z"/>
<path class="st10" d="M412.9,228.7c9.3-17.4,24.1-26,28.6-28.6c6.9-3.8,23.7-13.3,43.3-8.9c9.7,2.3,18.4,7.3,25.3,14.5
	c-7.7-12.4-19.2-22.8-34.3-26.2c-19.6-4.3-36.5,5.1-43.3,8.9c-5.7,3.2-20.1,11.5-28.6,28.6c-14.7,29.4-0.6,62.2,1.6,62
	C407.4,278.8,399.6,253.8,412.9,228.7z"/>
<path class="st12" d="M301.6,207.5c-0.4-1.9,9.6-9.4,20.8-7.8c9.9,1.4,15.6,9.1,18.5,13.1c2.1,2.8,3.3,5.4,2.6,6
	c-0.8,0.8-4.6-2.6-5.9-1.6c-1,0.8,0.8,3.5,0,4.3c-1.5,1.5-8.2-7.4-18.3-9.1c-7.7-1.3-15.7,1.9-16.2,0.4c-0.2-0.7,1.5-1.6,1.2-3
	C304,208.5,301.8,208.3,301.6,207.5z"/>
<path class="st5" d="M475.8,179.5c1.6,0.4,3.3,0.7,4.9,1.2l2.4,0.8c0.8,0.2,1.6,0.5,2.4,0.9c3.1,1.3,6.1,3,8.9,4.9
	c5.6,3.9,10.5,8.8,14.5,14.3c4,5.5,7.3,11.6,9.7,18l0.9,2.4l0.8,2.5c0.5,1.6,0.9,3.3,1.3,5c0.4,1.7,0.6,3.4,0.9,5.1
	c0.3,1.7,0.5,3.4,0.5,5.2c0.5,6.9-0.2,13.9-1.9,20.6c-1.7,6.7-4.3,13.2-7.8,19.2c-3.4,6-7.5,11.6-12.1,16.7
	c-4.6,5.2-9.9,9.8-15.7,13.6c-3,1.9-6.1,3.5-9.3,4.8c-3.3,1.3-6.7,2.3-10.1,2.9c-6.9,1.3-14,1.2-20.9-0.1c-6.9-1.3-13.5-4-19.4-7.9
	c-5.8-3.9-10.8-9-14.5-14.9c-3.7-5.8-6.7-12-9.1-18.4c-2.4-6.4-4.1-13-5-19.8c-0.4-3.4-0.7-6.8-0.7-10.2c0-3.4,0.3-6.8,0.8-10.2
	c1-6.7,3.3-13.2,6.5-19.1c-2.8,6.1-4.5,12.6-5.2,19.3c-0.3,3.3-0.4,6.7-0.2,10c0.2,3.3,0.6,6.6,1.2,9.9c1.2,6.5,3.1,12.9,5.7,19
	c2.5,6.1,5.6,12,9.3,17.4c3.6,5.3,8.3,9.9,13.7,13.4c5.4,3.5,11.5,5.9,17.8,6.9c6.3,1.2,12.8,1.2,19.2,0c3.1-0.6,6.2-1.5,9.2-2.7
	c3-1.2,5.8-2.7,8.5-4.5c5.4-3.6,10.4-7.9,14.8-12.8c4.4-4.8,8.3-10.1,11.6-15.7c3.3-5.6,5.9-11.7,7.6-18c1.7-6.3,2.5-12.8,2.2-19.3
	c0-1.6-0.1-3.3-0.4-4.9c-0.2-1.6-0.4-3.2-0.7-4.9s-0.6-3.2-1.1-4.8l-0.7-2.4l-0.8-2.3c-2.1-6.3-5-12.2-8.7-17.7
	c-3.6-5.5-8.1-10.5-13.4-14.6C488.3,184.3,482.2,181.3,475.8,179.5z"/>
<path class="st13" d="M378.5,294.2c23.8-2.9,40.6-26.3,37.5-52.3c-3.1-26-25-44.8-48.8-41.9c-23.8,2.9-40.6,26.3-37.5,52.3
	C332.8,278.2,354.6,297,378.5,294.2z"/>
<path class="st14" d="M382.3,293.6c23.5-4.8,38.3-29.6,33-55.3c-5.3-25.7-28.6-42.6-52.1-37.7c-23.5,4.8-38.3,29.6-33,55.3
	S358.8,298.4,382.3,293.6z"/>
<path class="st5" d="M415.4,238.3c-2.5-12.4-9.6-23.5-19.9-30.8c7,7,11.8,15.9,13.7,25.6c5.3,25.7-9.5,50.4-33,55.3
	c-5.6,1.1-11.3,1.1-16.8-0.1c-5.5-1.2-10.8-3.5-15.4-6.8c10.1,10,24.2,15,38.4,12.1C405.9,288.7,420.6,264,415.4,238.3z"/>
<path class="st5" d="M346.5,226.7c-1.9,2.8-3,6.1-3.2,9.5c0,1.6,0.1,3.2,0.6,4.7c0.4,1.4,1.1,2.8,2,3.9c0.4,0.5,0.9,0.9,1.5,1.3
	c0.5,0.3,1,0.6,1.6,0.7c1.3,0.3,2.7,0.2,4-0.1c2.9-0.7,5.6-2.2,7.8-4.3c0.4-0.5,1-0.9,1.7-1c0.7-0.1,1.4,0.1,1.9,0.5l0.7,0.5
	c2.9,2.1,6.4,3.3,10,3.4c3.4,0,6.8-1.2,9.4-3.5c1.2-1.2,2.2-2.7,2.9-4.3c0.7-1.6,1-3.4,0.9-5.1c0-1-0.1-1.9-0.2-2.9
	c-0.1-0.5-0.2-1-0.3-1.4l-0.4-1.4c-0.7-2-1.7-3.9-2.9-5.6c-0.1-0.1-0.1-0.2-0.1-0.3c0-0.1,0-0.2,0-0.3c0-0.1,0.1-0.2,0.1-0.3
	c0.1-0.1,0.1-0.2,0.2-0.2c0.1-0.1,0.3-0.1,0.4-0.1c0.1,0,0.3,0,0.4,0.1c2.2,1.2,4.1,2.9,5.5,5c1.5,2,2.4,4.4,2.9,6.9
	c0.5,2.6,0.5,5.3-0.2,7.9c-0.7,2.7-2,5.3-3.9,7.3c-1.9,2-4.2,3.6-6.8,4.7c-2.6,1-5.3,1.5-8.1,1.4c-2.7-0.1-5.3-0.7-7.8-1.9
	c-2.4-1.1-4.6-2.8-6.4-4.8h4.3c-2.9,3.1-6.8,5.2-11,5.9c-2.3,0.4-4.6,0.2-6.8-0.5c-1.2-0.4-2.2-1-3.2-1.8c-0.9-0.7-1.7-1.6-2.3-2.6
	c-1.2-1.8-1.9-3.9-2.2-6c-0.3-2-0.2-4.1,0.2-6.1c0.4-1.9,1.1-3.8,2-5.5c1-1.7,2.1-3.2,3.5-4.5c0.1-0.2,0.3-0.3,0.5-0.3
	c0.2,0,0.4,0,0.6,0.2c0.2,0.1,0.3,0.3,0.3,0.5C346.8,226.4,346.7,226.6,346.5,226.7L346.5,226.7z"/>
<path class="st11" d="M472.4,232.8c16-5.5,26.4-17.2,23.3-26.1c-3.1-8.9-18.5-11.6-34.5-6.1c-16,5.5-26.4,17.2-23.3,26.1
	C441,235.6,456.5,238.3,472.4,232.8z"/>
<path class="st12" d="M406.1,211.3c-2.4-2.6,5-19.3,20.3-27c13.1-6.7,28.1-4.8,28.6-2.7c0.2,0.8-1.6,1.5-1.4,2.8c0.4,2,5.5,2,5.6,3
	c0.1,1.4-8.9,1.6-17.5,5.7c-9.2,4.6-17.3,11.3-23.5,19.5c-0.5,0.7-4.4,5.9-5.7,5.2c-0.9-0.4,0.2-2.8-1.2-4.6
	S407.1,212.3,406.1,211.3z"/>
<path class="st6" d="M575.5,234.3c0.5,2.7,1,5.7,1.3,8.9c0.5,5,0.5,10,0.2,15"/>
<path class="st15" d="M292.3,565.2c2.4-3.6,3.5-8.1,5.6-17c1.4-5.8,2.1-8.7,1.7-10.9c-1.3-6.9-7.6-10.9-15.5-15.8
	c-5.1-3.2-8.2-5.1-12.6-4.8c-3.6,0.3-7.1,1.8-9.8,4.2c-21.5-28.4-22.4-24.4-24.3-23.2c-2,1.2-6.2-0.2,8.3,29.5
	c-15-11-24.9-11.6-27.3-9c-1.1,1.1-5.9-5.9,8,12.4c31.9,42.4,39,45.8,45.7,45.7C279.6,576.2,288,571.6,292.3,565.2z"/>
<path class="st5" d="M262.1,521.5c-1.5,0.9-3,1.8-4.4,2.9c-1.4,1-2.6,2.2-3.7,3.6c-0.4,0.5-0.7,1.2-0.7,1.9c0,0.3,0.2,0.6,0.3,0.8
	c0.2,0.2,0.4,0.4,0.7,0.6c0.7,0.4,1.4,0.8,2.2,1c0.8,0.3,1.6,0.5,2.5,0.8c3.4,0.8,6.9,1.2,10.4,1.2c3.5,0,7.1-0.2,10.6-0.6
	c0.4,0,0.7,0,1.1,0.2c0.3,0.2,0.6,0.5,0.7,0.8c0.1,0.3,0.2,0.7,0.1,1.1c-0.1,0.4-0.3,0.7-0.6,0.9c-3.5,2.7-6,6.6-6.9,10.9
	c-0.5,2.2-0.6,4.5-0.2,6.7c0.3,2.3,1,4.5,2.1,6.5c0,0.1,0.1,0.2,0.1,0.2c0,0.1,0,0.2,0,0.3c0,0.1-0.1,0.2-0.1,0.2
	c-0.1,0.1-0.1,0.1-0.2,0.2c-0.1,0-0.2,0.1-0.2,0.1c-0.1,0-0.2,0-0.3,0c-0.1,0-0.2-0.1-0.2-0.1c-0.1-0.1-0.1-0.1-0.2-0.2
	c-1.3-2.1-2.3-4.4-2.8-6.8c-0.6-2.4-0.7-5-0.3-7.5c0.7-5.1,3.3-9.7,7.1-13.2l1.3,3.1c-3.7,0.3-7.3,0.3-11,0.1
	c-3.7-0.2-7.4-0.8-10.9-1.9c-0.9-0.3-1.8-0.6-2.6-1c-0.9-0.4-1.8-0.8-2.6-1.4c-0.5-0.3-0.9-0.8-1.2-1.2c-0.3-0.5-0.5-1.2-0.6-1.8
	c0-1.1,0.5-2.2,1.2-3.1c1.2-1.5,2.6-2.7,4.2-3.8c1.5-1,3.1-2,4.7-2.8c0.1,0,0.2-0.1,0.3-0.1c0.1,0,0.2,0,0.3,0
	c0.1,0,0.2,0.1,0.2,0.1c0.1,0.1,0.1,0.1,0.2,0.2c0.1,0.2,0.1,0.3,0.1,0.5C262.3,521.3,262.2,521.4,262.1,521.5L262.1,521.5z"/>
<path class="st5" d="M544.5,320.6c1.9-0.2,3.9-0.3,5.8-0.2c2,0,4,0.3,5.9,0.9c1.1,0.4,2.1,1.1,2.8,2.1c0.4,0.6,0.5,1.2,0.5,1.9
	c0,0.6-0.1,1.2-0.3,1.8c-0.4,1-0.9,1.9-1.5,2.8c-0.5,0.8-1.2,1.6-1.8,2.4c-2.6,3-5.5,5.7-8.7,8c-3.1,2.3-6.4,4.4-9.9,6.3l-0.6-3.5
	c5.4,0.8,10.3,3.5,13.9,7.7c1.7,2,3.1,4.3,4,6.8c0.9,2.5,1.4,5.1,1.4,7.7c0,0.2-0.1,0.3-0.2,0.5c-0.1,0.1-0.3,0.2-0.5,0.2
	c-0.2,0-0.4,0-0.5-0.2c-0.1-0.1-0.2-0.3-0.3-0.4c-0.2-2.4-0.8-4.8-1.8-7c-1-2.2-2.3-4.2-4-5.8c-3.3-3.3-7.8-5.4-12.5-5.7
	c-0.4,0-0.8-0.2-1.1-0.5c-0.3-0.3-0.5-0.6-0.6-1c-0.1-0.4,0-0.8,0.2-1.2c0.2-0.4,0.5-0.6,0.8-0.8c3.4-1.6,6.6-3.5,9.8-5.5
	c3.1-2,6-4.4,8.5-7.1c0.6-0.7,1.2-1.4,1.7-2.1c0.5-0.7,1-1.4,1.4-2.2c0.2-0.3,0.2-0.6,0.3-0.9c0-0.3,0-0.6-0.2-0.9
	c-0.4-0.6-1-1.1-1.7-1.3c-1.7-0.6-3.5-1-5.3-1.1c-1.9-0.1-3.7-0.1-5.6,0c-0.2,0-0.4,0-0.5-0.2c-0.1-0.1-0.2-0.3-0.2-0.5
	s0-0.4,0.2-0.5S544.3,320.7,544.5,320.6L544.5,320.6z"/>
<path class="st15" d="M491.3,619.1c-5.4-17.3-7.7-27.3-9.2-27c-1.5,0.3-1.1,9.2-1,13.4c0.3,8.5,1.4,17,3.3,25.2
	c-10.3-17.9-15.4-25.2-18-27.6c-0.3-0.3-0.6-0.6-1-0.8c-0.1-0.1-0.3-0.1-0.4-0.2c-0.1,0-0.3,0-0.4,0c-2.4,0.8-1.2,13.2,3.7,37.3
	c-6.4-7.4-14-13.6-22.5-18.5c-4.7-2.6-6.5-2.9-7.1-2.2c-0.4,0.4-1.2,2.2,6.7,13.3c7.3,10.2,15.6,19.7,24.9,28.2
	c2.5-3,5.3-5.7,8.4-8.2c1.4-1.1,2.7-2.1,4-3c2.6-1.6,5.2-2.9,8-4.1c2.7-1.1,5.6-2,8.4-2.6C497.2,637.1,494.4,629.1,491.3,619.1z"/>
<path class="st14" d="M491.3,619.1c-5.4-17.3-7.7-27.3-9.2-27c-1.5,0.3-1.1,9.2-1,13.4c0.3,8.5,1.4,17,3.3,25.2
	c-10.3-17.9-15.4-25.2-18-27.6c-0.3-0.3-0.6-0.6-1-0.8c-0.1-0.1-0.3-0.1-0.4-0.2c-0.1,0-0.3,0-0.4,0c-2.4,0.8-1.2,13.2,3.7,37.3
	c-6.4-7.4-14-13.6-22.5-18.5c-4.7-2.6-6.5-2.9-7.1-2.2c-0.4,0.4-1.2,2.2,6.7,13.3c7.3,10.2,15.6,19.7,24.9,28.2
	c2.5-3,5.3-5.7,8.4-8.2c1.4-1.1,2.7-2.1,4-3c2.6-1.6,5.2-2.9,8-4.1c2.7-1.1,5.6-2,8.4-2.6C497.2,637.1,494.4,629.1,491.3,619.1z"/>
<path class="st15" d="M292.8,649.2c-5.8-10.7-8-14.1-8.9-13.8c-1.3,0.4,0.6,10,3,18.3c1.7,6.1,3.9,12.1,6.4,17.9
	c-3.7-4.3-8.1-9.2-13.4-14.4c-3.5-3.3-15.9-15-18.2-13.1c-3,2.4,12.2,25.5,10.4,26.7c-0.7,0.5-3.3-3.2-9.5-7.8
	c-1.5-1.1-9.7-7.2-11.2-5.9c-1.5,1.4,4.5,9.9,8.2,15.1c6.4,9,13.4,17.6,21,25.7c1.3-3,2.9-5.9,5-8.5c7.1-9.1,16.6-12.4,21-13.6
	C303.4,669.5,298.7,660.2,292.8,649.2z"/>
<path class="st16" d="M292.8,649.2c-5.8-10.7-8-14.1-8.9-13.8c-1.3,0.4,0.6,10,3,18.3c1.7,6.1,3.9,12.1,6.4,17.9
	c-3.7-4.3-8.1-9.2-13.4-14.4c-3.5-3.3-15.9-15-18.2-13.1c-3,2.4,12.2,25.5,10.4,26.7c-0.7,0.5-3.3-3.2-9.5-7.8
	c-1.5-1.1-9.7-7.2-11.2-5.9c-1.5,1.4,4.5,9.9,8.2,15.1c6.4,9,13.4,17.6,21,25.7c1.3-3,2.9-5.9,5-8.5c7.1-9.1,16.6-12.4,21-13.6
	C303.4,669.5,298.7,660.2,292.8,649.2z"/>
<path class="st14" d="M292.3,565.2c2.4-3.6,3.5-8.1,5.6-17c1.4-5.8,2.1-8.7,1.7-10.9c-1.3-6.9-7.6-10.9-15.5-15.8
	c-5.1-3.2-8.2-5.1-12.6-4.8c-3.6,0.3-7.1,1.8-9.8,4.2c-4-5-20.6-25.5-24.3-23.2c-3.7,2.3,6.7,25,9.5,31.1
	c-12.2-6.5-26.6-13.4-28.6-10.6c-1.1,1.5,2.1,5.1,8,12.5c19.6,24.6,29.3,42.8,43,45.4c0.9,0.2,1.8,0.2,2.7,0.2
	C279.6,576.2,288,571.6,292.3,565.2z"/>
<path class="st5" d="M263,523.1c-1.5,0.8-2.9,1.7-4.3,2.6c-1.3,0.8-2.4,1.8-3.4,3c-0.2,0.3-0.4,0.6-0.5,1c0,0,0,0,0,0.1
	c0.1,0.1,0.2,0.3,0.4,0.4c0.6,0.4,1.2,0.8,1.9,1c0.7,0.3,1.5,0.6,2.3,0.8c3.3,0.9,6.7,1.5,10.1,1.6c3.5,0.2,7,0.1,10.5-0.2h0.1
	c0.5,0,1,0.1,1.4,0.5c0.4,0.3,0.6,0.8,0.7,1.3c0,0.3,0,0.7-0.2,1c-0.1,0.3-0.3,0.6-0.6,0.8c-3.5,2.6-6,6.4-6.9,10.7
	c-0.5,2.2-0.6,4.4-0.3,6.6c0.3,2.2,1,4.4,2,6.5c0.1,0.2,0.1,0.4,0,0.6c-0.1,0.2-0.2,0.3-0.4,0.4c-0.2,0.1-0.4,0.1-0.6,0.1
	c-0.2,0-0.4-0.2-0.5-0.3c-1.3-2.1-2.3-4.4-2.8-6.8c-0.6-2.5-0.7-5-0.4-7.5c0.4-2.5,1.2-4.9,2.4-7.2c1.2-2.3,2.8-4.3,4.8-6.1l1.5,3.5
	c-3.7,0.4-7.3,0.6-11,0.5c-3.8-0.1-7.5-0.6-11.2-1.5c-0.9-0.3-1.9-0.6-2.8-0.9c-1-0.4-2-0.8-2.9-1.5c-0.6-0.4-1.1-0.9-1.5-1.5
	c-0.5-0.7-0.8-1.6-0.8-2.5c0-0.8,0.1-1.6,0.4-2.3c0.2-0.6,0.6-1.1,0.9-1.7c1.2-1.6,2.7-3.1,4.4-4.3c1.5-1.1,3.2-2.2,4.8-3.1
	c0.3-0.2,0.6-0.3,0.9-0.3c0.3,0,0.7,0,1,0.1c0.3,0.1,0.6,0.2,0.9,0.5c0.3,0.2,0.5,0.5,0.6,0.8c0.2,0.3,0.3,0.6,0.3,0.9
	c0,0.3,0,0.7-0.1,1c-0.1,0.3-0.2,0.6-0.5,0.9C263.6,522.7,263.3,523,263,523.1L263,523.1z"/>
<path class="st15" d="M542.8,378.5c-4.2-1.8-7.7-5.2-14.8-11.9c-4.6-4.4-6.9-6.5-7.8-8.7c-2.8-6.9,0.5-14.1,4.7-23
	c2.7-5.7,4.4-9.2,8.5-11.6c3.4-1.8,7.3-2.5,11.2-1.9c2.8-37.7,4.1-39.2,6.5-39.2c2.5,0,7.3,0.7,11.4,35.7
	c7-18.5,13.7-29.3,17.3-28.3c1.6,0.4,3.7-4.1,1.9,20.2c-4,56.2-8.5,63.3-14.5,67C560.5,381,550.3,381.7,542.8,378.5z"/>
<path class="st14" d="M542.8,378.5c-4.2-1.8-7.7-5.2-14.8-11.9c-4.6-4.4-6.9-6.5-7.8-8.7c-2.8-6.9,0.5-14.1,4.7-23
	c2.7-5.7,4.4-9.2,8.5-11.6c3.4-1.8,7.3-2.5,11.2-1.9c0.5-10.4,2-38.9,6.5-39.2c4.5-0.3,10,28.3,11.8,38.4c6.1-15.5,13.4-32,17-31.1
	c1.7,0.4,2.1,4.5,1.9,20.2c-0.4,32.9-2.2,55.7-12.2,65.3c-0.7,0.6-1.4,1.2-2.3,1.7C560.5,381,550.3,381.7,542.8,378.5z"/>
<path class="st5" d="M544.4,319c2-0.2,4-0.2,6-0.1c2.2,0.1,4.3,0.5,6.3,1.2c0.6,0.2,1.2,0.6,1.7,0.9c0.7,0.5,1.2,1,1.6,1.7
	c0.4,0.8,0.7,1.6,0.7,2.5c0,0.7-0.2,1.5-0.4,2.2c-0.4,1-1,2-1.7,2.9c-0.6,0.8-1.2,1.6-1.9,2.4c-2.7,2.9-5.7,5.6-9,7.8
	c-3.2,2.2-6.6,4.2-10.1,6l-0.7-3.8c2.7,0.4,5.3,1.3,7.7,2.6c2.4,1.3,4.5,3,6.2,5.1c1.7,2,3.1,4.4,4,6.9c0.9,2.5,1.4,5.1,1.4,7.7
	c0,0.1,0,0.2-0.1,0.3c0,0.1-0.1,0.2-0.2,0.3c-0.1,0.1-0.2,0.1-0.3,0.2c-0.1,0-0.2,0.1-0.3,0.1c-0.2,0-0.4-0.1-0.5-0.2
	c-0.1-0.1-0.2-0.3-0.3-0.5c-0.2-2.4-0.9-4.8-1.9-7c-1-2.2-2.3-4.1-4-5.8c-3.3-3.3-7.7-5.3-12.4-5.6c-0.4-0.1-0.8-0.2-1.1-0.5
	c-0.3-0.3-0.5-0.7-0.6-1.1c-0.1-0.4,0-0.8,0.1-1.2c0.2-0.4,0.4-0.7,0.8-0.9l0.1-0.1c3.3-1.7,6.5-3.7,9.5-5.8c3-2.1,5.7-4.5,8.1-7.3
	c0.6-0.7,1.1-1.4,1.6-2.1c0.5-0.6,0.9-1.3,1.2-2c0.1-0.2,0.1-0.4,0.1-0.6c0-0.1,0-0.1-0.1-0.2c-0.3-0.3-0.7-0.6-1.2-0.7
	c-1.6-0.5-3.2-0.8-4.9-0.8c-1.8-0.1-3.6,0-5.4,0.1c-0.6,0-1.2-0.2-1.7-0.6c-0.5-0.4-0.7-1-0.8-1.6s0.1-1.2,0.5-1.7
	C543.2,319.4,543.8,319.1,544.4,319L544.4,319z"/>

<path class="st7" d="M126.5,248.9c-1.8,0-10.6,2.3-15,8.8l79.9,113.4l99.8-11.4l-1.6-102c0,0-6.8-9.8-13.3-8.7
	c-2.6,0.4-87,13.6-94.5,34.3c0,0,0.9-10.5-6.2-15.8C168.5,262.1,126.5,248.9,126.5,248.9z"/>
<path class="st14" d="M126.5,248.9c0,0,0.4,0.1,1.2,0.3l3.4,1.1c3,0.9,7.4,2.4,13.1,4.3c5.7,1.9,12.7,4.3,20.8,7.5
	c2,0.8,4.1,1.7,6.2,2.6c2.1,1,4.4,2,6.1,3.9c3.5,3.7,5,9.2,4.8,14.7l-0.6-0.1c1.5-3.8,4.8-6.6,8.2-9c3.7-2.4,7.5-4.5,11.6-6.2
	c8.8-3.7,17.9-6.8,27.1-9.2c9.7-2.7,20-5,30.7-7.1c5.4-1.1,10.9-2.1,16.5-3c1.5-0.3,3-0.2,4.4,0.3c1.4,0.5,2.7,1.2,3.9,2.1
	c2.3,1.8,4.4,4,6.1,6.4l0.1,0.1v0.1c0.4,26.3,0.9,55,1.4,84.8c0.1,5.8,0.2,11.6,0.3,17.3v0.4h-0.4l-99.8,11.5h-0.2l-0.1-0.2
	c-36.9-52.5-65.7-93.5-79.7-113.5l-0.1-0.1l0.1-0.1c1.5-2.1,3.5-4,5.7-5.3c1.6-1,3.2-1.8,5-2.4c1.1-0.4,2.2-0.7,3.3-0.9
	C125.7,248.9,126.1,248.8,126.5,248.9c-0.4,0-0.8,0.1-1.2,0.2c-1.1,0.3-2.2,0.6-3.2,1c-1.7,0.7-3.4,1.5-5,2.5
	c-2.2,1.4-4.1,3.2-5.6,5.3v-0.2l80.2,113.2l-0.4-0.2l99.8-11.5l-0.4,0.5c-0.1-5.7-0.2-11.5-0.3-17.3c-0.5-29.8-0.9-58.5-1.3-84.8
	l0.1,0.2c-1.7-2.3-3.6-4.4-5.9-6.2c-1.1-0.8-2.3-1.5-3.6-2c-1.3-0.5-2.7-0.5-4-0.3c-5.6,0.9-11.1,1.9-16.4,3
	c-10.7,2.1-21,4.4-30.6,7.1c-9.2,2.4-18.2,5.4-27,9.1c-4,1.7-7.9,3.7-11.6,6c-3.4,2.3-6.6,5.1-8.1,8.7l-0.6,1.6l0.1-1.7
	c0.2-5.4-1.2-10.8-4.5-14.3c-1.6-1.8-3.9-2.8-5.9-3.8c-2-1-4.1-1.8-6.1-2.6c-8-3.2-15-5.6-20.7-7.6l-13.1-4.4l-3.4-1.1
	C126.9,249,126.5,248.9,126.5,248.9z"/>
<path class="st17" d="M175.5,386.9l-74.8-127.2c-0.3-0.6-0.5-1.3-0.4-2c0.1-0.7,0.3-1.3,0.8-1.8c0.4-0.5,1-0.9,1.7-1
	c0.7-0.2,1.3-0.1,2,0.1l59,23.5c1.1,0.5,2.1,1.2,2.9,2.1c0.8,0.9,1.5,2.1,1.8,3.3c0.3,1.2,0.3,2.5,0.1,3.7l-0.9,3.9l20.7,5.3
	l0.5-1.1c0.8-2.1,2.1-4,3.7-5.6c1.7-1.6,3.6-2.7,5.8-3.4l95-30.3c2-0.6,4.1-0.5,6,0.2c1.9,0.8,3.5,2.2,4.4,4.1l67.4,130.1L369,397
	l-107.3,25.5h-18.9L175.5,386.9z"/>
<path class="st14" d="M175.5,386.9c0,0,0.4,0.2,1.2,0.6l3.4,1.8l13.2,6.9l49.6,26h-0.1h18.9h-0.1l107.3-25.5l-0.3,0.3
	c0.7-1.9,1.4-4,2.2-6.2v0.3l-34.9-67.3c-6.1-11.8-12.4-23.9-18.7-36.1l-9.6-18.6l-2.4-4.7l-1.2-2.4c-0.4-0.8-0.8-1.5-1.3-2.2
	c-1-1.4-2.4-2.4-4-2.9c-1.6-0.5-3.3-0.6-5-0.1l-56.1,17.9l-27,8.6c-4.4,1.4-8.9,2.8-13.1,4.2c-2,0.8-3.9,2.1-5.4,3.8
	c-1.5,1.6-2.6,3.6-3.3,5.7l-0.1,0.4l-0.4-0.1l-20.7-5.3l-0.4-0.1l0.1-0.4l0.7-3.1c0.3-1,0.4-2,0.3-3c-0.1-1-0.4-2-0.8-2.9
	c-0.5-0.9-1.1-1.7-1.9-2.3c-0.8-0.6-1.7-1.1-2.6-1.4l-2.9-1.2l-5.8-2.3l-22.5-9l-21.5-8.6l-5.2-2.1c-0.5-0.3-1.2-0.4-1.8-0.4
	s-1.2,0.3-1.7,0.8c-0.5,0.4-0.8,1-0.9,1.6c-0.1,0.6,0,1.2,0.2,1.8l1.3,2.3c0.9,1.5,1.8,3.1,2.7,4.6c14.4,24.5,27,46.1,37.5,63.9
	c10.5,17.8,18.7,32,24.4,41.8l6.5,11.1c0.7,1.3,1.3,2.2,1.7,2.9C175.4,386.6,175.6,386.9,175.5,386.9c0,0-0.2-0.3-0.5-0.9
	c-0.4-0.6-1-1.6-1.7-2.8c-1.5-2.5-3.7-6.2-6.6-11c-5.7-9.7-14.1-23.8-24.6-41.6l-37.7-63.9l-2.8-4.7c-0.5-0.8-0.9-1.5-1.4-2.4
	c-0.2-0.5-0.3-1-0.4-1.5c0-0.5,0.1-1,0.3-1.5c0.2-0.5,0.5-0.9,0.9-1.3c0.4-0.4,0.8-0.6,1.3-0.8c0.5-0.2,1-0.2,1.5-0.2
	c0.5,0,1,0.2,1.5,0.4l5.2,2.1l21.5,8.5l22.5,9l5.8,2.3l2.9,1.2c1,0.3,2,0.9,2.9,1.5c0.9,0.7,1.6,1.6,2.1,2.6c0.5,1,0.8,2.1,0.9,3.2
	c0.1,1.1-0.1,2.2-0.4,3.3l-0.7,3.1l-0.3-0.5l20.7,5.3l-0.5,0.3c0.7-2.2,1.9-4.3,3.5-6c1.6-1.7,3.5-3.1,5.7-4
	c4.4-1.5,8.8-2.8,13.2-4.3l27-8.6l56.1-17.9c1.8-0.5,3.7-0.5,5.5,0.1c1.8,0.6,3.4,1.7,4.5,3.2c0.5,0.7,1,1.5,1.4,2.4l1.2,2.4
	l2.4,4.7l9.6,18.5c6.3,12.3,12.6,24.3,18.7,36.1c12.2,23.6,23.9,46.2,34.8,67.3l0.1,0.2l-0.1,0.2c-0.8,2.1-1.5,4.3-2.2,6.2l-0.1,0.2
	l-0.2,0.1l-107.3,25.3h-0.1h-18.9h-0.1h-0.1l-49.5-26.3l-13.1-7l-3.4-1.8C175.9,387.1,175.5,386.9,175.5,386.9z"/>
<path class="st5" d="M268.4,412.5l-63.2-112.3l93.2-27.8L359.1,388L268.4,412.5z M210.3,302.2l59.8,106.2l83.9-22.7l-57.4-109.3
	L210.3,302.2z"/>
<path class="st5" d="M190.6,328l36.4,67.5l17,2.1l-38.3-68.3L190.6,328z"/>
<path class="st5" d="M177.7,309.9l20.2,4l4.4,7.4l-20.7-4.1L178,311"/>
<path class="st18" d="M249.3,309l-3.6-8.4l23-7.2l4,8.3L249.3,309z"/>
<path class="st18" d="M246.5,347.1l-12.9-24.5l65.7-19l11.6,24.4L246.5,347.1z"/>
<path class="st14" d="M188.6,297.3l73.2,125.4"/>
<path class="st14" d="M167.1,291.8l75.8,130.4"/>
<path class="st15" d="M271.4,445.8c8.7-5.9,12.6-14.7,13.9-17.9c1.6-3.8,2.7-7.9,3.1-12l-26.9,6.2l-19.8-25.2
	c-21-31.5-22.2-28.7-24.4-27.5c-0.6,0.3-1.1,0.6-1.6,1c-1.1,0.8,2.5,16.3,8.9,37.3c-3.7-3.5-18.6-17.4-28.7-17.8
	c-2.7-0.1-3.6,0.8-3.8,1.1c-2.3,2.9,2.8,10.5,6.3,15.5c20.2,28.5,30.2,42.8,47.1,44.9C248.5,451.8,260.6,453.1,271.4,445.8z"/>
<path class="st14" d="M271.4,445.8c8.7-5.9,12.6-14.7,13.9-17.9c1.6-3.8,2.7-7.9,3.1-12l-26.9,6.2l-19.8-25.2
	c-21-31.5-22.2-28.7-24.4-27.5c-0.6,0.3-1.1,0.6-1.6,1c-1.1,0.8,2.5,16.3,8.9,37.3c-3.7-3.5-18.6-17.4-28.7-17.8
	c-2.7-0.1-3.6,0.8-3.8,1.1c-2.3,2.9,2.8,10.5,6.3,15.5c20.2,28.5,30.2,42.8,47.1,44.9C248.5,451.8,260.6,453.1,271.4,445.8z"/>
<path class="st14" d="M221.6,399.1l6.5,16.7"/>
<path class="st19" d="M585.4,642.8c0,0,16.2,2.4,17.8,1.2c1.2-0.8,2.4-1.5,3.7-2l-18-3.6L585.4,642.8z"/>
<path class="st19" d="M715.8,581.8l-111.5,61.8c-0.7,0.4-1.5,0.4-2.2,0.2c-0.7-0.2-1.4-0.7-1.8-1.4
	c-34.8-60.9-75.4-133.7-86.5-155.8c-0.3-0.7-0.4-1.5-0.2-2.2c0.2-0.7,0.7-1.4,1.4-1.7L626.6,421c0.7-0.4,1.5-0.4,2.2-0.2
	c0.7,0.2,1.4,0.7,1.8,1.4L717,577.8c0.4,0.7,0.5,1.5,0.2,2.3S716.5,581.5,715.8,581.8z"/>
<path class="st7" d="M713,580.3l-110.9,62.5l-12.5-1.3l-90.1-158.5l117-61.2l9.4,2.8L713,580.3z"/>
<path class="st19" d="M700.8,579.9l-113,62.7c-0.7,0.4-1.5,0.5-2.2,0.2c-0.7-0.2-1.4-0.7-1.8-1.4c-34.8-60.9-75.4-133.7-86.5-155.8
	c-0.4-0.7-0.4-1.5-0.2-2.2c0.2-0.7,0.7-1.4,1.4-1.8l113-62.7c0.7-0.4,1.5-0.5,2.3-0.3c0.8,0.2,1.4,0.7,1.8,1.4l86.3,155.7
	c0.4,0.7,0.5,1.5,0.3,2.3C702,578.9,701.4,579.5,700.8,579.9z"/>
<path class="st5" d="M688.6,575.7l-91,50.5l-80.3-144.8l91-50.5L688.6,575.7z M598.7,622.1l85.8-47.6l-77.5-139.7l-85.8,47.6
	L598.7,622.1z"/>
<path class="st20" d="M614.3,469.9l-66.7,37l13.2,23.8l66.7-37L614.3,469.9z"/>
<path class="st20" d="M621.1,505.7L572,533l5.6,10l49.1-27.3L621.1,505.7z"/>
<g class="st21">
	<path d="M582.1,623.8l-6.3,3.5l2.4,4.3l6.3-3.5L582.1,623.8z"/>
</g>
<path class="st20" d="M527.2,525l-6.8,3.8l41.1,74l6.8-3.8L527.2,525z"/>
<path class="st22" d="M508.1,477.2l88.2,159.4"/>
<path class="st2" d="M704.6,433.8c23.1,8.5,31.7,32.5,33.6,37.6c10,27.8-1.9,52.3-4.2,57c-2,3.5-4.3,6.9-6.9,10.1
	c-3.4,4.3-7.3,8.2-11.5,11.7c-8.5,6.8-18.1,11.9-28.5,15.2c-36.9,11.4-82-1.6-91.9-4.6c-1.3-0.8-22.9-14.6-23-39
	c0-20.5,15.1-39.5,37.1-45.1c10.2-13.6,23.2-24.7,38.3-32.6C662.2,436.5,682.9,425.8,704.6,433.8z"/>
<path class="st7" d="M706.3,436.9c-0.2-1.7-13.7-3-28.6-1.5c-54.9,5.6-90.2,45.4-97.5,60.3c-4,8.3-8.8,28.1-9.1,29.3
	c0,0.1,0,0.2,0,0.3c-0.1,1,0.2,1.9,0.9,2.7c0.6,0.7,1.5,1.2,2.5,1.3c1,0.1,1.9-0.2,2.7-0.8c0.8-0.6,1.3-1.5,1.4-2.5V526
	c1.4-6.3,3.4-12.5,6.1-18.3c2.2-4.9,13.7-28.8,46.4-47.7C668.9,438.1,706.6,439.7,706.3,436.9z"/>
<path class="st6" d="M744.7,482c0.2,11.2-1,35.5-17.6,56.5c-3.4,4.3-7.2,8.2-11.5,11.7c-8.5,6.8-18.1,11.9-28.5,15.2
	c-36.9,11.4-82-1.6-91.9-4.6c-20.1-17.3-22.5-33.1-23-39c-3.2-45.8,71.6-76.2,75.4-77.7c18.2-7.1,37.5-10.6,57-10.2"/>
<path class="st15" d="M589,523.6c9.9,6.2,12.4,20.9,7.8,31.5c-4,9.3-10.6,8.5-28.2,27.2c-7.6,8-12,14.2-13.7,13.4
	c-1.7-0.8,0.9-8.4,3.4-15.3c3.1-8.7,6.8-17.2,11.1-25.4c-7.2,5.2-13.9,11.1-20,17.6c-8.8,9.5-12.5,16.2-13.9,15.7
	c-1.8-0.7,2.4-14.6,10.4-27.1c4.6-7.2,10.3-13.7,16.8-19.3c-6.7,2.7-13,6.3-18.7,10.7c-8.3,6.3-13.5,12.9-14.7,12.1
	c-1.2-0.8,3.6-9.4,4-10.2c6.2-10.9,13.6-23.8,27.9-30C564.6,523,578.5,517,589,523.6z"/>
<path class="st14" d="M589,523.6c9.9,6.2,12.4,20.9,7.8,31.5c-4,9.3-10.6,8.5-28.2,27.2c-7.6,8-12,14.2-13.7,13.4
	c-1.7-0.8,0.9-8.4,3.4-15.3c3.1-8.7,6.8-17.2,11.1-25.4c-7.2,5.2-13.9,11.1-20,17.6c-8.8,9.5-12.5,16.2-13.9,15.7
	c-1.8-0.7,2.4-14.6,10.4-27.1c4.6-7.2,10.3-13.7,16.8-19.3c-6.7,2.7-13,6.3-18.7,10.7c-8.3,6.3-13.5,12.9-14.7,12.1
	c-1.2-0.8,3.6-9.4,4-10.2c6.2-10.9,13.6-23.8,27.9-30C564.6,523,578.5,517,589,523.6z"/>
</g>
 -->
</svg>
